<svg width="24" height="24" viewBox="0 0 24 24" fill="none" xmlns="http://www.w3.org/2000/svg">
<path d="M21.3205 11.5008C21.2248 9.6644 20.5861 7.8977 19.4853 6.42466C19.1499 6.7859 18.7914 7.12495 18.412 7.43966C17.2464 8.40782 15.9439 9.19805 14.5468 9.78466C14.7416 10.193 14.9201 10.5885 15.0776 10.9618V10.9653C15.1221 11.0696 15.1649 11.1747 15.206 11.2803C16.9723 11.082 18.8343 11.1543 20.6391 11.3982C20.8795 11.4308 21.1058 11.4658 21.3205 11.5008ZM10.3713 2.80916C11.5083 4.4112 12.5567 6.07424 13.512 7.79083C14.9388 7.2285 16.1183 6.51916 17.068 5.72933C17.3976 5.45765 17.7079 5.16333 17.9966 4.8485C16.3178 3.4365 14.1937 2.66372 12 2.66683C11.454 2.66646 10.9091 2.71369 10.3713 2.808V2.80916ZM2.96181 9.66333C3.75658 9.64327 4.5504 9.59541 5.34181 9.51983C7.25473 9.34873 9.1513 9.02808 11.0141 8.56083C10.0406 6.86941 8.98946 5.22382 7.86415 3.62933C6.66215 4.22479 5.60228 5.07181 4.75643 6.11292C3.91058 7.15402 3.29854 8.36487 2.96181 9.66333ZM4.74681 17.8743C5.19948 17.2128 5.79448 16.4685 6.58431 15.6588C8.28065 13.9205 10.2826 12.5672 12.5996 11.8205L12.672 11.7995C12.4795 11.3748 12.2986 10.9957 12.1166 10.6387C9.97465 11.2628 7.71831 11.6525 5.47015 11.8543C4.37348 11.9535 3.38998 11.9967 2.66665 12.0037C2.66458 14.1417 3.39966 16.2151 4.74798 17.8743H4.74681ZM15.5058 20.651C15.0559 18.3821 14.4191 16.1544 13.6018 13.9905C11.2661 14.8387 9.40531 16.0788 7.96681 17.5582C7.38628 18.1443 6.8711 18.7917 6.43031 19.489C8.03892 20.6893 9.99294 21.3364 12 21.3335C13.2015 21.3352 14.3921 21.1042 15.5058 20.6533V20.651ZM17.691 19.3968C19.5125 17.9966 20.7533 15.9735 21.1758 13.7152C20.7791 13.616 20.2763 13.5168 19.7233 13.4398C18.4938 13.2628 17.2462 13.2498 16.0133 13.4013C16.7075 15.36 17.2681 17.3635 17.691 19.398V19.3968ZM12 23.6668C5.55648 23.6668 0.333313 18.4437 0.333313 12.0002C0.333313 5.55666 5.55648 0.333496 12 0.333496C18.4435 0.333496 23.6666 5.55666 23.6666 12.0002C23.6666 18.4437 18.4435 23.6668 12 23.6668Z" fill="#F76943"/>
</svg>
