<svg width="22" height="22" viewBox="0 0 22 22" fill="none" xmlns="http://www.w3.org/2000/svg">
<path d="M13.3333 19.1667H19.1667V2.83333H2.83333V19.1667H11V13.3333H8.66667V11H11V9.07033C11 7.5105 11.1633 6.94467 11.4667 6.37417C11.7655 5.80972 12.2273 5.3483 12.792 5.05C13.2377 4.81083 13.7918 4.66733 14.7602 4.6055C15.144 4.581 15.641 4.61133 16.2512 4.69883V6.9155H15.6667C14.5968 6.9155 14.1547 6.96567 13.891 7.10683C13.7337 7.18775 13.6056 7.31584 13.5247 7.47317C13.3847 7.73683 13.3333 7.99817 13.3333 9.06917V11H16.25L15.6667 13.3333H13.3333V19.1667ZM1.66667 0.5H20.3333C20.6428 0.5 20.9395 0.622916 21.1583 0.841709C21.3771 1.0605 21.5 1.35725 21.5 1.66667V20.3333C21.5 20.6428 21.3771 20.9395 21.1583 21.1583C20.9395 21.3771 20.6428 21.5 20.3333 21.5H1.66667C1.35725 21.5 1.0605 21.3771 0.841709 21.1583C0.622916 20.9395 0.5 20.6428 0.5 20.3333V1.66667C0.5 1.35725 0.622916 1.0605 0.841709 0.841709C1.0605 0.622916 1.35725 0.5 1.66667 0.5Z" fill="#F76943"/>
</svg>
