<svg width="24" height="24" viewBox="0 0 24 24" fill="none" xmlns="http://www.w3.org/2000/svg">
<path d="M12 8.50016C11.0717 8.50016 10.1815 8.86891 9.52511 9.52529C8.86873 10.1817 8.49998 11.0719 8.49998 12.0002C8.49998 12.9284 8.86873 13.8187 9.52511 14.475C10.1815 15.1314 11.0717 15.5002 12 15.5002C12.9282 15.5002 13.8185 15.1314 14.4749 14.475C15.1312 13.8187 15.5 12.9284 15.5 12.0002C15.5 11.0719 15.1312 10.1817 14.4749 9.52529C13.8185 8.86891 12.9282 8.50016 12 8.50016ZM12 6.16683C13.5471 6.16683 15.0308 6.78141 16.1248 7.87537C17.2187 8.96934 17.8333 10.4531 17.8333 12.0002C17.8333 13.5473 17.2187 15.031 16.1248 16.125C15.0308 17.2189 13.5471 17.8335 12 17.8335C10.4529 17.8335 8.96915 17.2189 7.87519 16.125C6.78123 15.031 6.16665 13.5473 6.16665 12.0002C6.16665 10.4531 6.78123 8.96934 7.87519 7.87537C8.96915 6.78141 10.4529 6.16683 12 6.16683ZM19.5833 5.87516C19.5833 6.26194 19.4297 6.63287 19.1562 6.90636C18.8827 7.17985 18.5118 7.3335 18.125 7.3335C17.7382 7.3335 17.3673 7.17985 17.0938 6.90636C16.8203 6.63287 16.6666 6.26194 16.6666 5.87516C16.6666 5.48839 16.8203 5.11746 17.0938 4.84397C17.3673 4.57048 17.7382 4.41683 18.125 4.41683C18.5118 4.41683 18.8827 4.57048 19.1562 4.84397C19.4297 5.11746 19.5833 5.48839 19.5833 5.87516ZM12 2.66683C9.11365 2.66683 8.64231 2.675 7.29948 2.7345C6.38481 2.77766 5.77115 2.90016 5.20181 3.12183C4.69548 3.31783 4.33031 3.55233 3.94181 3.942C3.57665 4.2948 3.29589 4.72551 3.12048 5.202C2.89881 5.77366 2.77631 6.38616 2.73431 7.29966C2.67365 8.58766 2.66665 9.038 2.66665 12.0002C2.66665 14.8865 2.67481 15.3578 2.73431 16.7007C2.77748 17.6142 2.89998 18.229 3.12048 18.7972C3.31881 19.3047 3.55215 19.6698 3.93948 20.0572C4.33265 20.4492 4.69781 20.6837 5.19948 20.8773C5.77581 21.1002 6.38948 21.2238 7.29948 21.2658C8.58748 21.3265 9.03781 21.3335 12 21.3335C14.8863 21.3335 15.3576 21.3253 16.7005 21.2658C17.6128 21.2227 18.2276 21.1002 18.797 20.8797C19.3021 20.6825 19.6696 20.448 20.057 20.0607C20.4501 19.6675 20.6846 19.3023 20.8783 18.8007C21.1 18.2255 21.2236 17.6107 21.2656 16.7007C21.3263 15.4127 21.3333 14.9623 21.3333 12.0002C21.3333 9.11383 21.3251 8.6425 21.2656 7.29966C21.2225 6.38733 21.1 5.77133 20.8783 5.202C20.7025 4.726 20.4222 4.29545 20.0581 3.942C19.7055 3.57665 19.2747 3.29586 18.7981 3.12066C18.2265 2.899 17.6128 2.7765 16.7005 2.7345C15.4125 2.67383 14.9621 2.66683 12 2.66683ZM12 0.333496C15.1698 0.333496 15.5653 0.345163 16.809 0.403496C18.0515 0.461829 18.8973 0.656663 19.6416 0.945996C20.4116 1.24233 21.0603 1.64366 21.709 2.29116C22.3022 2.87437 22.7613 3.57985 23.0541 4.3585C23.3423 5.10166 23.5383 5.94866 23.5966 7.19116C23.6515 8.43483 23.6666 8.83033 23.6666 12.0002C23.6666 15.17 23.655 15.5655 23.5966 16.8092C23.5383 18.0517 23.3423 18.8975 23.0541 19.6418C22.7621 20.4209 22.303 21.1266 21.709 21.7092C21.1256 22.3022 20.4202 22.7612 19.6416 23.0543C18.8985 23.3425 18.0515 23.5385 16.809 23.5968C15.5653 23.6517 15.1698 23.6668 12 23.6668C8.83015 23.6668 8.43465 23.6552 7.19098 23.5968C5.94848 23.5385 5.10265 23.3425 4.35831 23.0543C3.57936 22.7621 2.87376 22.3029 2.29098 21.7092C1.69762 21.126 1.23857 20.4205 0.945813 19.6418C0.65648 18.8987 0.461646 18.0517 0.403313 16.8092C0.34848 15.5655 0.333313 15.17 0.333313 12.0002C0.333313 8.83033 0.34498 8.43483 0.403313 7.19116C0.461646 5.9475 0.65648 5.10283 0.945813 4.3585C1.23776 3.57937 1.69692 2.8737 2.29098 2.29116C2.87393 1.6976 3.57948 1.23851 4.35831 0.945996C5.10265 0.656663 5.94731 0.461829 7.19098 0.403496C8.43465 0.348663 8.83015 0.333496 12 0.333496Z" fill="#F76943"/>
</svg>
