<svg width="26" height="30" viewBox="0 0 26 30" fill="none" xmlns="http://www.w3.org/2000/svg">
<path d="M2.00002 15L0.51738 13.6577C-0.172429 14.4196 -0.172429 15.5804 0.51738 16.3423L2.00002 15ZM15.2521 3.3423C15.9935 2.52346 15.9306 1.25869 15.1118 0.517357C14.2929 -0.223974 13.0282 -0.16114 12.2868 0.6577L15.2521 3.3423ZM12.2868 29.3423C13.0282 30.1611 14.2929 30.224 15.1118 29.4826C15.9306 28.7413 15.9935 27.4765 15.2521 26.6577L12.2868 29.3423ZM3.48267 16.3423L15.2521 3.3423L12.2868 0.6577L0.51738 13.6577L3.48267 16.3423ZM15.2521 26.6577L3.48267 13.6577L0.51738 16.3423L12.2868 29.3423L15.2521 26.6577Z" fill="white"/>
<path d="M16.7573 15L15.6453 13.9933C15.1279 14.5647 15.1279 15.4353 15.6453 16.0067L16.7573 15ZM25.112 8.00673C25.668 7.39259 25.6209 6.44402 25.0067 5.88802C24.3926 5.33202 23.444 5.37914 22.888 5.99327L25.112 8.00673ZM22.888 24.0067C23.444 24.6209 24.3926 24.668 25.0067 24.112C25.6209 23.556 25.668 22.6074 25.112 21.9933L22.888 24.0067ZM17.8693 16.0067L25.112 8.00673L22.888 5.99327L15.6453 13.9933L17.8693 16.0067ZM25.112 21.9933L17.8693 13.9933L15.6453 16.0067L22.888 24.0067L25.112 21.9933Z" fill="white"/>
</svg>
