<svg width="22" height="22" viewBox="0 0 22 22" fill="none" xmlns="http://www.w3.org/2000/svg">
<path d="M1.66667 0.5H20.3333C20.6428 0.5 20.9395 0.622916 21.1583 0.841709C21.3771 1.0605 21.5 1.35725 21.5 1.66667V20.3333C21.5 20.6428 21.3771 20.9395 21.1583 21.1583C20.9395 21.3771 20.6428 21.5 20.3333 21.5H1.66667C1.35725 21.5 1.0605 21.3771 0.841709 21.1583C0.622916 20.9395 0.5 20.6428 0.5 20.3333V1.66667C0.5 1.35725 0.622916 1.0605 0.841709 0.841709C1.0605 0.622916 1.35725 0.5 1.66667 0.5ZM2.83333 2.83333V19.1667H19.1667V2.83333H2.83333ZM5.75 7.5C5.28587 7.5 4.84075 7.31563 4.51256 6.98744C4.18437 6.65925 4 6.21413 4 5.75C4 5.28587 4.18437 4.84075 4.51256 4.51256C4.84075 4.18437 5.28587 4 5.75 4C6.21413 4 6.65925 4.18437 6.98744 4.51256C7.31563 4.84075 7.5 5.28587 7.5 5.75C7.5 6.21413 7.31563 6.65925 6.98744 6.98744C6.65925 7.31563 6.21413 7.5 5.75 7.5ZM4.58333 8.66667H6.91667V17.4167H4.58333V8.66667ZM11 9.16833C11.6813 8.50917 12.477 8.08333 13.3333 8.08333C15.7495 8.08333 17.4167 10.0422 17.4167 12.4583V17.4167H15.0833V12.4583C15.0833 11.9168 14.8682 11.3975 14.4853 11.0147C14.1025 10.6318 13.5831 10.4167 13.0417 10.4167C12.5002 10.4167 11.9809 10.6318 11.598 11.0147C11.2151 11.3975 11 11.9168 11 12.4583V17.4167H8.66667V8.66667H11V9.16833Z" fill="#F76943"/>
</svg>
