<svg width="26" height="30" viewBox="0 0 26 30" fill="none" xmlns="http://www.w3.org/2000/svg">
<path d="M24 15L25.4826 16.3423C26.1725 15.5804 26.1725 14.4196 25.4826 13.6577L24 15ZM10.7479 26.6577C10.0066 27.4765 10.0694 28.7413 10.8882 29.4826C11.7071 30.224 12.9719 30.1611 13.7132 29.3423L10.7479 26.6577ZM13.7132 0.6577C12.9719 -0.161141 11.7071 -0.223975 10.8882 0.517357C10.0694 1.25869 10.0066 2.52346 10.7479 3.3423L13.7132 0.6577ZM22.5174 13.6577L10.7479 26.6577L13.7132 29.3423L25.4826 16.3423L22.5174 13.6577ZM10.7479 3.3423L22.5174 16.3423L25.4826 13.6577L13.7132 0.6577L10.7479 3.3423Z" fill="white"/>
<path d="M9.2428 15L10.3548 16.0067C10.8721 15.4353 10.8721 14.5647 10.3548 13.9933L9.2428 15ZM0.888075 21.9933C0.332076 22.6074 0.379201 23.556 0.993332 24.112C1.60746 24.668 2.55604 24.6209 3.11204 24.0067L0.888075 21.9933ZM3.11204 5.99328C2.55604 5.37914 1.60746 5.33202 0.993332 5.88802C0.379201 6.44402 0.332076 7.39259 0.888075 8.00672L3.11204 5.99328ZM8.13082 13.9933L0.888075 21.9933L3.11204 24.0067L10.3548 16.0067L8.13082 13.9933ZM0.888075 8.00672L8.13082 16.0067L10.3548 13.9933L3.11204 5.99328L0.888075 8.00672Z" fill="white"/>
</svg>
