<svg width="25" height="20" viewBox="0 0 25 20" fill="none" xmlns="http://www.w3.org/2000/svg">
<path d="M16.85 2.47497C15.9633 2.47482 15.112 2.82278 14.4792 3.44397C13.8465 4.06515 13.4829 4.90992 13.4667 5.79647L13.434 7.63397C13.4321 7.73263 13.4093 7.82977 13.3672 7.91902C13.3252 8.00826 13.2647 8.0876 13.1898 8.15183C13.1148 8.21606 13.0272 8.26372 12.9326 8.29169C12.8379 8.31966 12.7385 8.32731 12.6407 8.31414L10.8195 8.06681C8.42317 7.74014 6.12717 6.63647 3.9245 4.8013C3.22684 8.66297 4.5895 11.3381 7.87134 13.402L9.9095 14.683C10.0063 14.7438 10.0868 14.8275 10.1438 14.9266C10.2009 15.0258 10.2327 15.1374 10.2366 15.2517C10.2405 15.366 10.2164 15.4795 10.1663 15.5824C10.1162 15.6852 10.0416 15.7741 9.94917 15.8415L8.09184 17.1983C9.19667 17.2671 10.2455 17.2181 11.1158 17.0455C16.6202 15.9465 20.28 11.8048 20.28 4.97281C20.28 4.41514 19.0993 2.47497 16.85 2.47497ZM11.1333 5.7533C11.1537 4.6287 11.5054 3.53509 12.1443 2.6094C12.7833 1.68371 13.6811 0.967077 14.7254 0.549232C15.7697 0.131387 16.9141 0.0308969 18.0152 0.260343C19.1163 0.489788 20.1253 1.03897 20.9158 1.83914C21.7453 1.8333 22.4512 2.0433 24.0297 1.08664C23.6388 2.99997 23.4463 3.83064 22.6133 4.97281C22.6133 13.8885 17.1335 18.2238 11.5732 19.3333C7.7605 20.094 2.2165 18.8445 0.627502 17.1855C1.43717 17.1225 4.72717 16.769 6.62884 15.3771C5.02 14.3166 -1.38383 10.5483 2.82434 0.416971C4.7995 2.72347 6.80267 4.2938 8.83267 5.1268C10.1837 5.68097 10.515 5.66931 11.1345 5.75447L11.1333 5.7533Z" fill="#F76943"/>
</svg>
