<svg width="6" height="11" viewBox="0 0 6 11" fill="none" xmlns="http://www.w3.org/2000/svg">
<path d="M5 5.59375L5.55599 6.09712C5.81467 5.81139 5.81467 5.37612 5.55599 5.09039L5 5.59375ZM0.444009 9.50861C0.166009 9.81567 0.189572 10.29 0.496637 10.568C0.803703 10.846 1.27799 10.8224 1.55599 10.5153L0.444009 9.50861ZM1.55599 0.672175C1.27799 0.365109 0.803703 0.341546 0.496637 0.619546C0.189572 0.897545 0.166009 1.37183 0.444009 1.6789L1.55599 0.672175ZM4.44401 5.09039L0.444009 9.50861L1.55599 10.5153L5.55599 6.09712L4.44401 5.09039ZM0.444009 1.6789L4.44401 6.09712L5.55599 5.09039L1.55599 0.672175L0.444009 1.6789Z" fill="white"/>
</svg>
