<svg width="44" height="48" viewBox="0 0 44 48" fill="none" xmlns="http://www.w3.org/2000/svg">
<g clip-path="url(#clip0_206_1262)">
<path d="M43.0067 48.0001H0.915034C0.672356 48.0001 0.439611 47.9027 0.268008 47.7296C0.0964052 47.5564 0 47.3216 0 47.0767C0 46.8318 0.0964052 46.597 0.268008 46.4238C0.439611 46.2506 0.672356 46.1533 0.915034 46.1533H43.0067C43.2494 46.1533 43.4821 46.2506 43.6537 46.4238C43.8253 46.597 43.9217 46.8318 43.9217 47.0767C43.9217 47.3216 43.8253 47.5564 43.6537 47.7296C43.4821 47.9027 43.2494 48.0001 43.0067 48.0001Z" fill="#F76943"/>
<path d="M2.82644 48.0001C2.61296 47.9999 2.40628 47.9243 2.24213 47.7866C2.07798 47.6489 1.96669 47.4576 1.92749 47.2458C1.86217 46.8854 1.82957 46.5198 1.83008 46.1534C1.82991 44.7649 2.27292 43.4132 3.09352 42.2985C3.91412 41.1839 5.06866 40.3655 6.38617 39.9647C7.70367 39.564 9.11405 39.602 10.4084 40.0733C11.7028 40.5446 12.8124 41.424 13.5727 42.5813C13.7071 42.7853 13.7557 43.0348 13.7078 43.2749C13.6598 43.5151 13.5193 43.7261 13.3172 43.8617C13.115 43.9973 12.8678 44.0464 12.6298 43.998C12.3919 43.9496 12.1827 43.8078 12.0483 43.6038C11.3947 42.6037 10.3799 41.9006 9.22007 41.6444C8.89655 41.5734 8.56643 41.5373 8.23536 41.5367C7.02239 41.5381 5.85947 42.025 5.00176 42.8905C4.14406 43.756 3.66158 44.9294 3.66016 46.1534C3.65983 46.4064 3.68226 46.6588 3.72717 46.9077C3.75167 47.0411 3.74677 47.1782 3.71282 47.3095C3.67887 47.4407 3.6167 47.5628 3.53073 47.6671C3.44475 47.7714 3.33708 47.8553 3.21536 47.9128C3.09365 47.9704 2.96086 48.0002 2.82644 48.0001Z" fill="#F76943"/>
<path d="M9.4158 41.6664C9.27119 41.666 9.12873 41.6311 9 41.5646C8.87127 41.4981 8.76002 41.4018 8.67523 41.2835C8.59044 41.1653 8.53455 41.0285 8.51214 40.8844C8.48978 40.7402 8.50149 40.5927 8.54632 40.454C8.96629 39.1572 9.78195 38.0278 10.8766 37.2271C11.9712 36.4264 13.2888 35.9957 14.6407 35.9964C15.7693 35.9935 16.8781 36.2961 17.8513 36.8728C17.956 36.9339 18.0476 37.0153 18.1208 37.1124C18.1942 37.2093 18.2477 37.3201 18.2783 37.438C18.3089 37.5561 18.3161 37.679 18.2993 37.7998C18.2826 37.9206 18.2424 38.0369 18.1808 38.1419C18.1194 38.2469 18.0378 38.3386 17.941 38.4116C17.8442 38.4847 17.734 38.5376 17.6168 38.5674C17.4996 38.5972 17.3777 38.6034 17.2581 38.5854C17.1385 38.5674 17.0237 38.5256 16.9202 38.4625C16.2302 38.0512 15.4421 37.8371 14.6407 37.8431C13.6742 37.8429 12.7326 38.1512 11.9503 38.7238C11.168 39.2964 10.5852 40.104 10.2853 41.0311C10.225 41.2158 10.1084 41.3766 9.95236 41.4906C9.79628 41.6047 9.60851 41.6662 9.4158 41.6664Z" fill="#F76943"/>
<path d="M17.3857 38.591C17.2656 38.591 17.1466 38.5672 17.0355 38.5208C16.9245 38.4744 16.8236 38.4064 16.7386 38.3206C16.6537 38.2349 16.5862 38.1331 16.5403 38.021C16.4943 37.909 16.4706 37.7889 16.4707 37.6676V26.384C16.4707 26.1391 16.5671 25.9043 16.7387 25.7311C16.9103 25.558 17.1431 25.4607 17.3857 25.4607C17.6284 25.4607 17.8612 25.558 18.0328 25.7311C18.2044 25.9043 18.3007 26.1391 18.3007 26.384V37.6676C18.3008 37.7889 18.2771 37.909 18.2312 38.021C18.1852 38.1331 18.1178 38.2349 18.0328 38.3206C17.9479 38.4064 17.847 38.4744 17.7359 38.5208C17.6249 38.5672 17.5059 38.591 17.3857 38.591Z" fill="#F76943"/>
<path d="M41.0953 47.9999C40.9609 47.9999 40.8281 47.9701 40.7063 47.9126C40.5846 47.855 40.477 47.7711 40.391 47.6668C40.3051 47.5625 40.2429 47.4405 40.2089 47.3092C40.175 47.178 40.1701 47.0408 40.1946 46.9074C40.2395 46.6586 40.2619 46.4061 40.2616 46.1531C40.2602 44.9291 39.7777 43.7557 38.9199 42.8902C38.0622 42.0247 36.8994 41.5378 35.6864 41.5364C35.3556 41.537 35.0258 41.5731 34.7025 41.6441C33.5424 41.9001 32.5272 42.6032 31.8735 43.6036C31.7386 43.8065 31.5296 43.9472 31.2922 43.995C31.0547 44.0427 30.8082 43.9936 30.6066 43.8584C30.405 43.7231 30.2647 43.5128 30.2164 43.2734C30.1681 43.034 30.2158 42.785 30.349 42.581C31.1094 41.4238 32.219 40.5445 33.5134 40.0733C34.8077 39.602 36.218 39.564 37.5355 39.9648C38.8529 40.3655 40.0075 41.1838 40.8281 42.2984C41.6487 43.413 42.0918 44.7646 42.0916 46.1531C42.0922 46.5195 42.0596 46.8852 41.9942 47.2455C41.9551 47.4573 41.8438 47.6486 41.6796 47.7863C41.5155 47.9241 41.3088 47.9996 41.0953 47.9999Z" fill="#F76943"/>
<path d="M34.506 41.6664C34.3133 41.6661 34.1256 41.6047 33.9695 41.4906C33.8134 41.3766 33.6969 41.2158 33.6366 41.0311C33.3367 40.104 32.7539 39.2964 31.9716 38.7238C31.1893 38.1512 30.2476 37.8429 29.2812 37.8431C28.4797 37.8371 27.6917 38.0512 27.0016 38.4625C26.8981 38.5256 26.7833 38.5674 26.6637 38.5854C26.5442 38.6034 26.4222 38.5972 26.305 38.5674C26.1878 38.5376 26.0776 38.4847 25.9808 38.4116C25.884 38.3386 25.8025 38.2469 25.7409 38.1419C25.6795 38.0369 25.6391 37.9206 25.6224 37.7998C25.6057 37.679 25.6129 37.5561 25.6435 37.438C25.6742 37.3201 25.7277 37.2093 25.8009 37.1124C25.8743 37.0153 25.9658 36.9339 26.0705 36.8728C27.0438 36.2961 28.1525 35.9935 29.2812 35.9964C30.6331 35.9957 31.9506 36.4265 33.0452 37.2271C34.1398 38.0278 34.9555 39.1573 35.3755 40.454C35.4203 40.5927 35.432 40.7402 35.4096 40.8844C35.3872 41.0286 35.3313 41.1653 35.2466 41.2836C35.1618 41.4018 35.0505 41.4981 34.9218 41.5646C34.7931 41.6311 34.6506 41.666 34.506 41.6664Z" fill="#F76943"/>
<path d="M26.5361 38.591C26.4159 38.591 26.2968 38.5672 26.1858 38.5208C26.0748 38.4744 25.9739 38.4064 25.889 38.3206C25.804 38.2349 25.7366 38.1331 25.6906 38.021C25.6446 37.909 25.621 37.7889 25.621 37.6676V26.384C25.621 26.1391 25.7174 25.9043 25.889 25.7311C26.0606 25.558 26.2933 25.4607 26.5361 25.4607C26.7787 25.4607 27.0114 25.558 27.1831 25.7311C27.3547 25.9043 27.4511 26.1391 27.4511 26.384V37.6676C27.4511 37.7889 27.4275 37.909 27.3815 38.021C27.3355 38.1331 27.2681 38.2349 27.1831 38.3206C27.0982 38.4064 26.9973 38.4744 26.8863 38.5208C26.7752 38.5672 26.6562 38.591 26.5361 38.591Z" fill="#F76943"/>
<path d="M25.6211 44.3067C25.5009 44.3067 25.3819 44.2829 25.2709 44.2364C25.1599 44.1901 25.059 44.1221 24.974 44.0363C24.889 43.9505 24.8216 43.8488 24.7756 43.7367C24.7297 43.6247 24.706 43.5046 24.7061 43.3834C24.7055 42.8937 24.5125 42.4243 24.1694 42.0781C23.8264 41.7319 23.3611 41.5372 22.876 41.5366C22.6333 41.5366 22.4005 41.4394 22.2289 41.2662C22.0573 41.093 21.9609 40.8581 21.9609 40.6133C21.9609 40.3684 22.0573 40.1335 22.2289 39.9604C22.4005 39.7872 22.6333 39.6899 22.876 39.6899C23.8464 39.691 24.7768 40.0804 25.4629 40.7728C26.1491 41.4653 26.5351 42.4041 26.5361 43.3834C26.5362 43.5046 26.5125 43.6247 26.4665 43.7367C26.4206 43.8488 26.3531 43.9505 26.2682 44.0363C26.1832 44.1221 26.0823 44.1901 25.9713 44.2364C25.8602 44.2829 25.7413 44.3067 25.6211 44.3067Z" fill="#F76943"/>
<path d="M27.8817 27.3043H16.0399C15.8516 27.3044 15.668 27.2459 15.514 27.1367C15.36 27.0275 15.2431 26.873 15.1793 26.6944C12.0974 18.0794 14.0043 8.63796 20.2799 1.43875L21.2736 0.298936C21.362 0.204529 21.4685 0.129319 21.5866 0.077916C21.7048 0.0265135 21.8321 0 21.9608 0C22.0895 0 22.2168 0.0265135 22.335 0.077916C22.4531 0.129319 22.5597 0.204529 22.648 0.298936L23.6416 1.4387C29.9174 8.63796 31.8243 18.0794 28.7423 26.6944C28.6785 26.873 28.5617 27.0276 28.4076 27.1367C28.2536 27.2459 28.0699 27.3044 27.8817 27.3043ZM16.6922 25.4576H27.2294C29.7797 17.6515 27.9469 9.17406 22.2673 2.65873L21.9608 2.30705L21.6543 2.65873C15.9746 9.17406 14.1419 17.6515 16.6922 25.4576Z" fill="#F76943"/>
<path d="M21.9609 31.3796C21.8408 31.3796 21.7217 31.3558 21.6107 31.3093C21.4997 31.2629 21.3988 31.195 21.3138 31.1092C21.2289 31.0234 21.1614 30.9217 21.1155 30.8096C21.0695 30.6976 21.0458 30.5775 21.0459 30.4562V22.3052C21.0459 22.0603 21.1423 21.8254 21.3139 21.6523C21.4855 21.4791 21.7182 21.3818 21.9609 21.3818C22.2036 21.3818 22.4364 21.4791 22.608 21.6523C22.7796 21.8254 22.8759 22.0603 22.8759 22.3052V30.4562C22.876 30.5775 22.8523 30.6976 22.8064 30.8096C22.7604 30.9217 22.693 31.0234 22.608 31.1092C22.523 31.195 22.4221 31.2629 22.3111 31.3093C22.2001 31.3558 22.0811 31.3796 21.9609 31.3796Z" fill="#F76943"/>
<path d="M10.0654 28.6095C9.9034 28.6096 9.74434 28.5663 9.60437 28.484C9.46447 28.4017 9.3487 28.2834 9.2689 28.1412C9.18911 27.9989 9.14814 27.8379 9.15022 27.6744C9.15236 27.511 9.19743 27.3511 9.28079 27.211L13.9105 19.4269C14.0354 19.2169 14.2379 19.0657 14.4733 19.0063C14.7087 18.9469 14.9579 18.9844 15.166 19.1104C15.3741 19.2365 15.524 19.4407 15.5828 19.6783C15.6416 19.9159 15.6045 20.1674 15.4796 20.3773L11.9366 26.3336L15.8478 25.4815C15.9653 25.4559 16.0866 25.4539 16.2048 25.4757C16.3231 25.4974 16.4358 25.5424 16.5368 25.6081C16.6378 25.6738 16.725 25.759 16.7934 25.8588C16.8617 25.9585 16.91 26.0708 16.9353 26.1894C16.9606 26.3079 16.9626 26.4303 16.9411 26.5496C16.9196 26.6689 16.875 26.7827 16.8098 26.8846C16.7447 26.9865 16.6602 27.0745 16.5614 27.1435C16.4626 27.2125 16.3513 27.2611 16.2338 27.2867L10.2584 28.5888C10.195 28.6026 10.1303 28.6096 10.0654 28.6095Z" fill="#F76943"/>
<path d="M33.8563 28.6095C33.7914 28.6095 33.7267 28.6026 33.6633 28.5888L27.6879 27.2867C27.5704 27.2611 27.4591 27.2125 27.3603 27.1435C27.2615 27.0745 27.177 26.9865 27.1119 26.8846C27.0467 26.7827 27.0022 26.6689 26.9806 26.5496C26.9591 26.4302 26.9611 26.3078 26.9864 26.1893C27.0117 26.0708 27.06 25.9585 27.1283 25.8587C27.1967 25.759 27.2839 25.6738 27.3849 25.6081C27.5888 25.4753 27.8367 25.4298 28.0739 25.4815L31.9852 26.3336L28.4421 20.3773C28.3802 20.2733 28.3393 20.1581 28.3216 20.0382C28.3038 19.9183 28.3097 19.796 28.3389 19.6783C28.368 19.5607 28.4198 19.45 28.4913 19.3525C28.5628 19.2551 28.6527 19.1728 28.7557 19.1104C28.8587 19.048 28.9729 19.0067 29.0918 18.9888C29.2107 18.971 29.3318 18.9769 29.4484 19.0063C29.565 19.0357 29.6747 19.0879 29.7712 19.1601C29.8678 19.2323 29.9494 19.3229 30.0112 19.4269L34.6409 27.211C34.7243 27.3511 34.7693 27.511 34.7714 27.6744C34.7736 27.8378 34.7326 27.9989 34.6528 28.1411C34.573 28.2833 34.4572 28.4017 34.3173 28.484C34.1774 28.5662 34.0183 28.6096 33.8563 28.6095Z" fill="#F76943"/>
<path d="M21.9608 14.7594C21.4178 14.7594 20.8871 14.5969 20.4357 14.2925C19.9843 13.9882 19.6324 13.5556 19.4246 13.0494C19.2169 12.5432 19.1625 11.9863 19.2684 11.4489C19.3743 10.9116 19.6358 10.418 20.0197 10.0306C20.4036 9.64319 20.8927 9.37937 21.4253 9.27245C21.9577 9.16559 22.5097 9.22043 23.0113 9.43013C23.5129 9.63977 23.9416 9.99479 24.2433 10.4504C24.5449 10.9059 24.7059 11.4415 24.7059 11.9893C24.7051 12.7237 24.4157 13.4279 23.901 13.9472C23.3864 14.4665 22.6886 14.7586 21.9608 14.7594ZM21.9608 11.066C21.7798 11.066 21.6029 11.1201 21.4524 11.2216C21.3019 11.323 21.1847 11.4673 21.1154 11.636C21.0462 11.8047 21.028 11.9903 21.0633 12.1694C21.0987 12.3486 21.1858 12.5131 21.3138 12.6422C21.4417 12.7714 21.6048 12.8593 21.7823 12.895C21.9597 12.9305 22.1438 12.9123 22.311 12.8424C22.4782 12.7725 22.6211 12.6542 22.7216 12.5023C22.8221 12.3505 22.8758 12.172 22.8758 11.9893C22.8756 11.7445 22.7791 11.5098 22.6076 11.3367C22.436 11.1636 22.2034 11.0662 21.9608 11.066Z" fill="#F76943"/>
</g>
<defs>
<clipPath id="clip0_206_1262">
<rect width="44" height="48" fill="white"/>
</clipPath>
</defs>
</svg>
