<svg width="48" height="48" viewBox="0 0 48 48" fill="none" xmlns="http://www.w3.org/2000/svg">
<path d="M23.7024 21.6763C22.3973 21.6796 21.1107 21.9888 19.9433 22.5797C18.776 23.1707 17.7597 24.0274 16.974 25.0825L18.1973 26.0115C18.8383 25.1462 19.6695 24.4439 20.625 23.9602C21.5805 23.4764 22.6341 23.2246 23.7024 23.2246C24.7707 23.2246 25.8244 23.4764 26.7799 23.9602C27.7354 24.4439 28.5665 25.1462 29.2075 26.0115L30.4309 25.0825C29.6452 24.0274 28.6289 23.1707 27.4615 22.5797C26.2942 21.9888 25.0075 21.6796 23.7024 21.6763Z" fill="#F76943"/>
<path d="M44.4559 8.70534C45.2984 8.4924 46.0463 8.00022 46.5807 7.30728C47.1151 6.61428 47.4052 5.76023 47.405 4.88104V0.774156C47.405 0.568835 47.3244 0.371926 47.181 0.226744C47.0376 0.0815622 46.8431 0 46.6404 0H42.588C41.7199 0.000301026 40.8767 0.294296 40.1926 0.835284C39.5084 1.37627 39.0223 2.13323 38.8117 2.98591L38.3063 5.032C36.4659 6.90156 34.6828 8.85168 32.9617 10.8505C32.1349 10.8394 31.3118 10.9639 30.5242 11.219C29.9949 10.1588 29.2302 9.23724 28.2901 8.52654V4.64492C28.2901 3.41301 27.8067 2.23156 26.9464 1.36046C26.086 0.489374 24.9192 0 23.7025 0C22.4857 0 21.3189 0.489374 20.4585 1.36046C19.5982 2.23156 19.1149 3.41301 19.1149 4.64492V8.52654C18.1762 9.2367 17.4126 10.1572 16.8838 11.2159C16.0964 10.9603 15.2732 10.8355 14.4463 10.8467C12.7244 8.84778 10.9421 6.8985 9.10175 5.0289L8.59787 2.98591C8.38631 2.13356 7.89997 1.37704 7.21576 0.83619C6.53162 0.295337 5.68878 0.00106956 4.82078 0H0.764598C0.561813 0 0.367335 0.0815622 0.223945 0.226744C0.0805559 0.371926 1.92003e-07 0.568835 1.92003e-07 0.774156V4.88104C-0.000272469 5.76023 0.289865 6.61428 0.824249 7.30728C1.35864 8.00022 2.10657 8.4924 2.94905 8.70534L4.96681 9.2163C6.30027 10.5613 7.67016 11.8773 9.0765 13.1645C8.03413 14.2313 7.32403 15.5845 7.03431 17.0561C5.26747 17.2017 3.60549 17.9643 2.33267 19.2135C1.05985 20.4627 0.25527 22.1209 0.056569 23.9044C-0.142132 25.6879 0.277393 27.4859 1.24338 28.9908C2.20936 30.4957 3.66178 31.6141 5.35217 32.1545C5.35641 33.5654 5.76165 34.9452 6.51953 36.1292C7.27733 37.3133 8.35579 38.2514 9.62596 38.8316C10.8962 39.4118 12.3045 39.6097 13.6827 39.4014C15.061 39.1931 16.3509 38.5876 17.3984 37.6571C17.8703 38.3501 18.45 38.9611 19.1149 39.4663V41.0302C19.1149 41.1752 19.1551 41.3174 19.2311 41.4404L23.0541 47.6336C23.1227 47.7457 23.2184 47.8381 23.3321 47.9023C23.4458 47.9663 23.5738 48 23.704 48C23.8342 48 23.9622 47.9663 24.0759 47.9023C24.1896 47.8381 24.2853 47.7457 24.3539 47.6336L28.1769 41.4404C28.2518 41.3171 28.291 41.1749 28.2901 41.0302V39.4663C28.955 38.9611 29.5347 38.3501 30.0066 37.6571C31.0541 38.5876 32.344 39.1931 33.7223 39.4014C35.1004 39.6097 36.5087 39.4118 37.779 38.8316C39.0492 38.2514 40.1276 37.3133 40.8855 36.1292C41.6433 34.9452 42.0485 33.5654 42.0528 32.1545C43.747 31.6181 45.2039 30.5012 46.1733 28.9955C47.1427 27.49 47.5641 25.6895 47.3651 23.9036C47.1661 22.1176 46.3591 20.4575 45.0827 19.2084C43.8064 17.9593 42.1403 17.1991 40.3707 17.0585C40.082 15.5846 39.3719 14.2291 38.3284 13.1606C39.7307 11.8755 41.1006 10.5595 42.4382 9.2124L44.4559 8.70534ZM40.9128 2.24969C41.1321 2.02621 41.3932 1.84912 41.6808 1.72871C41.9684 1.6083 42.2768 1.54698 42.588 1.54831H45.8757V4.88104C45.8761 5.41497 45.7 5.93366 45.3755 6.35454C45.051 6.77538 44.5967 7.07424 44.0851 7.20348L42.2875 7.6587L39.8408 5.18141L40.2942 3.36137C40.3967 2.94077 40.6106 2.55643 40.9128 2.24969ZM31.9211 16.6598L29.6518 18.5023C29.5961 18.5408 29.5314 18.5637 29.4641 18.5687C29.3969 18.5737 29.3295 18.5606 29.2689 18.5308C29.2082 18.5009 29.1564 18.4553 29.1188 18.3986C29.0812 18.3419 29.0591 18.2762 29.0546 18.2081C29.0537 18.1242 29.0806 18.0424 29.1311 17.9758L30.9508 15.6766C32.7905 13.3495 34.7333 11.0774 36.7518 8.88804L38.6266 10.7863C36.4636 12.83 34.2203 14.7979 31.9211 16.6598ZM23.7025 1.54831C24.5136 1.54831 25.2915 1.87456 25.8651 2.45528C26.4386 3.03601 26.7608 3.82365 26.7608 4.64492H20.6441C20.6441 3.82365 20.9663 3.03601 21.5399 2.45528C22.1134 1.87456 22.8913 1.54831 23.7025 1.54831ZM20.6441 6.1932H26.7608V7.60914C25.7954 7.18584 24.7545 6.96738 23.7025 6.96738C22.6504 6.96738 21.6095 7.18584 20.6441 7.60914V6.1932ZM8.77831 10.7863L10.6531 8.88804C12.6716 11.0774 14.6145 13.3495 16.4541 15.6766L18.2738 17.975C18.3257 18.0411 18.354 18.1229 18.3541 18.2073C18.3491 18.2751 18.3265 18.3404 18.2886 18.3965C18.2507 18.4526 18.1989 18.4977 18.1384 18.5272C18.0779 18.5566 18.0107 18.5693 17.9438 18.5642C17.8768 18.559 17.8124 18.536 17.757 18.4976L15.4839 16.6598C13.1847 14.7979 10.9414 12.83 8.77831 10.7863ZM2.22115 6.57414C2.00097 6.35226 1.82644 6.08838 1.70766 5.79776C1.58889 5.50714 1.52823 5.19555 1.52919 4.88104V1.54831H4.82078C5.34795 1.54865 5.85991 1.72721 6.27544 2.05567C6.69096 2.38412 6.98631 2.84365 7.11455 3.36137L7.56415 5.18141L5.11744 7.6587L3.31988 7.20348C2.90418 7.09812 2.52447 6.88062 2.22115 6.57414ZM8.41055 6.51606C8.8112 6.92712 9.20344 7.34904 9.59876 7.76784L7.67348 9.71718C7.26062 9.31692 6.84314 8.91978 6.43716 8.51412L8.41055 6.51606ZM26.7608 39.584L25.656 38.8377C25.5089 38.7384 25.3324 38.6938 25.1564 38.7115C24.9806 38.7291 24.8161 38.8079 24.6911 38.9345L24.4671 39.1613V27.8695H26.7608V39.584ZM20.9217 41.2577L22.0762 40.4782L23.1619 41.5775C23.3053 41.7226 23.4997 41.8041 23.7025 41.8041C23.9052 41.8041 24.0997 41.7226 24.243 41.5775L25.3288 40.4782L26.4833 41.2577L25.6683 42.5785H21.7367L20.9217 41.2577ZM22.9379 39.1613L22.7138 38.9345C22.5889 38.8079 22.4244 38.7291 22.2485 38.7115C22.0725 38.6938 21.896 38.7384 21.7489 38.8377L20.6441 39.584V27.8695H22.9379V39.1613ZM23.7025 45.7625L22.6924 44.1268H24.7125L23.7025 45.7625ZM38.9539 17.893C38.9849 18.086 39.0832 18.2613 39.2309 18.3873C39.3786 18.5132 39.5659 18.5815 39.759 18.5797C41.2608 18.5857 42.7079 19.1508 43.8247 20.1674C44.9415 21.1841 45.6498 22.5812 45.8148 24.0926C45.9797 25.604 45.5897 27.124 44.7192 28.363C43.8486 29.602 42.5582 30.4735 41.094 30.8113C40.9948 30.8349 40.9015 30.8786 40.8195 30.9398C39.2846 30.8195 37.8508 30.1179 36.804 28.975C35.7573 27.832 35.1743 26.3317 35.1714 24.7729H33.6422C33.6445 26.6884 34.3471 28.5351 35.6145 29.9572C36.8819 31.3792 38.6244 32.2759 40.506 32.4742C40.44 33.6298 40.0338 34.739 39.3398 35.6588C38.6457 36.5786 37.6956 37.267 36.6117 37.6352C35.5279 38.0035 34.3599 38.0348 33.2584 37.7251C32.1568 37.4154 31.172 36.7789 30.4309 35.8975C30.349 35.8002 30.2447 35.725 30.1272 35.6785C30.0096 35.632 29.8825 35.6156 29.7572 35.6309C29.6319 35.6463 29.5122 35.6928 29.409 35.7663C29.3058 35.8399 29.2221 35.9381 29.1655 36.0523C28.9309 36.5293 28.6366 36.9737 28.2901 37.3746V27.0953C28.2901 26.8901 28.2095 26.6932 28.0661 26.548C27.9227 26.4028 27.7282 26.3212 27.5255 26.3212H19.8795C19.6767 26.3212 19.4823 26.4028 19.3388 26.548C19.1954 26.6932 19.1149 26.8901 19.1149 27.0953V37.3746C18.7673 36.9743 18.4721 36.5304 18.2364 36.0539C18.1798 35.9396 18.0961 35.8414 17.9929 35.7679C17.8897 35.6944 17.77 35.6479 17.6447 35.6325C17.5194 35.6172 17.3923 35.6335 17.2747 35.68C17.1572 35.7265 17.0528 35.8018 16.971 35.899C16.2099 36.802 15.1936 37.4468 14.0593 37.7465C12.9249 38.0464 11.727 37.9867 10.6272 37.5755C9.52741 37.1644 8.57855 36.4216 7.90874 35.4474C7.23893 34.4732 6.88036 33.3144 6.88136 32.1274C6.88136 31.9601 6.89357 31.796 6.90661 31.6319C6.92213 31.4453 6.87034 31.2593 6.76083 31.1085C6.65132 30.9576 6.4915 30.852 6.31099 30.8113C4.84943 30.4744 3.56096 29.6058 2.69017 28.3705C1.81939 27.1351 1.42692 25.619 1.58727 24.1101C1.74763 22.6011 2.44964 21.2043 3.56004 20.1848C4.67044 19.1653 6.11188 18.5941 7.61079 18.5797C7.62299 18.5797 7.63372 18.5743 7.64599 18.575V18.5797C9.26767 18.5815 10.8225 19.2346 11.9691 20.3957C13.1159 21.5567 13.7609 23.1309 13.7627 24.7729H15.2919C15.2892 22.8877 14.6076 21.0682 13.3749 19.6553C12.1422 18.2425 10.443 17.3332 8.59562 17.098C8.8595 15.995 9.42062 14.9878 10.2165 14.1887C11.6295 15.4498 13.0654 16.6838 14.5281 17.869L16.7982 19.7076C17.1628 20.0025 17.622 20.1509 18.0879 20.1245C18.5539 20.0981 18.9938 19.8988 19.3237 19.5646C19.6536 19.2304 19.8503 18.7848 19.876 18.313C19.9019 17.8412 19.755 17.3764 19.4635 17.0074L17.6484 14.7089C17.0757 13.9851 16.4893 13.269 15.8983 12.556C16.2695 12.639 16.6322 12.7569 16.9817 12.9082C17.0762 12.9502 17.1782 12.9723 17.2814 12.9733C17.3847 12.9743 17.487 12.9541 17.5823 12.9139C17.6776 12.8738 17.7639 12.8145 17.836 12.7397C17.908 12.6649 17.9644 12.5761 18.0017 12.4786C18.445 11.312 19.2271 10.3089 20.2447 9.60132C21.2624 8.8938 22.468 8.51508 23.7025 8.51508C24.937 8.51508 26.1425 8.8938 27.1602 9.60132C28.1779 10.3089 28.9599 11.312 29.4033 12.4786C29.4405 12.5761 29.4969 12.6649 29.569 12.7397C29.6411 12.8145 29.7273 12.8738 29.8226 12.9139C29.918 12.9541 30.0203 12.9743 30.1236 12.9733C30.2268 12.9723 30.3287 12.9502 30.4233 12.9082C30.7727 12.7568 31.1355 12.6391 31.5067 12.5567C30.9157 13.269 30.3285 13.9851 29.7566 14.7089L27.9406 17.0081C27.65 17.3773 27.5038 17.8418 27.5299 18.3131C27.556 18.7845 27.7527 19.2296 28.0823 19.5634C28.412 19.8973 28.8515 20.0965 29.317 20.1231C29.7825 20.1497 30.2414 20.0018 30.606 19.7076L32.8776 17.869C34.3403 16.6838 35.7762 15.4498 37.1892 14.1887C38.1804 15.1811 38.8036 16.489 38.9539 17.8922V17.893ZM39.733 9.71796L37.8078 7.76862C38.203 7.34982 38.5953 6.9279 38.9959 6.51684L40.9694 8.51568C40.5633 8.91978 40.1459 9.31692 39.733 9.71718V9.71796Z" fill="#F76943"/>
</svg>
