<svg width="48" height="48" viewBox="0 0 48 48" fill="none" xmlns="http://www.w3.org/2000/svg">
<g clip-path="url(#clip0_206_1222)">
<path d="M47.2 6.40002H28.8V3.2H36.144C36.3327 3.73378 36.704 4.18365 37.1924 4.47011C37.6807 4.75657 38.2546 4.86118 38.8126 4.76544C39.3706 4.6697 39.8768 4.37979 40.2417 3.94693C40.6066 3.51408 40.8067 2.96615 40.8067 2.40001C40.8067 1.83385 40.6066 1.28593 40.2417 0.853074C39.8768 0.420222 39.3706 0.130306 38.8126 0.0345685C38.2546 -0.0611687 37.6807 0.0434381 37.1924 0.3299C36.704 0.616362 36.3327 1.06624 36.144 1.6H28C27.7878 1.6 27.5843 1.68429 27.4343 1.83432C27.2843 1.98435 27.2 2.18783 27.2 2.40001V6.40002H20.8V2.40001C20.8 2.18783 20.7157 1.98435 20.5657 1.83432C20.4157 1.68429 20.2122 1.6 20 1.6H11.856C11.6673 1.06624 11.296 0.616362 10.8076 0.3299C10.3193 0.0434381 9.74538 -0.0611687 9.18744 0.0345685C8.62944 0.130306 8.12322 0.420222 7.7583 0.853074C7.39338 1.28593 7.19328 1.83385 7.19328 2.40001C7.19328 2.96615 7.39338 3.51408 7.7583 3.94693C8.12322 4.37979 8.62944 4.6697 9.18744 4.76544C9.74538 4.86118 10.3193 4.75657 10.8076 4.47011C11.296 4.18365 11.6673 3.73378 11.856 3.2H19.2V6.40002H0.799998C0.587827 6.40002 0.384344 6.48432 0.234314 6.63432C0.0842856 6.78432 0 6.98784 0 7.2V37.6C0 37.8122 0.0842856 38.0156 0.234314 38.1657C0.384344 38.3157 0.587827 38.4 0.799998 38.4H18.4V43.2H10.4C10.1878 43.2 9.98436 43.2843 9.8343 43.4343C9.6843 43.5844 9.6 43.7878 9.6 44V47.2C9.6 47.4122 9.6843 47.6156 9.8343 47.7657C9.98436 47.9157 10.1878 48 10.4 48H37.6C37.8122 48 38.0156 47.9157 38.1657 47.7657C38.3157 47.6156 38.4 47.4122 38.4 47.2V44C38.4 43.7878 38.3157 43.5844 38.1657 43.4343C38.0156 43.2843 37.8122 43.2 37.6 43.2H29.6V38.4H47.2C47.4122 38.4 47.6156 38.3157 47.7657 38.1657C47.9157 38.0156 48 37.8122 48 37.6V7.2C48 6.98784 47.9157 6.78432 47.7657 6.63432C47.6156 6.48432 47.4122 6.40002 47.2 6.40002ZM38.4 1.6C38.5582 1.6 38.7129 1.64692 38.8445 1.73483C38.976 1.82273 39.0785 1.94768 39.1391 2.09386C39.1996 2.24004 39.2155 2.40089 39.1846 2.55608C39.1538 2.71126 39.0776 2.85381 38.9657 2.96569C38.8538 3.07757 38.7113 3.15376 38.5561 3.18463C38.4009 3.2155 38.24 3.19966 38.0939 3.13911C37.9477 3.07856 37.8227 2.97602 37.7348 2.84446C37.6469 2.7129 37.6 2.55823 37.6 2.40001C37.6 2.18783 37.6843 1.98435 37.8343 1.83432C37.9843 1.68429 38.1878 1.6 38.4 1.6ZM9.6 3.2C9.44178 3.2 9.2871 3.15308 9.15552 3.06518C9.024 2.97728 8.92146 2.85233 8.86092 2.70615C8.80032 2.55997 8.78448 2.39912 8.81538 2.24393C8.84622 2.08875 8.92242 1.9462 9.03432 1.83432C9.14622 1.72244 9.28872 1.64624 9.44394 1.61537C9.5991 1.58451 9.75996 1.60035 9.90612 1.6609C10.0523 1.72145 10.1773 1.82399 10.2652 1.95555C10.3531 2.08711 10.4 2.24178 10.4 2.40001C10.4 2.61218 10.3157 2.81566 10.1657 2.96569C10.0157 3.11572 9.81216 3.2 9.6 3.2ZM27.2 7.99998V15.808L26.496 16.504L26.4 16.464V15.2C26.4 14.9878 26.3157 14.7844 26.1657 14.6343C26.0156 14.4843 25.8122 14.4 25.6 14.4H22.4C22.1878 14.4 21.9844 14.4843 21.8343 14.6343C21.6843 14.7844 21.6 14.9878 21.6 15.2V16.464L21.504 16.504L20.8 15.808V7.99998H27.2ZM28.224 20.12C28.3814 20.4098 28.5074 20.7155 28.6 21.032C28.6514 21.2021 28.7579 21.3502 28.9027 21.4531C29.0476 21.5559 29.2225 21.6076 29.4 21.6H30.4V23.2H29.368C29.1905 23.1924 29.0156 23.2441 28.8707 23.347C28.7258 23.4498 28.6193 23.5979 28.568 23.768C28.4754 24.0845 28.3494 24.3902 28.192 24.68C28.12 24.8316 28.0974 25.002 28.1276 25.1671C28.1577 25.3322 28.239 25.4837 28.36 25.6L29.088 26.328L28 27.488L27.2 26.76C27.0775 26.6372 26.9184 26.5575 26.7467 26.533C26.575 26.5085 26.4 26.5404 26.248 26.624C25.9582 26.7814 25.6525 26.9074 25.336 27C25.1659 27.0514 25.0178 27.1579 24.9149 27.3027C24.8121 27.4475 24.7604 27.6225 24.768 27.8V28.8H23.2V27.768C23.2076 27.5905 23.1559 27.4156 23.053 27.2707C22.9502 27.1259 22.802 27.0194 22.632 26.968C22.3155 26.8754 22.0098 26.7494 21.72 26.592C21.568 26.5084 21.393 26.4764 21.2213 26.501C21.0496 26.5255 20.8905 26.6052 20.768 26.728L20.04 27.456L18.912 26.4L19.64 25.672C19.7628 25.5495 19.8425 25.3904 19.867 25.2187C19.8916 25.047 19.8596 24.872 19.776 24.72C19.6186 24.4302 19.4926 24.1245 19.4 23.808C19.3486 23.638 19.2421 23.4898 19.0973 23.387C18.9524 23.2841 18.7775 23.2324 18.6 23.24H17.6V21.6H18.632C18.8095 21.6076 18.9844 21.5559 19.1293 21.4531C19.2742 21.3502 19.3807 21.2021 19.432 21.032C19.5245 20.7155 19.6506 20.4098 19.808 20.12C19.88 19.9684 19.9026 19.798 19.8724 19.6329C19.8423 19.4678 19.7609 19.3163 19.64 19.2L18.912 18.472L20.04 17.344L20.768 18.072C20.8905 18.1948 21.0496 18.2745 21.2213 18.299C21.393 18.3235 21.568 18.2916 21.72 18.208C22.0098 18.0506 22.3155 17.9246 22.632 17.832C22.802 17.7806 22.9502 17.6741 23.053 17.5293C23.1559 17.3845 23.2076 17.2095 23.2 17.032V16H24.8V17.032C24.7924 17.2095 24.8441 17.3845 24.947 17.5293C25.0498 17.6741 25.198 17.7806 25.368 17.832C25.6845 17.9246 25.9902 18.0506 26.28 18.208C26.4316 18.28 26.602 18.3026 26.7671 18.2725C26.9322 18.2423 27.0836 18.161 27.2 18.04L27.928 17.312L29.056 18.44L28.328 19.168C28.2103 19.2943 28.1366 19.4551 28.1178 19.6267C28.0991 19.7983 28.1363 19.9714 28.224 20.12ZM19.2 7.99998V15.888L17.208 17.872C17.133 17.9464 17.0735 18.0349 17.0329 18.1324C16.9923 18.2298 16.9714 18.3344 16.9714 18.44C16.9714 18.5456 16.9923 18.6502 17.0329 18.7477C17.0735 18.8452 17.133 18.9337 17.208 19.008L18.104 19.904C18.0941 19.9373 18.0807 19.9695 18.064 20H16.8C16.5878 20 16.3843 20.0843 16.2343 20.2343C16.0843 20.3843 16 20.5878 16 20.8V21.6H7.85598C7.66728 21.0662 7.29594 20.6164 6.8076 20.3299C6.31926 20.0434 5.74541 19.9388 5.18741 20.0345C4.62942 20.1303 4.12323 20.4202 3.75832 20.8531C3.3934 21.2859 3.19326 21.8339 3.19326 22.4C3.19326 22.9661 3.3934 23.5141 3.75832 23.9469C4.12323 24.3798 4.62942 24.6697 5.18741 24.7654C5.74541 24.8612 6.31926 24.7565 6.8076 24.4701C7.29594 24.1837 7.66728 23.7338 7.85598 23.2H16V24C16 24.2122 16.0843 24.4157 16.2343 24.5657C16.3843 24.7157 16.5878 24.8 16.8 24.8H18.064C18.0807 24.8305 18.0941 24.8627 18.104 24.896L17.208 25.792C17.1338 25.8668 17.0752 25.9554 17.0354 26.0529C16.9956 26.1503 16.9754 26.2547 16.976 26.36C16.9789 26.5718 17.0618 26.7747 17.208 26.928L19.472 29.192C19.5464 29.267 19.6349 29.3265 19.7323 29.3671C19.8298 29.4077 19.9344 29.4286 20.04 29.4286C20.1456 29.4286 20.2502 29.4077 20.3477 29.3671C20.4451 29.3265 20.5336 29.267 20.608 29.192L21.504 28.296L21.6 28.336V29.6C21.6 29.8122 21.6843 30.0157 21.8343 30.1657C21.9844 30.3157 22.1878 30.4 22.4 30.4H25.6C25.8122 30.4 26.0156 30.3157 26.1657 30.1657C26.3157 30.0157 26.4 29.8122 26.4 29.6V28.336L26.496 28.296L27.392 29.192C27.4664 29.267 27.5548 29.3265 27.6523 29.3671C27.7498 29.4077 27.8544 29.4286 27.96 29.4286C28.0656 29.4286 28.1702 29.4077 28.2677 29.3671C28.3651 29.3265 28.4536 29.267 28.528 29.192L30.792 26.928C30.9382 26.7747 31.0211 26.5718 31.024 26.36C31.0246 26.2547 31.0044 26.1503 30.9646 26.0529C30.9248 25.9554 30.8662 25.8668 30.792 25.792L29.896 24.896C29.9059 24.8627 29.9193 24.8305 29.936 24.8H31.2C31.4122 24.8 31.6157 24.7157 31.7657 24.5657C31.9157 24.4157 32 24.2122 32 24V23.2H40.144C40.3327 23.7338 40.7041 24.1837 41.1924 24.4701C41.6807 24.7565 42.2546 24.8612 42.8126 24.7654C43.3706 24.6697 43.8767 24.3798 44.2417 23.9469C44.6066 23.5141 44.8067 22.9661 44.8067 22.4C44.8067 21.8339 44.6066 21.2859 44.2417 20.8531C43.8767 20.4202 43.3706 20.1303 42.8126 20.0345C42.2546 19.9388 41.6807 20.0434 41.1924 20.3299C40.7041 20.6164 40.3327 21.0662 40.144 21.6H32V20.8C32 20.5878 31.9157 20.3843 31.7657 20.2343C31.6157 20.0843 31.4122 20 31.2 20H29.936C29.9193 19.9695 29.9059 19.9373 29.896 19.904L30.792 19.008C30.867 18.9337 30.9265 18.8452 30.9671 18.7477C31.0077 18.6502 31.0286 18.5456 31.0286 18.44C31.0286 18.3344 31.0077 18.2298 30.9671 18.1324C30.9265 18.0349 30.867 17.9464 30.792 17.872L28.8 15.888V7.99998H46.4V33.6H1.6V7.99998H19.2ZM6.40002 22.4C6.40002 22.5582 6.3531 22.7129 6.2652 22.8445C6.1773 22.976 6.05232 23.0786 5.90615 23.1391C5.75996 23.1997 5.59911 23.2155 5.44393 23.1846C5.28874 23.1538 5.14619 23.0776 5.03431 22.9657C4.92243 22.8538 4.84624 22.7113 4.81537 22.5561C4.7845 22.4009 4.80035 22.24 4.86089 22.0939C4.92145 21.9477 5.02399 21.8227 5.15554 21.7348C5.2871 21.6469 5.44177 21.6 5.6 21.6C5.81217 21.6 6.01566 21.6843 6.16566 21.8343C6.31572 21.9844 6.40002 22.1878 6.40002 22.4ZM41.6 22.4C41.6 22.2418 41.6469 22.0871 41.7348 21.9556C41.8227 21.824 41.9477 21.7214 42.0938 21.6609C42.2401 21.6004 42.4009 21.5845 42.5561 21.6154C42.7112 21.6463 42.8538 21.7225 42.9657 21.8343C43.0775 21.9462 43.1537 22.0888 43.1846 22.2439C43.2155 22.3991 43.1996 22.5599 43.1391 22.7062C43.0786 22.8523 42.976 22.9773 42.8444 23.0652C42.7129 23.1531 42.5582 23.2 42.4 23.2C42.1878 23.2 41.9843 23.1157 41.8343 22.9657C41.6843 22.8157 41.6 22.6122 41.6 22.4ZM36.8 46.4H11.2V44.8H36.8V46.4ZM28 43.2H20V38.4H28V43.2ZM1.6 36.8V35.2H46.4V36.8H1.6Z" fill="#1F120C"/>
<path d="M24 19.2C23.3671 19.2 22.7484 19.3876 22.2222 19.7392C21.696 20.0909 21.2858 20.5906 21.0436 21.1754C20.8014 21.7601 20.738 22.4035 20.8615 23.0242C20.985 23.645 21.2897 24.2152 21.7372 24.6627C22.1848 25.1102 22.755 25.415 23.3757 25.5385C23.9964 25.6619 24.6399 25.5986 25.2246 25.3564C25.8093 25.1141 26.3091 24.704 26.6607 24.1778C27.0123 23.6515 27.2 23.0329 27.2 22.3999C27.2 21.5512 26.8629 20.7373 26.2627 20.1372C25.6626 19.5371 24.8487 19.2 24 19.2ZM24 23.9999C23.6835 23.9999 23.3742 23.9061 23.1111 23.7303C22.848 23.5545 22.6429 23.3046 22.5218 23.0122C22.4007 22.7199 22.369 22.3982 22.4307 22.0878C22.4925 21.7774 22.6449 21.4924 22.8686 21.2686C23.0924 21.0448 23.3775 20.8924 23.6878 20.8307C23.9982 20.769 24.3199 20.8006 24.6123 20.9218C24.9046 21.0429 25.1545 21.2479 25.3303 21.511C25.5061 21.7741 25.6 22.0835 25.6 22.3999C25.6 22.8243 25.4314 23.2313 25.1314 23.5313C24.8313 23.8313 24.4243 23.9999 24 23.9999Z" fill="#1F120C"/>
<path d="M4.00002 11.2001H8.00003V17.6001C8.00003 17.8123 8.08427 18.0158 8.23433 18.1658C8.38433 18.3158 8.58785 18.4001 8.80001 18.4001H13.6C13.8122 18.4001 14.0157 18.3158 14.1657 18.1658C14.3158 18.0158 14.4 17.8123 14.4 17.6001C14.4 17.3879 14.3158 17.1845 14.1657 17.0344C14.0157 16.8844 13.8122 16.8001 13.6 16.8001H9.59999V10.4001C9.59999 10.1879 9.51575 9.98446 9.36569 9.8344C9.21569 9.6844 9.01217 9.6001 8.80001 9.6001H4.00002C3.78784 9.6001 3.58436 9.6844 3.43433 9.8344C3.2843 9.98446 3.20001 10.1879 3.20001 10.4001C3.20001 10.6123 3.2843 10.8158 3.43433 10.9658C3.58436 11.1158 3.78784 11.2001 4.00002 11.2001Z" fill="#1F120C"/>
<path d="M44 9.6001H39.2C38.9878 9.6001 38.7843 9.6844 38.6343 9.8344C38.4843 9.98446 38.4 10.1879 38.4 10.4001V16.8001H34.4C34.1878 16.8001 33.9843 16.8844 33.8343 17.0344C33.6843 17.1845 33.6 17.3879 33.6 17.6001C33.6 17.8123 33.6843 18.0158 33.8343 18.1658C33.9843 18.3158 34.1878 18.4001 34.4 18.4001H39.2C39.4122 18.4001 39.6156 18.3158 39.7656 18.1658C39.9157 18.0158 40 17.8123 40 17.6001V11.2001H44C44.2122 11.2001 44.4156 11.1158 44.5656 10.9658C44.7157 10.8158 44.8 10.6123 44.8 10.4001C44.8 10.1879 44.7157 9.98446 44.5656 9.8344C44.4156 9.6844 44.2122 9.6001 44 9.6001Z" fill="#1F120C"/>
</g>
<defs>
<clipPath id="clip0_206_1222">
<rect width="48" height="48" fill="white"/>
</clipPath>
</defs>
</svg>
