<svg width="96" height="96" viewBox="0 0 96 96" fill="none" xmlns="http://www.w3.org/2000/svg">
<path d="M81.3047 64.8279C75.5535 62.3806 71.8233 56.731 71.8321 50.4805C71.8975 44.9536 74.8077 39.8508 79.5313 36.9805C80.4705 36.4019 80.763 35.1714 80.1844 34.2319C80.1678 34.2051 80.1507 34.1785 80.1329 34.1526C76.4544 28.8535 70.4969 25.5947 64.0508 25.3557C63.3631 25.2849 62.6712 25.2627 61.9805 25.2893C66.0716 20.4148 68.0857 14.1294 67.5899 7.78516C67.5069 6.72437 66.5852 5.92799 65.5235 6.00001C54.0462 7.05177 44.8279 15.9131 43.3243 27.3401C40.7955 26.2139 38.0684 25.6006 35.3008 25.5352C27.7027 25.7564 20.7752 29.9404 17.043 36.5625C9.90239 48.9649 14.3709 67.6875 22.2029 79.0078C25.242 83.4024 29.8084 89.9998 36.2029 89.9998C36.3201 89.9998 36.4373 89.9998 36.5545 89.9959C38.8008 89.8608 40.9981 89.282 43.0193 88.2927C45.0611 87.2786 47.3062 86.7405 49.5857 86.7185C51.7474 86.742 53.8748 87.2603 55.8045 88.2341C57.9942 89.2959 60.3907 89.8628 62.824 89.8941C69.4451 89.7769 73.4607 83.9097 76.6873 79.1948C79.1824 75.5254 81.1326 71.5137 82.4764 67.2847C82.7828 66.2859 82.2737 65.2185 81.3047 64.8279ZM52.2032 16.9766C55.2222 13.5657 59.2486 11.2044 63.6993 10.2344C63.5188 14.8777 61.7906 19.3274 58.7891 22.875C57.2112 24.7612 55.294 26.3352 53.1368 27.5156L53.0625 27.5586L52.5821 27.7461C51.2952 28.3494 49.9327 28.7752 48.5313 29.0117C48.087 28.9937 47.647 28.9175 47.2227 28.7852C47.5745 24.417 49.3204 20.2774 52.2032 16.9766ZM73.3828 76.9375C69.8282 82.1328 66.9844 85.8203 62.75 85.8945C60.888 85.8555 59.0581 85.4004 57.3946 84.5625C54.9644 83.3657 52.2947 82.7354 49.586 82.7188C46.7676 82.7356 43.9888 83.3828 41.4532 84.6133C39.8767 85.4016 38.1604 85.8716 36.4024 85.9961C36.3321 86 36.2657 86 36.1993 86C32.2383 86 28.8711 81.6211 25.4922 76.7344C19.3829 67.8984 13.7969 50.219 20.5118 38.5588C23.5391 33.1545 29.1758 29.7305 35.3672 29.5352H35.5352C38.0677 29.7222 40.5447 30.3709 42.8438 31.4492C43.3711 31.6563 43.8907 31.8633 44.4024 32.0547C44.4993 32.0999 44.5999 32.1365 44.7032 32.1641C45.9214 32.6628 47.2161 32.9495 48.5313 33.0117C50.4471 32.8237 52.3152 32.3015 54.0508 31.4688C57.0721 29.9922 60.4038 29.2634 63.7657 29.3438C68.2974 29.502 72.5723 31.4873 75.6172 34.8477C70.7112 38.5645 67.8296 44.365 67.8321 50.5198C67.8079 57.7139 71.7644 64.3313 78.1133 67.7151C76.9202 70.9714 75.3313 74.0686 73.3828 76.9375Z" fill="#F0F0F0"/>
</svg>
