<svg width="96" height="96" viewBox="0 0 96 96" fill="none" xmlns="http://www.w3.org/2000/svg">
<path d="M33.4545 16.182C34.9606 16.182 36.1815 14.9611 36.1815 13.455C36.1815 11.9489 34.9606 10.728 33.4545 10.728C31.9484 10.728 30.7275 11.9489 30.7275 13.455C30.7275 14.9611 31.9484 16.182 33.4545 16.182Z" fill="#F0F0F0"/>
<path d="M86.1826 78C87.6886 78 88.9096 76.7791 88.9096 75.273C88.9096 73.7669 87.6886 72.546 86.1826 72.546C84.6765 72.546 83.4556 73.7669 83.4556 75.273C83.4556 76.7791 84.6765 78 86.1826 78Z" fill="#F0F0F0"/>
<path d="M10.728 16.182C11.732 16.182 12.546 15.3681 12.546 14.364C12.546 13.36 11.732 12.546 10.728 12.546C9.72392 12.546 8.90997 13.36 8.90997 14.364C8.90997 15.3681 9.72392 16.182 10.728 16.182Z" fill="#F0F0F0"/>
<path d="M47.091 23.454C48.0951 23.454 48.909 22.64 48.909 21.636C48.909 20.6319 48.0951 19.818 47.091 19.818C46.087 19.818 45.273 20.6319 45.273 21.636C45.273 22.64 46.087 23.454 47.091 23.454Z" fill="#F0F0F0"/>
<path d="M50.727 76.182C51.7311 76.182 52.545 75.3681 52.545 74.364C52.545 73.36 51.7311 72.546 50.727 72.546C49.7229 72.546 48.909 73.36 48.909 74.364C48.909 75.3681 49.7229 76.182 50.727 76.182Z" fill="#F0F0F0"/>
<path d="M70.728 90.7276C71.7321 90.7276 72.546 89.9136 72.546 88.9096C72.546 87.9055 71.7321 87.0916 70.728 87.0916C69.724 87.0916 68.91 87.9055 68.91 88.9096C68.91 89.9136 69.724 90.7276 70.728 90.7276Z" fill="#F0F0F0"/>
<path d="M33.1005 92.5455H11.9895C7.28253 92.5455 3.45453 88.716 3.45453 84.0105V39.2625C3.45453 34.5555 7.28403 30.7275 11.9895 30.7275H33.1005C37.8075 30.7275 41.6355 34.557 41.6355 39.2625V84.0105C41.637 88.716 37.8075 92.5455 33.1005 92.5455ZM11.9895 34.3635C9.28803 34.3635 7.09053 36.561 7.09053 39.2625V84.0105C7.09053 86.712 9.28803 88.9095 11.9895 88.9095H33.1005C35.802 88.9095 37.9995 86.712 37.9995 84.0105V39.2625C37.9995 36.561 35.802 34.3635 33.1005 34.3635H11.9895Z" fill="#F0F0F0"/>
<path d="M39.8175 45.273H5.27253C4.26903 45.273 3.45453 44.4585 3.45453 43.455C3.45453 42.4515 4.26903 41.637 5.27253 41.637H39.8175C40.821 41.637 41.6355 42.4515 41.6355 43.455C41.637 44.4585 40.8225 45.273 39.8175 45.273ZM39.8175 81.636H5.27253C4.26903 81.636 3.45453 80.8215 3.45453 79.818C3.45453 78.8145 4.26903 78 5.27253 78H39.8175C40.821 78 41.6355 78.8145 41.6355 79.818C41.637 80.8215 40.8225 81.636 39.8175 81.636ZM84.0105 65.2725H62.8995C58.1925 65.2725 54.3645 61.443 54.3645 56.7375V11.9895C54.3645 7.28247 58.194 3.45447 62.8995 3.45447H84.0105C88.7175 3.45447 92.5455 7.28397 92.5455 11.9895V56.7375C92.5455 61.4445 88.716 65.2725 84.0105 65.2725ZM62.8995 7.09047C60.198 7.09047 58.0005 9.28797 58.0005 11.9895V56.7375C58.0005 59.439 60.198 61.6365 62.8995 61.6365H84.0105C86.712 61.6365 88.9095 59.439 88.9095 56.7375V11.9895C88.9095 9.28797 86.712 7.09047 84.0105 7.09047H62.8995Z" fill="#F0F0F0"/>
<path d="M90.7275 18H56.1825C55.179 18 54.3645 17.1855 54.3645 16.182C54.3645 15.1785 55.179 14.364 56.1825 14.364H90.7275C91.731 14.364 92.5455 15.1785 92.5455 16.182C92.5455 17.1855 91.731 18 90.7275 18ZM90.7275 54.363H56.1825C55.179 54.363 54.3645 53.5485 54.3645 52.545C54.3645 51.5415 55.179 50.727 56.1825 50.727H90.7275C91.731 50.727 92.5455 51.5415 92.5455 52.545C92.5455 53.5485 91.731 54.363 90.7275 54.363Z" fill="#F0F0F0"/>
<path d="M41.0505 65.2725H27.0915C26.088 65.2725 25.2735 64.458 25.2735 63.4545C25.2735 62.451 26.088 61.6365 27.0915 61.6365H41.0505C43.3785 61.6365 45.273 59.742 45.273 57.414V42.2235C45.273 37.89 48.798 34.365 53.1315 34.365H76.182C77.1855 34.365 78 35.1795 78 36.183C78 37.1865 77.1855 38.001 76.182 38.001H53.1315C50.8035 38.001 48.909 39.8955 48.909 42.2235V57.414C48.909 61.7475 45.384 65.2725 41.0505 65.2725Z" fill="#F0F0F0"/>
<path d="M72.546 41.637C72.081 41.637 71.616 41.46 71.2605 41.1045C70.551 40.395 70.551 39.243 71.2605 38.5335L73.611 36.183L71.2605 33.8325C70.551 33.123 70.551 31.971 71.2605 31.2615C71.97 30.552 73.122 30.552 73.8315 31.2615L77.4675 34.8975C78.177 35.607 78.177 36.759 77.4675 37.4685L73.8315 41.1045C73.476 41.4585 73.011 41.637 72.546 41.637ZM21.636 70.728C17.6265 70.728 14.364 67.4655 14.364 63.456C14.364 59.4465 17.6265 56.184 21.636 56.184C25.6455 56.184 28.908 59.4465 28.908 63.456C28.908 67.4655 25.647 70.728 21.636 70.728ZM21.636 59.8185C19.6305 59.8185 18 61.449 18 63.4545C18 65.46 19.632 67.0905 21.636 67.0905C23.64 67.0905 25.272 65.46 25.272 63.4545C25.272 61.449 23.6415 59.8185 21.636 59.8185Z" fill="#F0F0F0"/>
</svg>
