<svg width="96" height="96" viewBox="0 0 96 96" fill="none" xmlns="http://www.w3.org/2000/svg">
<path d="M93.519 75.459H1.28998V1.08154H93.5175V75.459H93.519ZM4.26598 72.483H90.5445V4.05604H4.26598V72.483Z" fill="#F0F0F0"/>
<path d="M59.3055 39.7575H7.24048V7.03198H59.3055V39.7575ZM10.218 36.7815H56.3295V10.0065H10.218V36.7815Z" fill="#F0F0F0"/>
<path d="M87.5685 7.03198H62.2815V10.0065H87.5685V7.03198Z" fill="#F0F0F0"/>
<path d="M87.5685 12.981H62.2815V15.9555H87.5685V12.981Z" fill="#F0F0F0"/>
<path d="M87.5685 18.9315H62.2815V21.9075H87.5685V18.9315Z" fill="#F0F0F0"/>
<path d="M87.5685 24.882H62.2815V27.8565H87.5685V24.882Z" fill="#F0F0F0"/>
<path d="M87.5685 30.8325H62.2815V33.807H87.5685V30.8325Z" fill="#F0F0F0"/>
<path d="M87.5685 36.7815H62.2815V39.756H87.5685V36.7815Z" fill="#F0F0F0"/>
<path d="M32.5305 69.5086H7.24049V42.732H32.529V69.5086H32.5305ZM10.218 66.5326H29.556V45.708H10.218V66.5326ZM59.3055 69.5086H35.5035V42.732H59.3055V69.5086ZM38.4795 66.5326H56.3295V45.708H38.4795V66.5326ZM87.5685 69.5086H62.2815V42.732H87.5685V69.5086ZM65.256 66.5326H84.594V45.708H65.256V66.5326ZM32.5305 33.8085C26.7885 33.8085 22.1175 29.136 22.1175 23.3955C22.1175 17.6535 26.7885 12.9825 32.5305 12.9825C38.271 12.9825 42.942 17.655 42.942 23.3955C42.942 29.1345 38.2695 33.8085 32.5305 33.8085ZM32.5305 15.9555C28.4295 15.9555 25.0935 19.2945 25.0935 23.394C25.0935 27.4935 28.431 30.831 32.5305 30.831C36.63 30.831 39.9675 27.4935 39.9675 23.394C39.9675 19.2945 36.63 15.9555 32.5305 15.9555ZM86.082 93.3091H15.771L2.75549 85.8721L15.771 78.4336H86.082C90.1815 78.4336 93.519 81.771 93.519 85.8721C93.519 89.9715 90.1815 93.3091 86.082 93.3091ZM16.5615 90.3345H86.082C88.5435 90.3345 90.5445 88.3336 90.5445 85.8721C90.5445 83.409 88.5435 81.4081 86.082 81.4081H16.5615L8.75249 85.8721L16.5615 90.3345Z" fill="#F0F0F0"/>
<path d="M81.618 79.9215H78.6435V91.8225H81.618V79.9215Z" fill="#F0F0F0"/>
<path d="M75.6675 79.9215H72.693V91.8225H75.6675V79.9215Z" fill="#F0F0F0"/>
<path d="M19.1415 79.9215H16.167V91.8225H19.1415V79.9215Z" fill="#F0F0F0"/>
</svg>
