<svg width="96" height="96" viewBox="0 0 96 96" fill="none" xmlns="http://www.w3.org/2000/svg">
<path d="M31.4757 56.5959L24.3366 63.745C23.544 64.5377 23.3097 65.7209 23.74 66.7564C24.169 67.7919 25.1719 68.461 26.2926 68.461H47.0057C48.1278 68.461 49.1292 67.7905 49.5582 66.7536C49.9886 65.7166 49.7528 64.5334 48.9588 63.7408L41.8038 56.5959H49.9985V53.6868H5.70738C5.06533 53.6868 4.54404 53.1655 4.54404 52.5235V47.6499H49.9986V44.7408H4.54404V5.52629C4.54404 4.88424 5.06535 4.36295 5.70738 4.36295H67.5838C68.2329 4.36295 68.7614 4.88426 68.7614 5.52629V28.3487H71.6704V5.52629C71.6704 3.28055 69.8366 1.45386 67.5838 1.45386H5.70738C3.46164 1.45386 1.63495 3.28056 1.63495 5.52629V52.5235C1.63495 54.7692 3.46165 56.5959 5.70738 56.5959H31.4757ZM37.6903 56.6002L41.5894 60.4936H31.6953L35.5838 56.6002H37.6903ZM26.6435 65.5518L28.7899 63.4027H44.5026L46.6548 65.5518H26.6435Z" fill="#F0F0F0"/>
<path d="M34.5924 50.6783C34.5924 51.8047 35.5157 52.7209 36.6492 52.7209C37.7827 52.7209 38.706 51.8047 38.706 50.6783C38.706 49.5448 37.7827 48.6215 36.6492 48.6215C35.5157 48.6215 34.5924 49.5448 34.5924 50.6783ZM32.8665 9.31042H10.321V27.9553H32.8665V9.31042ZM29.9574 25.0462H13.2301V12.2195H29.9574V25.0462ZM62.9773 9.31042H40.4304V27.9553H62.9773V9.31042ZM60.0682 25.0462H43.3395V12.2195H60.0682V25.0462Z" fill="#F0F0F0"/>
<path d="M51.1244 31.8517H11.776V34.7608H51.1244V31.8517Z" fill="#F0F0F0"/>
<path d="M49.9985 39.1884H11.776V42.0974H49.9985V39.1884Z" fill="#F0F0F0"/>
<path d="M88.2841 31.2578H58.9887C55.6364 31.2578 52.9091 33.9851 52.9091 37.3374C52.9091 50.524 52.9091 79.9259 52.9091 88.4666C52.9091 91.8189 55.6364 94.5462 58.9887 94.5462H88.2841C91.6378 94.5462 94.3651 91.8189 94.3651 88.4666C94.3651 79.9389 94.3651 50.6186 94.3651 37.3374C94.3651 33.9851 91.6378 31.2578 88.2841 31.2578ZM55.8182 37.3373C55.8182 35.5888 57.2401 34.1669 58.9887 34.1669H88.2841C90.0327 34.1669 91.456 35.5888 91.456 37.3373V42.174H55.8182V37.3373ZM91.456 88.4666C91.456 90.2152 90.0327 91.6371 88.2841 91.6371H58.9887C57.2401 91.6371 55.8182 90.2152 55.8182 88.4666V84.4013H91.456V88.4666ZM91.456 81.4922H55.8182V45.0831H91.456V81.4922Z" fill="#F0F0F0"/>
<path d="M78.4494 36.717H68.8232V39.6261H78.4494V36.717Z" fill="#F0F0F0"/>
<path d="M78.4494 86.5643H68.8232V89.4734H78.4494V86.5643Z" fill="#F0F0F0"/>
<path d="M83.6236 36.6101C82.7628 36.6101 82.0625 37.3104 82.0625 38.1712C82.0625 39.0306 82.7628 39.7309 83.6236 39.7309C84.4815 39.7309 85.179 39.0306 85.179 38.1712C85.179 37.3104 84.4815 36.6101 83.6236 36.6101ZM83.6236 39.5192C82.8778 39.5192 82.2699 38.9141 82.2699 38.1712C82.2699 37.4269 82.8779 36.8218 83.6236 36.8218C84.3665 36.8218 84.9716 37.4269 84.9716 38.1712C84.9716 38.9141 84.3665 39.5192 83.6236 39.5192Z" fill="#F0F0F0"/>
</svg>
