<svg width="96" height="96" viewBox="0 0 96 96" fill="none" xmlns="http://www.w3.org/2000/svg">
<path d="M14.0024 36.0001H14C12.896 35.9993 12.0007 36.8939 12 37.9976V58C12 59.1045 12.8955 60 14 60C15.1045 60 16 59.1045 16 58V38.0001C16.0007 36.896 15.1062 36.0008 14.0024 36.0001ZM63.3745 17.5931L67.668 11.1055C68.2786 10.1844 68.0266 8.94268 67.1055 8.33209C66.1843 7.72149 64.9426 7.97345 64.332 8.89459L60.0911 15.3025C52.6316 10.8992 43.3682 10.8992 35.9089 15.3025L31.668 8.89459C31.0574 7.97345 29.8157 7.72149 28.8945 8.33209C27.9734 8.94268 27.7214 10.1844 28.332 11.1055L32.6255 17.5931C27.1602 22.1439 24 28.8882 24 36.0001V70C23.9993 71.1041 24.8938 71.9993 25.9976 72H38V86C38 87.1045 38.8955 88 40 88C41.1045 88 42 87.1045 42 86V72H54V86C54 87.1045 54.8955 88 56 88C57.1045 88 58 87.1045 58 86V72H70C71.104 72.0008 71.9993 71.1063 72 70.0022V36.0001C72 28.8882 68.8398 22.1439 63.3745 17.5931ZM68 68H28V40.0001H68V68ZM28 36.0001C28 24.9544 36.9543 16.0001 48 16.0001C59.0457 16.0001 68 24.9544 68 36.0001H28ZM82.0024 36.0001H82C80.896 35.9993 80.0007 36.8939 80 37.9976V58C80 59.1045 80.8955 60 82 60C83.1045 60 84 59.1045 84 58V38.0001C84.0007 36.896 83.1062 36.0008 82.0024 36.0001Z" fill="#F0F0F0"/>
</svg>
