<svg width="96" height="96" viewBox="0 0 96 96" fill="none" xmlns="http://www.w3.org/2000/svg">
<g clip-path="url(#clip0_206_1000)">
<path d="M94.4092 44.706C94.4092 41.6514 90.7213 38.886 87.5213 38.886H70.481V6.01507C70.481 3.39689 68.6122 -0.00012207 65.994 -0.00012207H7.37585C4.61222 -0.00012207 1.21521 3.39689 1.21521 6.01507V51.1575C1.21521 53.7757 4.61222 54.7423 7.2304 54.7423H26.7342V63.1897H19.0122C18.1395 63.1897 17.0127 64.1398 17.0127 65.0125C17.0127 65.8853 18.1395 66.9605 19.0122 66.9605H36.5607V73.9423C36.5607 76.9969 40.2486 80.2024 43.4486 80.2024H58.5759V89.2151C58.5759 91.9787 60.9031 94.7847 63.6668 94.7847H77.4849C80.2486 94.7847 81.4177 91.9787 81.4177 89.2151V82.0454H87.5213C90.5758 82.0454 94.4092 77.1423 94.4092 73.9423V44.706ZM4.86078 48.7272V6.01507C4.86078 4.99689 6.21222 3.64545 7.37585 3.64545H64.9243C65.9425 3.64545 66.8152 4.99689 66.8152 6.01507V38.886H63.8122H45.5696H44.6564C40.1853 38.886 36.5607 42.5105 36.5607 46.9817V51.0378C27.8334 51.0378 12.4668 51.0378 7.37585 51.0378C6.21222 51.0378 4.86078 49.7453 4.86078 48.7272ZM30.3798 63.1897V54.7423H36.5607V63.1897H30.3798ZM77.7722 65.6201H61.9747V64.0514C61.9747 62.8878 63.2414 61.9746 64.4051 61.9746H75.3418C76.5054 61.9746 77.7722 62.8878 77.7722 64.0514V65.6201ZM61.9747 69.2657H77.7722C77.7722 69.8475 77.7722 83.9934 77.7722 83.848H61.9747C61.9747 83.5571 61.9747 68.393 61.9747 69.2657ZM81.4177 63.1897C81.4177 60.4261 79.0334 58.329 76.2697 58.329H63.6668C60.9031 58.329 58.3291 61.2878 58.3291 64.0514V67.0968L57.7215 67.5755L81.4177 67.0968V65.3807V63.1897ZM76.2697 91.1391H63.6668C62.5031 91.1391 61.9747 87.4935 61.9747 87.4935H69.2658H77.7722C77.7722 87.4935 77.4334 91.1391 76.2697 91.1391ZM90.2849 73.9423C90.2849 75.3969 89.1213 77.9212 87.5213 77.9212H81.4177V74.8666V70.9817V67.0968L57.7215 67.5755L58.3291 67.0968V70.3741V73.6514V76.706H43.4486C41.994 76.706 40.1013 75.5423 40.1013 73.9423C40.1013 72.9242 40.1013 44.0303 40.1013 45.9212C40.1013 44.4666 41.8486 42.5315 43.4486 42.5315C95.9577 42.5315 34.8668 42.5315 87.5213 42.5315C88.9758 42.5315 90.2849 44.3212 90.2849 45.9212V73.9423Z" fill="#F0F0F0"/>
</g>
<defs>
<clipPath id="clip0_206_1000">
<rect width="96" height="96" fill="white"/>
</clipPath>
</defs>
</svg>
