<svg width="96" height="96" viewBox="0 0 96 96" fill="none" xmlns="http://www.w3.org/2000/svg">
<path d="M91.2 0H4.8C3.52696 0 2.30606 0.505713 1.40589 1.40589C0.505713 2.30606 0 3.52696 0 4.8L0 68.8C0 70.073 0.505713 71.2939 1.40589 72.1941C2.30606 73.0943 3.52696 73.6 4.8 73.6H33.6V83.2H24C22.727 83.2 21.5061 83.7057 20.6059 84.6059C19.7057 85.5061 19.2 86.727 19.2 88V91.2C19.2 92.473 19.7057 93.6939 20.6059 94.5941C21.5061 95.4943 22.727 96 24 96H72C73.273 96 74.4939 95.4943 75.3941 94.5941C76.2943 93.6939 76.8 92.473 76.8 91.2V88C76.8 86.727 76.2943 85.5061 75.3941 84.6059C74.4939 83.7057 73.273 83.2 72 83.2H62.4V73.6H91.2C92.473 73.6 93.6939 73.0943 94.5941 72.1941C95.4943 71.2939 96 70.073 96 68.8V4.8C96 3.52696 95.4943 2.30606 94.5941 1.40589C93.6939 0.505713 92.473 0 91.2 0V0ZM4.8 3.2H91.2C91.6244 3.2 92.0313 3.36857 92.3314 3.66863C92.6314 3.96869 92.8 4.37565 92.8 4.8V60.8H62.24L60.9952 49.6H76.8C77.2243 49.6 77.6313 49.4314 77.9314 49.1314C78.2314 48.8313 78.4 48.4243 78.4 48C78.4 47.5757 78.2314 47.1687 77.9314 46.8686C77.6313 46.5686 77.2243 46.4 76.8 46.4H73.6V14.4C73.6 13.5513 73.2629 12.7374 72.6627 12.1373C72.0626 11.5371 71.2487 11.2 70.4 11.2H49.6V8C49.6 7.57565 49.4314 7.16869 49.1314 6.86863C48.8313 6.56857 48.4243 6.4 48 6.4C47.5757 6.4 47.1687 6.56857 46.8686 6.86863C46.5686 7.16869 46.4 7.57565 46.4 8V11.2H25.6C24.7513 11.2 23.9374 11.5371 23.3373 12.1373C22.7371 12.7374 22.4 13.5513 22.4 14.4V46.4H19.2C18.7757 46.4 18.3687 46.5686 18.0686 46.8686C17.7686 47.1687 17.6 47.5757 17.6 48C17.6 48.4243 17.7686 48.8313 18.0686 49.1314C18.3687 49.4314 18.7757 49.6 19.2 49.6H35.0128L33.768 60.8H3.2V4.8C3.2 4.37565 3.36857 3.96869 3.66863 3.66863C3.96869 3.36857 4.37565 3.2 4.8 3.2ZM70.4 14.4V46.4H25.6V14.4H70.4ZM58.3008 54.4H49.6V49.6H57.76L58.3008 54.4ZM46.4 49.6V54.4H37.6992L38.232 49.6H46.4ZM37.344 57.6H58.656L59.0128 60.8H36.9872L37.344 57.6ZM73.6 88V91.2C73.6 91.6244 73.4314 92.0313 73.1314 92.3314C72.8313 92.6314 72.4243 92.8 72 92.8H24C23.5757 92.8 23.1687 92.6314 22.8686 92.3314C22.5686 92.0313 22.4 91.6244 22.4 91.2V88C22.4 87.5757 22.5686 87.1687 22.8686 86.8686C23.1687 86.5686 23.5757 86.4 24 86.4H72C72.4243 86.4 72.8313 86.5686 73.1314 86.8686C73.4314 87.1687 73.6 87.5757 73.6 88ZM59.2 83.2H36.8V73.6H59.2V83.2ZM91.2 70.4H4.8C4.37565 70.4 3.96869 70.2314 3.66863 69.9314C3.36857 69.6313 3.2 69.2243 3.2 68.8V64H92.8V68.8C92.8 69.2243 92.6314 69.6313 92.3314 69.9314C92.0313 70.2314 91.6244 70.4 91.2 70.4Z" fill="#F0F0F0"/>
<path d="M33.6 27.2C34.5494 27.2 35.4774 26.9185 36.2668 26.391C37.0561 25.8636 37.6714 25.1139 38.0347 24.2369C38.398 23.3598 38.493 22.3947 38.3078 21.4635C38.1226 20.5324 37.6655 19.6772 36.9942 19.0059C36.3229 18.3346 35.4676 17.8774 34.5365 17.6922C33.6054 17.507 32.6403 17.6021 31.7632 17.9654C30.8861 18.3287 30.1364 18.9439 29.609 19.7332C29.0816 20.5226 28.8 21.4506 28.8 22.4C28.8 23.673 29.3058 24.8939 30.2059 25.7941C31.1061 26.6943 32.327 27.2 33.6 27.2ZM33.6 20.8C33.9165 20.8 34.2258 20.8938 34.489 21.0696C34.7521 21.2454 34.9572 21.4953 35.0783 21.7877C35.1994 22.08 35.231 22.4018 35.1693 22.7121C35.1076 23.0225 34.9552 23.3076 34.7314 23.5313C34.5077 23.7551 34.2226 23.9075 33.9122 23.9692C33.6018 24.031 33.2801 23.9993 32.9878 23.8782C32.6954 23.7571 32.4455 23.552 32.2697 23.2889C32.0939 23.0258 32 22.7164 32 22.4C32 21.9756 32.1686 21.5687 32.4687 21.2686C32.7687 20.9685 33.1757 20.8 33.6 20.8ZM32 40C31.5757 40 31.1687 40.1685 30.8687 40.4686C30.5686 40.7687 30.4 41.1756 30.4 41.6C30.4 42.0243 30.5686 42.4313 30.8687 42.7314C31.1687 43.0314 31.5757 43.2 32 43.2H64C64.4244 43.2 64.8313 43.0314 65.1314 42.7314C65.4315 42.4313 65.6 42.0243 65.6 41.6C65.6 41.1756 65.4315 40.7687 65.1314 40.4686C64.8313 40.1685 64.4244 40 64 40H63.4688L53.048 28.2784C52.7355 27.9382 52.3556 27.6666 51.9325 27.481C51.5095 27.2954 51.0524 27.1997 50.5904 27.2C50.1214 27.2161 49.6615 27.3346 49.2431 27.5471C48.8246 27.7596 48.4577 28.0611 48.168 28.4304L45.7488 31.4912L45.6544 31.3904C45.3464 31.0639 44.9725 30.8068 44.5574 30.636C44.1423 30.4652 43.6957 30.3847 43.2471 30.3999C42.7986 30.415 42.3584 30.5254 41.9558 30.7238C41.5531 30.9222 41.1974 31.2039 40.912 31.5504L33.9056 40H32ZM43.3328 33.6L44.6784 35.024L45.8192 36.2816C45.9585 36.444 46.1289 36.5769 46.3204 36.6723C46.5119 36.7677 46.7206 36.8238 46.9342 36.8371C47.1477 36.8504 47.3618 36.8208 47.5637 36.75C47.7656 36.6791 47.9512 36.5685 48.1096 36.4247C48.268 36.2809 48.3959 36.1067 48.4859 35.9126C48.5758 35.7184 48.6258 35.5082 48.6331 35.2943C48.6403 35.0805 48.6046 34.8674 48.528 34.6676C48.4514 34.4678 48.3356 34.2854 48.1872 34.1312L47.9488 33.8672L50.6608 30.4L59.1888 40H38.0512L43.3328 33.6ZM43.2 80H52.8C53.2244 80 53.6314 79.8314 53.9314 79.5313C54.2315 79.2313 54.4 78.8243 54.4 78.4C54.4 77.9756 54.2315 77.5687 53.9314 77.2686C53.6314 76.9685 53.2244 76.8 52.8 76.8H43.2C42.7757 76.8 42.3687 76.9685 42.0687 77.2686C41.7686 77.5687 41.6 77.9756 41.6 78.4C41.6 78.8243 41.7686 79.2313 42.0687 79.5313C42.3687 79.8314 42.7757 80 43.2 80Z" fill="#F0F0F0"/>
</svg>
