<svg width="60" height="60" viewBox="0 0 60 60" fill="none" xmlns="http://www.w3.org/2000/svg">
<path d="M31.5857 0.936035C31.3371 0.93606 31.0986 1.03488 30.9228 1.21069C30.747 1.3865 30.6482 1.6249 30.6482 1.87354V4.21729C29.7725 4.47191 28.9307 4.81594 28.1287 5.25L26.4844 3.60205C26.3086 3.4263 26.0701 3.32762 25.8215 3.32762C25.5729 3.32762 25.3345 3.4263 25.1587 3.60205L21.4197 7.34106C21.3321 7.42819 21.2626 7.53187 21.2152 7.64594C21.1678 7.76 21.1434 7.88243 21.1434 8.00597C21.1434 8.1295 21.1678 8.2517 21.2152 8.36577C21.2626 8.47984 21.3321 8.58351 21.4197 8.67064L23.0713 10.322C22.6368 11.12 22.2915 11.9589 22.0349 12.8306H19.6948C19.4462 12.8306 19.2077 12.9294 19.0319 13.1052C18.8561 13.281 18.7573 13.5194 18.7573 13.7681V16.8772V17.8147H20.6323V16.8772V14.7056H22.6465C22.8585 14.7051 23.064 14.6328 23.2296 14.5005C23.3952 14.3682 23.5111 14.1837 23.5583 13.977C23.8321 12.7759 24.3095 11.6326 24.9646 10.5894C25.0782 10.4091 25.127 10.1956 25.1031 9.98396C25.0791 9.77229 24.9838 9.57507 24.8328 9.4248L23.4082 8.00391L25.8215 5.59058L27.2351 7.00804C27.3845 7.15777 27.5801 7.25247 27.7902 7.27698C28.0003 7.30149 28.2125 7.25441 28.3923 7.14308C29.4382 6.49077 30.5881 6.01782 31.7908 5.74782C31.9987 5.70118 32.1846 5.58512 32.3178 5.41869C32.4509 5.25225 32.5234 5.04542 32.5232 4.83229V2.81447H35.929V4.8284C35.9286 5.04103 36.0006 5.24752 36.133 5.41388C36.2654 5.58024 36.4504 5.6968 36.6577 5.74416C37.8586 6.01791 39.0057 6.49162 40.0488 7.14674C40.2286 7.25947 40.4413 7.30791 40.6522 7.28407C40.8631 7.26023 41.0596 7.16562 41.2097 7.01559L42.6306 5.59081L45.044 8.00414L43.6267 9.41771C43.4766 9.56774 43.3818 9.76437 43.3578 9.97527C43.3339 10.1862 43.3822 10.399 43.4949 10.5788C44.1471 11.6243 44.6165 12.7745 44.8865 13.9773C44.9339 14.1845 45.0503 14.3695 45.2166 14.5019C45.383 14.6343 45.5894 14.7061 45.802 14.7058H47.8198V16.8774V17.8149H49.6948V16.8774V13.7683C49.6948 13.5197 49.596 13.2813 49.4202 13.1055C49.2444 12.9296 49.006 12.8308 48.7573 12.8308H46.4172C46.1629 11.9559 45.818 11.1165 45.3845 10.3149L47.0325 8.67064C47.1201 8.58351 47.1895 8.48007 47.237 8.366C47.2844 8.25193 47.3088 8.1295 47.3088 8.00597C47.3088 7.88243 47.2844 7.76023 47.237 7.64616C47.1895 7.53209 47.1201 7.42842 47.0325 7.34129L43.2935 3.60228C43.1176 3.42653 42.8792 3.32785 42.6306 3.32785C42.382 3.32785 42.1436 3.42653 41.9678 3.60228L40.3162 5.25755C39.5159 4.82143 38.6784 4.47091 37.804 4.21385V1.87376C37.8039 1.62513 37.7052 1.3865 37.5293 1.21069C37.3535 1.03488 37.1151 0.936289 36.8665 0.936264H31.5857L31.5857 0.936035ZM34.2261 7.96729C29.5853 7.96729 25.7886 11.7642 25.7886 16.4048V17.3423H27.6636V16.4048C27.6636 12.7836 30.6047 9.84229 34.2261 9.84229C37.8474 9.84229 40.7886 12.7836 40.7886 16.4048V17.3423H42.6636V16.4048C42.6636 11.7642 38.8668 7.96729 34.2261 7.96729Z" fill="#1F120C"/>
<path d="M42.6123 47.705C39.2289 47.705 36.4636 50.4695 36.4636 53.8537C36.4636 57.2379 39.2289 59.9987 42.6123 59.9987C45.9957 59.9987 48.7573 57.2379 48.7573 53.8537C48.7573 50.4695 45.9957 47.705 42.6123 47.705ZM42.6123 49.58C44.9819 49.58 46.8823 51.4824 46.8823 53.8537C46.8823 56.225 44.9819 58.1237 42.6123 58.1237C40.2427 58.1237 38.3386 56.225 38.3386 53.8537C38.3386 51.4824 40.2427 49.58 42.6123 49.58ZM6.56981 11.2671C6.44558 11.2653 6.32224 11.2883 6.20696 11.3346C6.09168 11.3809 5.98675 11.4497 5.89828 11.5369C5.80981 11.6241 5.73955 11.7281 5.6916 11.8427C5.64365 11.9573 5.61896 12.0803 5.61896 12.2046C5.61896 12.3288 5.64365 12.4518 5.6916 12.5664C5.73955 12.681 5.80981 12.785 5.89828 12.8722C5.98675 12.9594 6.09168 13.0282 6.20696 13.0745C6.32224 13.1209 6.44558 13.1438 6.56981 13.1421H11.8799L18.4094 40.531C18.4588 40.7356 18.5756 40.9176 18.741 41.0478C18.9064 41.178 19.1108 41.2488 19.3213 41.2487H46.6736C46.8748 41.2487 47.0707 41.1838 47.2323 41.0638C47.3939 40.9438 47.5126 40.7749 47.5708 40.5822L49.2627 34.9572L50.9582 29.3322L51.405 27.8491C51.4406 27.731 51.4526 27.607 51.4403 27.4843C51.428 27.3616 51.3916 27.2425 51.3333 27.1338C51.275 27.0252 51.1958 26.9292 51.1004 26.8512C51.0049 26.7731 50.895 26.7146 50.7769 26.679C50.6589 26.6435 50.5349 26.6315 50.4122 26.6438C50.2895 26.6561 50.1705 26.6924 50.0618 26.7507C49.9532 26.809 49.8571 26.8882 49.779 26.9837C49.701 27.0792 49.6425 27.189 49.6069 27.3071L49.1601 28.7939L47.4682 34.4189L45.9778 39.3737H20.061L15.1318 18.6938C15.2352 18.7307 15.3443 18.7489 15.4541 18.7481H52.185L50.8557 23.1685C50.8141 23.288 50.7972 23.4146 50.8059 23.5408C50.8146 23.6671 50.8488 23.7903 50.9064 23.9029C50.9639 24.0156 51.0437 24.1156 51.1409 24.1966C51.2381 24.2776 51.3507 24.3381 51.4719 24.3744C51.5931 24.4108 51.7204 24.4222 51.8461 24.4081C51.9719 24.3939 52.0934 24.3544 52.2035 24.292C52.3136 24.2297 52.4099 24.1457 52.4867 24.0451C52.5634 23.9445 52.619 23.8294 52.6501 23.7068L54.342 18.0818C54.3843 17.9418 54.3932 17.7938 54.3681 17.6497C54.343 17.5056 54.2845 17.3693 54.1973 17.2519C54.1101 17.1344 53.9966 17.0391 53.866 16.9733C53.7353 16.9075 53.5911 16.8731 53.4448 16.8731H15.4541C15.3254 16.872 15.1978 16.8975 15.0794 16.9479C14.9609 16.9983 14.8541 17.0728 14.7656 17.1663L13.5315 11.988C13.4828 11.7827 13.3664 11.5999 13.2009 11.4689C13.0354 11.338 12.8306 11.2667 12.6196 11.2666H6.56981V11.2671Z" fill="#1F120C"/>
<path d="M12.5684 11.219C12.4297 11.2261 12.2943 11.2638 12.1721 11.3296C12.0498 11.3954 11.9437 11.4877 11.8613 11.5994C11.779 11.7112 11.7225 11.8399 11.6959 11.9762C11.6694 12.1125 11.6734 12.2527 11.7078 12.3873L20.4712 48.8802C20.5205 49.0848 20.6373 49.267 20.8027 49.3972C20.9681 49.5275 21.1725 49.598 21.3831 49.598H43.0444C43.1687 49.5997 43.292 49.5768 43.4073 49.5304C43.5226 49.4841 43.6275 49.4153 43.716 49.3281C43.8044 49.2409 43.8747 49.1369 43.9226 49.0223C43.9706 48.9077 43.9953 48.7847 43.9953 48.6605C43.9953 48.5362 43.9706 48.4132 43.9226 48.2986C43.8747 48.184 43.8044 48.08 43.716 47.9928C43.6275 47.9056 43.5226 47.8368 43.4073 47.7905C43.292 47.7441 43.1687 47.7212 43.0444 47.723H22.1228L13.5315 11.9478C13.4826 11.7323 13.3591 11.541 13.1829 11.4076C13.0067 11.2743 12.789 11.2075 12.5684 11.219Z" fill="#1F120C"/>
<path fill-rule="evenodd" clip-rule="evenodd" d="M28.1323 22.4985V24.3735H51.7566V22.4985H28.1323ZM31.8823 28.1235V29.9985H50.6323V28.1235H31.8823ZM35.6323 33.7485V35.6235H48.7573V33.7485H35.6323Z" fill="#1F120C"/>
<path d="M21.9873 47.7051C18.6039 47.7051 15.8386 50.4696 15.8386 53.8538C15.8386 57.2379 18.6039 59.9988 21.9873 59.9988C25.3707 59.9988 28.1323 57.2379 28.1323 53.8538C28.1323 50.4696 25.3707 47.7051 21.9873 47.7051ZM21.9873 49.5801C24.3569 49.5801 26.2573 51.4824 26.2573 53.8538C26.2573 56.2251 24.3569 58.1238 21.9873 58.1238C19.6177 58.1238 17.7136 56.2251 17.7136 53.8538C17.7136 51.4824 19.6177 49.5801 21.9873 49.5801Z" fill="#1F120C"/>
</svg>
