<svg width="60" height="60" viewBox="0 0 60 60" fill="none" xmlns="http://www.w3.org/2000/svg">
<path d="M48.75 50H45V8.75C45 8.41848 44.8683 8.10054 44.6339 7.86612C44.3995 7.6317 44.0815 7.5 43.75 7.5H16.25C15.9185 7.5 15.6005 7.6317 15.3661 7.86612C15.1317 8.10054 15 8.41848 15 8.75V50H11.25C10.9185 50 10.6005 50.1317 10.3661 50.3661C10.1317 50.6005 10 50.9185 10 51.25C10 51.5815 10.1317 51.8995 10.3661 52.1339C10.6005 52.3683 10.9185 52.5 11.25 52.5H48.75C49.0815 52.5 49.3995 52.3683 49.6339 52.1339C49.8683 51.8995 50 51.5815 50 51.25C50 50.9185 49.8683 50.6005 49.6339 50.3661C49.3995 50.1317 49.0815 50 48.75 50ZM26.25 50V42.5H33.75V50H26.25ZM36.25 50V42.5H37.5C37.8315 42.5 38.1495 42.3683 38.3839 42.1339C38.6183 41.8995 38.75 41.5815 38.75 41.25C38.75 40.9185 38.6183 40.6005 38.3839 40.3661C38.1495 40.1317 37.8315 40 37.5 40H22.5C22.1685 40 21.8505 40.1317 21.6161 40.3661C21.3817 40.6005 21.25 40.9185 21.25 41.25C21.25 41.5815 21.3817 41.8995 21.6161 42.1339C21.8505 42.3683 22.1685 42.5 22.5 42.5H23.75V50H17.5V10H42.5V50H36.25Z" fill="#1F120C"/>
<path d="M23.75 13.75H21.25C20.9185 13.75 20.6005 13.8817 20.3661 14.1161C20.1317 14.3505 20 14.6685 20 15C20 15.3315 20.1317 15.6495 20.3661 15.8839C20.6005 16.1183 20.9185 16.25 21.25 16.25H23.75C24.0815 16.25 24.3995 16.1183 24.6339 15.8839C24.8683 15.6495 25 15.3315 25 15C25 14.6685 24.8683 14.3505 24.6339 14.1161C24.3995 13.8817 24.0815 13.75 23.75 13.75ZM31.25 13.75H28.75C28.4185 13.75 28.1005 13.8817 27.8661 14.1161C27.6317 14.3505 27.5 14.6685 27.5 15C27.5 15.3315 27.6317 15.6495 27.8661 15.8839C28.1005 16.1183 28.4185 16.25 28.75 16.25H31.25C31.5815 16.25 31.8995 16.1183 32.1339 15.8839C32.3683 15.6495 32.5 15.3315 32.5 15C32.5 14.6685 32.3683 14.3505 32.1339 14.1161C31.8995 13.8817 31.5815 13.75 31.25 13.75ZM38.75 13.75H36.25C35.9185 13.75 35.6005 13.8817 35.3661 14.1161C35.1317 14.3505 35 14.6685 35 15C35 15.3315 35.1317 15.6495 35.3661 15.8839C35.6005 16.1183 35.9185 16.25 36.25 16.25H38.75C39.0815 16.25 39.3995 16.1183 39.6339 15.8839C39.8683 15.6495 40 15.3315 40 15C40 14.6685 39.8683 14.3505 39.6339 14.1161C39.3995 13.8817 39.0815 13.75 38.75 13.75ZM23.75 20H21.25C20.9185 20 20.6005 20.1317 20.3661 20.3661C20.1317 20.6005 20 20.9185 20 21.25C20 21.5815 20.1317 21.8995 20.3661 22.1339C20.6005 22.3683 20.9185 22.5 21.25 22.5H23.75C24.0815 22.5 24.3995 22.3683 24.6339 22.1339C24.8683 21.8995 25 21.5815 25 21.25C25 20.9185 24.8683 20.6005 24.6339 20.3661C24.3995 20.1317 24.0815 20 23.75 20ZM31.25 20H28.75C28.4185 20 28.1005 20.1317 27.8661 20.3661C27.6317 20.6005 27.5 20.9185 27.5 21.25C27.5 21.5815 27.6317 21.8995 27.8661 22.1339C28.1005 22.3683 28.4185 22.5 28.75 22.5H31.25C31.5815 22.5 31.8995 22.3683 32.1339 22.1339C32.3683 21.8995 32.5 21.5815 32.5 21.25C32.5 20.9185 32.3683 20.6005 32.1339 20.3661C31.8995 20.1317 31.5815 20 31.25 20ZM38.75 20H36.25C35.9185 20 35.6005 20.1317 35.3661 20.3661C35.1317 20.6005 35 20.9185 35 21.25C35 21.5815 35.1317 21.8995 35.3661 22.1339C35.6005 22.3683 35.9185 22.5 36.25 22.5H38.75C39.0815 22.5 39.3995 22.3683 39.6339 22.1339C39.8683 21.8995 40 21.5815 40 21.25C40 20.9185 39.8683 20.6005 39.6339 20.3661C39.3995 20.1317 39.0815 20 38.75 20ZM23.75 26.25H21.25C20.9185 26.25 20.6005 26.3817 20.3661 26.6161C20.1317 26.8505 20 27.1685 20 27.5C20 27.8315 20.1317 28.1495 20.3661 28.3839C20.6005 28.6183 20.9185 28.75 21.25 28.75H23.75C24.0815 28.75 24.3995 28.6183 24.6339 28.3839C24.8683 28.1495 25 27.8315 25 27.5C25 27.1685 24.8683 26.8505 24.6339 26.6161C24.3995 26.3817 24.0815 26.25 23.75 26.25ZM31.25 26.25H28.75C28.4185 26.25 28.1005 26.3817 27.8661 26.6161C27.6317 26.8505 27.5 27.1685 27.5 27.5C27.5 27.8315 27.6317 28.1495 27.8661 28.3839C28.1005 28.6183 28.4185 28.75 28.75 28.75H31.25C31.5815 28.75 31.8995 28.6183 32.1339 28.3839C32.3683 28.1495 32.5 27.8315 32.5 27.5C32.5 27.1685 32.3683 26.8505 32.1339 26.6161C31.8995 26.3817 31.5815 26.25 31.25 26.25ZM38.75 26.25H36.25C35.9185 26.25 35.6005 26.3817 35.3661 26.6161C35.1317 26.8505 35 27.1685 35 27.5C35 27.8315 35.1317 28.1495 35.3661 28.3839C35.6005 28.6183 35.9185 28.75 36.25 28.75H38.75C39.0815 28.75 39.3995 28.6183 39.6339 28.3839C39.8683 28.1495 40 27.8315 40 27.5C40 27.1685 39.8683 26.8505 39.6339 26.6161C39.3995 26.3817 39.0815 26.25 38.75 26.25ZM23.75 32.5H21.25C20.9185 32.5 20.6005 32.6317 20.3661 32.8661C20.1317 33.1005 20 33.4185 20 33.75C20 34.0815 20.1317 34.3995 20.3661 34.6339C20.6005 34.8683 20.9185 35 21.25 35H23.75C24.0815 35 24.3995 34.8683 24.6339 34.6339C24.8683 34.3995 25 34.0815 25 33.75C25 33.4185 24.8683 33.1005 24.6339 32.8661C24.3995 32.6317 24.0815 32.5 23.75 32.5ZM31.25 32.5H28.75C28.4185 32.5 28.1005 32.6317 27.8661 32.8661C27.6317 33.1005 27.5 33.4185 27.5 33.75C27.5 34.0815 27.6317 34.3995 27.8661 34.6339C28.1005 34.8683 28.4185 35 28.75 35H31.25C31.5815 35 31.8995 34.8683 32.1339 34.6339C32.3683 34.3995 32.5 34.0815 32.5 33.75C32.5 33.4185 32.3683 33.1005 32.1339 32.8661C31.8995 32.6317 31.5815 32.5 31.25 32.5ZM38.75 32.5H36.25C35.9185 32.5 35.6005 32.6317 35.3661 32.8661C35.1317 33.1005 35 33.4185 35 33.75C35 34.0815 35.1317 34.3995 35.3661 34.6339C35.6005 34.8683 35.9185 35 36.25 35H38.75C39.0815 35 39.3995 34.8683 39.6339 34.6339C39.8683 34.3995 40 34.0815 40 33.75C40 33.4185 39.8683 33.1005 39.6339 32.8661C39.3995 32.6317 39.0815 32.5 38.75 32.5Z" fill="#1F120C"/>
</svg>
