<svg width="60" height="60" viewBox="0 0 60 60" fill="none" xmlns="http://www.w3.org/2000/svg">
<path d="M55.4062 4.59359C54.1875 3.37484 50.5312 3.37484 46.9687 5.53109C43.7812 7.49984 40.125 10.7811 35.625 15.1873L30.2812 14.2498C31.2187 12.3748 31.3125 11.0623 30.5625 10.3123C28.7812 8.53109 24.75 11.6248 23.0625 12.9373L21 12.5623C22.2187 10.6873 22.9687 8.62484 21.8437 7.49984C20.1562 5.90609 16.3125 8.34358 13.3125 11.1561L8.34375 10.2186C7.5 10.0311 6.65625 10.3123 6.09375 10.9686L4.59375 12.4686C3.84375 13.1248 3.65625 14.0623 3.84375 14.9061C4.03125 15.7498 4.6875 16.4998 5.4375 16.7811L7.96875 17.7186C6.9375 19.5936 6.84375 20.9998 7.59375 21.8436C7.96875 22.2186 8.4375 22.4061 9 22.4061C10.5938 22.4061 12.6563 21.0936 14.0625 19.9686L16.4063 20.8123C15.5625 22.5936 15.4687 23.8123 16.2187 24.6561C16.5937 25.0311 17.0625 25.2186 17.625 25.2186C19.125 25.2186 21 23.9998 22.4062 23.0623L22.875 23.2498C23.7187 23.5311 24.4687 23.9998 25.125 24.5623L25.9687 25.2186C21.4687 29.9061 17.5312 34.4998 14.7188 38.4373C10.875 36.2811 7.40625 36.4686 7.3125 36.4686C7.21875 36.4686 6.65625 36.4686 6.28125 36.9373C5.8125 37.4998 5.625 38.3436 5.71875 39.4686C5.71875 40.0311 5.90625 41.3436 10.875 44.8123C9.84375 47.0623 9.84375 48.6561 10.6875 49.4998C11.0625 49.8748 11.7188 50.1561 12.375 50.1561C13.125 50.1561 14.1562 49.8748 15.2812 49.4061C18.6562 54.1873 19.9687 54.2811 20.5312 54.2811C20.7187 54.2811 20.9062 54.2811 21 54.2811C21.9375 54.2811 22.5937 54.0936 23.0625 53.6248C23.5312 53.1561 23.5312 52.6873 23.5312 52.5936C23.5312 52.4061 23.7187 49.1248 21.6562 45.4686C25.5937 42.6561 30.2812 38.7186 34.9687 34.2186L35.7187 35.0623C36.2812 35.7186 36.6563 36.3748 36.9375 37.1248C35.5313 38.9998 33.6562 41.9998 35.1562 43.4998C35.5312 43.8748 36 44.0623 36.5625 44.0623C37.3125 44.0623 38.1562 43.7811 39.1875 43.2186L39.9375 45.3748C38.3437 47.4373 36.375 50.6248 37.875 52.1248C38.25 52.4998 38.7188 52.6873 39.2813 52.6873C40.0313 52.6873 41.0625 52.3123 42.1875 51.6561L43.3125 54.6561C43.5938 55.4998 44.25 56.0623 45.1875 56.2498C45.375 56.2498 45.5625 56.3436 45.75 56.3436C46.4062 56.3436 47.0625 56.0623 47.5312 55.5936L49.0312 54.0936C49.5937 53.5311 49.875 52.6873 49.6875 51.8436L48.6563 46.2186C50.0625 44.6248 53.9062 39.9373 52.0312 37.9686C51 36.9373 49.0312 37.5936 47.3437 38.6248L46.9687 36.4686C48.4687 34.5936 51 30.9373 49.4062 29.3436C48.6562 28.5936 47.4375 28.5936 45.75 29.4373L44.8125 24.3748C48.6562 20.5311 52.4062 16.4998 54.4687 13.0311C56.625 9.46858 56.625 5.81234 55.4062 4.59359ZM39.1875 50.6248C39.1875 50.2498 39.4688 49.1248 40.6875 47.3436L41.5312 49.6873C40.2187 50.5311 39.4687 50.6248 39.1875 50.6248ZM29.0625 11.6248C29.0625 11.9061 28.9687 12.5623 28.2187 13.8748L25.5 13.4061C27.4687 11.9998 28.7812 11.6248 29.0625 11.6248ZM20.4375 8.90609C20.4375 9.18734 20.25 10.2186 18.9375 12.1873L15.6563 11.6248C18.1875 9.56233 19.9687 8.81234 20.4375 8.90609ZM9 20.4373C9 20.1561 9.09375 19.4998 9.75 18.2811L11.9063 19.0311C10.2188 20.2498 9.28125 20.4373 9 20.4373ZM17.625 23.1561C17.625 22.9686 17.7187 22.4061 18.1875 21.3748L20.1562 22.1248C18.75 22.9686 17.9062 23.1561 17.625 23.1561ZM23.5312 21.1873L6.09375 14.9061C5.8125 14.8123 5.71875 14.5311 5.625 14.4373C5.53125 14.3436 5.625 14.0623 5.8125 13.8748L7.3125 12.3748C7.5 12.1873 7.78125 12.0936 7.96875 12.1873L33.9375 16.8748C33.0938 17.7186 32.1562 18.6561 31.3125 19.4998C30.375 20.4373 29.4375 21.3748 28.5 22.4061C28.125 22.7811 27.6562 23.2498 27.2812 23.6248L26.3437 22.8748C25.5 22.1248 24.5625 21.5623 23.5312 21.1873ZM7.5 39.1873C7.5 38.6248 7.5 38.2498 7.59375 38.1561C8.34375 38.1561 10.7813 38.3436 13.5938 39.8436C12.8438 40.9686 12.1875 42.0936 11.625 43.0311C8.53125 40.7811 7.59375 39.5623 7.5 39.1873ZM20.625 52.2186C20.625 52.2186 19.6875 52.0311 16.9688 48.3748C17.9063 47.8123 18.9375 47.1561 20.1562 46.4061C21.4687 49.0311 21.6562 51.3748 21.6562 52.1248C21.4687 52.2186 21.1875 52.3123 20.625 52.2186ZM36.4688 41.9998C36.4688 41.6248 36.75 40.6873 37.6875 39.1873L38.4375 41.3436C37.3125 41.9061 36.6563 41.9998 36.4688 41.9998ZM47.7188 52.5936L46.2187 54.0936C45.9375 54.3748 45.6562 54.3748 45.5625 54.3748C45.4687 54.3748 45.1875 54.2811 45.0937 53.9061L38.8125 36.4686C38.4375 35.4373 37.875 34.4998 37.2188 33.6561L36.4688 32.7186C36.8438 32.3436 37.3125 31.9686 37.6875 31.4998L40.0313 29.1561C41.1563 28.0311 42.1875 26.9998 43.2187 25.9686L45.75 39.8436L47.1562 47.7186L47.9062 51.9373C47.9062 52.2186 47.8125 52.4998 47.7188 52.5936ZM50.7187 39.1873C50.8125 39.6561 50.1562 41.3436 48.2812 43.6873L47.7188 40.4998C49.5 39.2811 50.4375 39.0936 50.7187 39.1873ZM48 30.4686C48.0937 30.8436 47.7187 31.9686 46.5 33.7498L46.0312 31.2186C47.1562 30.5623 47.7187 30.4686 48 30.4686ZM52.875 12.0936C50.8125 15.4686 46.9687 19.4998 43.125 23.4373C41.7187 24.8436 40.2187 26.3436 38.7187 27.8436L36.2813 30.1873C35.625 30.8436 35.0625 31.4061 34.4063 31.9686C29.25 36.9373 24.0937 41.3436 19.875 44.2498C18.0937 45.4686 16.5 46.4998 15.0938 47.1561C12.8438 48.2811 12 48.0936 11.9063 47.9998C11.9063 47.9998 11.4375 47.3436 12.75 44.7186L12.8438 44.5311C13.5 43.2186 14.4375 41.7186 15.6563 39.9373C18.5625 35.7186 22.9687 30.5623 27.8437 25.4998C28.4062 24.8436 29.0625 24.2811 29.625 23.6248C30.5625 22.6873 31.5937 21.6561 32.4375 20.7186C33.75 19.3123 35.0625 17.9998 36.375 16.7811C40.9687 12.2811 44.625 8.90609 47.7188 7.03109C50.9063 5.06234 53.5312 5.43733 53.9062 5.81233C54.4687 6.28109 54.75 8.90608 52.875 12.0936Z" fill="#1F120C"/>
<path d="M48.8437 7.5002C48.375 7.59395 48 8.0627 48.0937 8.6252C48.1875 9.09395 48.6562 9.46895 49.2187 9.3752C49.6875 9.28145 50.0625 9.3752 50.25 9.5627C50.4375 9.7502 50.5312 10.1252 50.4375 10.594C50.3437 11.0627 50.625 11.6252 51.1875 11.719C51.2812 11.719 51.2812 11.719 51.375 11.719C51.8437 11.719 52.2187 11.4377 52.3125 10.9689C52.5 9.84395 52.3125 8.8127 51.6562 8.15645C51 7.5002 49.9687 7.21895 48.8437 7.5002Z" fill="#1F120C"/>
</svg>
