<svg width="48" height="48" viewBox="0 0 48 48" fill="none" xmlns="http://www.w3.org/2000/svg">
<path d="M7.63588 23.2258H11.0296V21.6774H7.63588C4.36094 21.6774 1.69687 19.2457 1.69687 16.2581C1.69687 13.2704 4.36094 10.8387 7.63588 10.8387C8.40796 10.8387 9.1563 10.9711 9.86216 11.2328L10.5002 9.7974C9.59152 9.4614 8.6277 9.29034 7.63588 9.29034C7.63588 5.87536 10.6809 3.09677 14.4233 3.09677C16.5631 3.09677 18.5509 4.01961 19.8329 5.56877C19.4919 6.19278 19.2093 6.85236 19.0133 7.54914L20.6568 7.9347C21.7173 4.17523 25.4343 1.54839 29.6951 1.54839C34.8408 1.54839 39.0278 5.36903 39.0278 10.0645V10.8387H39.8763C43.1512 10.8387 45.8153 13.2704 45.8153 16.2581C45.8153 19.2457 43.1512 21.6774 39.8763 21.6774H34.7857V23.2258H39.8763C44.0862 23.2258 47.5122 20.1004 47.5122 16.2581C47.5122 12.6681 44.5223 9.70452 40.6958 9.3306C40.2827 4.12181 35.506 0 29.6951 0C26.0774 0 22.7982 1.608 20.7696 4.15897C19.1694 2.51071 16.8727 1.54839 14.4233 1.54839C9.74505 1.54839 5.93902 5.02142 5.93902 9.29034C5.93902 9.34992 5.94835 9.408 5.95005 9.46764C2.54954 10.1706 0 12.9453 0 16.2581C0 20.1004 3.42596 23.2258 7.63588 23.2258Z" fill="#F76943"/>
<path d="M5.09054 16.2582C5.09054 14.9776 6.23253 13.9356 7.63586 13.9356V12.3872C5.29671 12.3872 3.39368 14.1237 3.39368 16.2582H5.09054Z" fill="#F76943"/>
<path d="M44.1185 30.3354L40.3599 31.0306L40.2335 31.5098C39.8211 33.0698 39.145 34.5562 38.2252 35.9281L37.9428 36.3485L40.063 39.268L36.245 42.7519L33.0464 40.8171L32.5858 41.0742C31.0797 41.9149 29.4508 42.5312 27.7429 42.9067L27.2177 43.0213L26.4567 46.4517H21.0564L20.2945 43.0213L19.7685 42.9067C18.0614 42.5312 16.4316 41.9149 14.9256 41.0742L14.465 40.8171L11.2663 42.7519L7.44842 39.268L9.56864 36.3485L9.2861 35.9281C8.36641 34.5562 7.69105 33.0698 7.27786 31.5098L7.15148 31.0306L3.39376 30.3354V27.8711H1.6969V31.6003L5.76427 32.3536C6.17746 33.7363 6.77984 35.0634 7.56211 36.3082L5.26795 39.4669L11.0483 44.7408L14.5099 42.6474C15.8768 43.3611 17.3301 43.9116 18.8445 44.2871L19.6692 48.0001H27.8439L28.6685 44.2879C30.183 43.9123 31.6363 43.3619 33.0032 42.6481L36.4648 44.7415L42.2451 39.4677L39.951 36.309C40.7323 35.0641 41.3356 33.7371 41.7488 32.3544L45.8153 31.6003V27.8711H44.1185V30.3354Z" fill="#F76943"/>
<path d="M8.48425 27.8711C8.48425 35.5549 15.3354 41.8066 23.756 41.8066C32.1767 41.8066 39.0278 35.5549 39.0278 27.8711H37.3309C37.3309 34.701 31.2409 40.2582 23.756 40.2582C16.2712 40.2582 10.1811 34.701 10.1811 27.8711H8.48425Z" fill="#F76943"/>
<path d="M26.7926 9.36228C24.4323 10.3625 22.9076 12.5125 22.9076 14.8389C22.9076 16.9997 24.2227 19.0087 26.3013 20.0848V32.516C26.3013 34.2239 27.8234 35.6128 29.6951 35.6128C31.5667 35.6128 33.0888 34.2239 33.0888 32.516V20.0848C35.1674 19.0079 36.4825 16.9997 36.4825 14.8389C36.4825 12.5125 34.9579 10.3625 32.5975 9.36228L31.392 8.85132V13.378L27.9982 14.41V8.85132L26.7926 9.36228ZM33.0888 14.4936V11.482C34.1485 12.3282 34.7857 13.5476 34.7857 14.8389C34.7857 16.5646 33.6462 18.164 31.8832 18.9112L31.392 19.1194V32.516C31.392 33.37 30.6309 34.0645 29.6951 34.0645C28.7593 34.0645 27.9982 33.37 27.9982 32.516V19.1194L27.507 18.9104C25.7439 18.164 24.6045 16.5646 24.6045 14.8389C24.6045 13.5476 25.2416 12.3282 26.3013 11.482V16.5584L33.0888 14.4936Z" fill="#F76943"/>
<path d="M12.7266 21.1989V25.5483H14.4234V33.5248L16.9687 37.0087L19.514 33.5248V25.5483H21.2109V21.1989L19.514 20.4247V19.8332L21.2109 19.059V13.9354C21.2109 11.801 19.3078 10.0645 16.9687 10.0645C14.6296 10.0645 12.7266 11.801 12.7266 13.9354V19.059L14.4234 19.8332V20.4247L12.7266 21.1989ZM17.8171 33.0557L16.9687 34.217L16.1202 33.0557V25.5483H17.8171V33.0557ZM14.4234 13.9354C14.4234 12.6549 15.5654 11.6128 16.9687 11.6128C18.372 11.6128 19.514 12.6549 19.514 13.9354V18.1021L17.8171 18.8763V20.129H16.1202V18.8763L14.4234 18.1021V13.9354ZM15.472 21.6773H18.4645L19.514 22.1558V23.9999H14.4234V22.1558L15.472 21.6773Z" fill="#F76943"/>
</svg>
