<svg width="48" height="48" viewBox="0 0 48 48" fill="none" xmlns="http://www.w3.org/2000/svg">
<g clip-path="url(#clip0_206_1167)">
<path d="M9.17649 45.8118H38.6824C40.9412 45.8118 43.0588 44.9647 44.6824 43.3412C46.3059 41.7177 47.153 39.6 47.153 37.3412C47.153 36.9177 46.8706 36.6353 46.4471 36.6353H34.9412C35.8588 35.4353 36.5647 34.1647 37.2706 32.753H37.9059C40.9412 32.753 43.7647 31.553 45.8824 29.3647C48.9177 26.2589 46.6588 20.9647 42.2118 20.9647H39.6706C39.6706 19.4118 39.4588 17.7883 39.1765 16.3059C39.1059 15.953 38.8235 15.7412 38.4706 15.7412H5.85884C5.5059 15.7412 5.22355 15.953 5.15296 16.3059C4.80002 18 4.65884 19.7647 4.65884 21.5294C4.65884 27.1765 6.42355 32.6118 9.45884 36.7059H1.41178C0.988255 36.7059 0.705902 36.9883 0.705902 37.4118C0.705902 42 4.51767 45.8118 9.17649 45.8118ZM44.8941 28.3765C43.0588 30.2824 40.5883 31.3412 37.9059 31.3412C39.0353 28.4471 39.6706 25.3412 39.7412 22.3765H42.2824C45.3883 22.3765 47.0824 26.1883 44.8941 28.3765ZM37.9765 17.0824C38.1883 18.4942 38.3294 19.9059 38.3294 21.3177H6.07061C6.07061 19.9059 6.21178 18.4942 6.42355 17.0824H37.9765ZM6.1412 22.8H38.3294C38.0471 27.8824 36.353 32.8942 33.1765 36.6353H11.2941C8.18825 33.0353 6.35296 28.0236 6.1412 22.8ZM45.7412 38.0471C45.6 39.6706 44.8941 41.153 43.6941 42.353C42.353 43.6942 40.5883 44.4 38.6824 44.4H9.17649C5.5059 44.4 2.47061 41.5765 2.11767 38.0471C17.2941 38.0471 29.8588 38.0471 45.7412 38.0471Z" fill="#1F120C"/>
<path d="M9.6706 27.2471L8.32942 27.6C8.82354 29.3647 9.45883 31.0588 10.3059 32.6118L11.5765 31.9059C10.6588 30.4941 10.0941 28.9412 9.6706 27.2471ZM10.9412 33.8118C11.153 34.1647 11.4353 34.5882 11.7177 34.9412L12.8471 34.0941C12.6353 33.7412 12.353 33.4588 12.1412 33.1059L10.9412 33.8118Z" fill="#1F120C"/>
<path d="M9.6706 6.84717H8.25883V9.24717H9.6706V6.84717Z" fill="#1F120C"/>
<path d="M9.6706 11.1528H8.25883V13.5528H9.6706V11.1528Z" fill="#1F120C"/>
<path d="M12.2824 9.45874H9.88237V10.8705H12.2824V9.45874Z" fill="#1F120C"/>
<path d="M7.97649 9.45874H5.57649V10.8705H7.97649V9.45874Z" fill="#1F120C"/>
<path d="M35.6471 2.18823H34.2353V4.58823H35.6471V2.18823Z" fill="#1F120C"/>
<path d="M35.6471 6.49414H34.2353V8.89414H35.6471V6.49414Z" fill="#1F120C"/>
<path d="M38.3294 4.80005H35.9294V6.21181H38.3294V4.80005Z" fill="#1F120C"/>
<path d="M34.0235 4.80005H31.6236V6.21181H34.0235V4.80005Z" fill="#1F120C"/>
<path d="M26.5412 7.34123C26.5412 6.28241 26.0471 5.7177 25.6235 5.29418C25.3412 4.94123 25.1294 4.72947 25.1294 4.23535H23.7177C23.7177 5.29418 24.2118 5.85888 24.6353 6.28241C24.9882 6.63535 25.1294 6.84712 25.1294 7.34123C25.1294 7.83535 24.9177 8.04712 24.6353 8.40006C24.2824 8.82359 23.7177 9.38829 23.7177 10.4471C23.7177 11.5059 24.2118 12.0706 24.6353 12.4942C24.9882 12.8471 25.1294 13.0589 25.1294 13.553H26.5412C26.5412 12.4942 26.0471 11.9295 25.6235 11.5059C25.2706 11.153 25.1294 10.9412 25.1294 10.4471C25.1294 9.953 25.3412 9.74123 25.6235 9.38829C26.0471 8.96476 26.5412 8.40006 26.5412 7.34123ZM20.3294 7.34123C20.3294 6.28241 19.8353 5.7177 19.4118 5.29418C19.1294 4.94123 18.9177 4.72947 18.9177 4.23535H17.5059C17.5059 5.29418 18 5.85888 18.4235 6.28241C18.7765 6.63535 18.9177 6.84712 18.9177 7.34123C18.9177 7.83535 18.7059 8.04712 18.4235 8.40006C18.0706 8.82359 17.5059 9.38829 17.5059 10.4471C17.5059 11.5059 18 12.0706 18.4235 12.4942C18.7765 12.8471 18.9177 13.0589 18.9177 13.553H20.3294C20.3294 12.4942 19.8353 11.9295 19.4118 11.5059C19.0588 11.153 18.9177 10.9412 18.9177 10.4471C18.9177 9.953 19.1294 9.74123 19.4118 9.38829C19.8353 8.96476 20.3294 8.40006 20.3294 7.34123Z" fill="#1F120C"/>
</g>
<defs>
<clipPath id="clip0_206_1167">
<rect width="48" height="48" fill="white"/>
</clipPath>
</defs>
</svg>
