<svg width="152" height="200" viewBox="0 0 152 200" fill="none" xmlns="http://www.w3.org/2000/svg">
<path fill-rule="evenodd" clip-rule="evenodd" d="M58.6823 0.253226C37.1121 1.27593 34.5174 1.73301 26.2521 5.96369C17.2424 10.5757 9.21847 19.9503 6.1223 29.482C4.43293 34.684 1.53559 50.1363 0.464698 59.6578C-0.383029 67.1961 -0.117295 70.9065 1.64646 76.166C3.44157 81.5186 5.33258 84.4851 9.8028 88.961C13.2966 92.4595 14.7872 93.5809 18.0139 95.1407C24.1688 98.1152 26.4205 98.4736 38.9961 98.4815L49.9538 98.4886L47.7704 99.9347C43.6773 102.646 39.9219 107.765 38.342 112.788L37.5551 115.291L24.1417 115.428C11.2133 115.56 10.6491 115.604 8.53308 116.646C5.79528 117.995 2.88063 120.785 1.61138 123.273C-0.216476 126.856 -0.284779 128.782 0.920378 142.73C5.09024 190.989 5.16837 191.743 6.19809 193.761C7.43646 196.187 10.3946 198.756 12.7675 199.467C14.1041 199.867 30.7265 200.007 76.0467 200C136.874 199.989 137.535 199.98 139.619 199.036C142.239 197.85 144.1 196.117 145.339 193.705C146.104 192.218 146.467 189.828 147.153 181.775C147.625 176.237 148.345 168.127 148.753 163.752C150.867 141.107 151.656 129.801 151.268 127.725C150.269 122.376 146.81 118.034 142.161 116.295C139.793 115.409 138.562 115.331 127.007 115.331H114.431L113.639 112.875C112.064 107.992 108.798 103.339 104.912 100.44L102.61 98.7225L114.214 98.482C125.413 98.2504 125.948 98.1962 129.56 96.9311C140.235 93.1917 148.599 84.1492 151.055 73.693C152.539 67.3734 151.709 56.9087 148.44 40.7102C147.401 35.564 145.958 29.8198 145.234 27.9457C140.234 15.0089 128.075 4.56251 114.891 1.8771C108.091 0.492293 74.26 -0.485027 58.6823 0.253226ZM102.893 6.32954C112.768 6.88721 116.669 7.69564 122.126 10.3137C130.718 14.4368 138.055 23.0034 140.747 32.0552C142.801 38.9619 146.155 60.164 146.164 66.3016C146.179 75.7529 140.18 85.5102 131.764 89.7203C125.161 93.0237 127.044 92.9236 74.355 92.7744L27.1031 92.6405L24.006 91.434C17.7173 88.9844 13.6704 85.841 10.3268 80.8079C4.91808 72.6661 4.64112 65.444 8.87414 42.9306C10.7928 32.7247 11.378 30.7185 13.8206 25.9732C18.3807 17.1128 26.181 10.7885 36.022 7.9726C39.6384 6.9382 41.9393 6.6865 53.0683 6.10779C66.9598 5.38591 87.8312 5.47901 102.893 6.32954ZM44.532 33.0222C39.0878 34.3307 33.563 38.9652 31.0694 44.3154C27.9546 50.9985 28.8537 57.5698 33.4479 61.7004C37.6085 65.4412 35.5906 65.2719 76.0584 65.2719C111.162 65.2719 112.04 65.2499 114.552 64.31C117.781 63.1016 120.966 59.7228 122.104 56.2963C124.69 48.5077 119.511 38.3865 110.847 34.3013L107.572 32.7569L76.9281 32.6788C60.0592 32.6358 45.4967 32.7901 44.532 33.0222ZM59.3841 40.0571C66.4831 41.9963 68.7152 49.9571 63.6391 55.2348C61.1797 57.792 58.6384 58.5616 55.2971 57.7597C52.2121 57.0201 49.1683 54.1616 48.3983 51.2816C47.1356 46.5606 50.3538 41.1149 55.0683 39.9949C57.2035 39.4878 57.3046 39.4892 59.3841 40.0571ZM96.8114 40.0571C103.91 41.9963 106.142 49.9571 101.066 55.2348C98.6069 57.792 96.0656 58.5616 92.7243 57.7597C89.6394 57.0201 86.5956 54.1616 85.8255 51.2816C84.5628 46.5606 87.7811 41.1149 92.4955 39.9949C94.6308 39.4878 94.7318 39.4892 96.8114 40.0571ZM53.77 42.7229C51.3452 44.2682 50.5845 45.4752 50.3646 48.1264C50.0011 52.5092 52.3623 55.4678 56.4971 55.8107C60.891 56.1752 63.8492 53.8187 64.1921 49.6792C64.4227 46.9012 63.7687 45.1879 61.7612 43.3128C60.0807 41.7423 55.8037 41.4265 53.77 42.7229ZM91.1973 42.7229C88.7725 44.2682 88.0117 45.4752 87.7919 48.1264C87.4284 52.5092 89.7895 55.4678 93.9243 55.8107C98.3183 56.1752 101.276 53.8187 101.619 49.6792C101.85 46.9012 101.196 45.1879 99.1885 43.3128C97.508 41.7423 93.231 41.4265 91.1973 42.7229ZM60.4494 44.4796C61.5797 45.2707 61.8534 46.5582 60.892 46.5582C59.9544 46.5582 58.2145 45.173 58.2145 44.4263C58.2145 43.5458 59.1478 43.5678 60.4494 44.4796ZM97.8766 44.4796C99.0069 45.2707 99.2806 46.5582 98.3192 46.5582C97.3817 46.5582 95.6418 45.173 95.6418 44.4263C95.6418 43.5458 96.5751 43.5678 97.8766 44.4796ZM54.3104 74.5487C52.468 76.5847 53.857 77.9808 59.5361 79.7997C64.6515 81.4386 71.4923 82.5764 76.2264 82.5764C80.9604 82.5764 87.8012 81.4386 92.9166 79.7997C98.686 77.9518 100.169 76.3751 97.9917 74.4046C97.0996 73.5971 96.9129 73.6186 92.6981 75.0165C81.3399 78.7826 70.8977 78.8018 60.0302 75.0755C55.2783 73.446 55.3059 73.4488 54.3104 74.5487ZM94.6476 101.709C96.205 102.194 98.3889 103.123 99.501 103.775C103.07 105.867 106.854 110.537 108.011 114.278L108.337 115.331H75.9924H43.6483L43.9669 114.278C45.1777 110.275 49.5515 105.204 53.5702 103.145C57.6461 101.056 59.0346 100.913 75.8339 100.869C90.2466 100.832 92.0937 100.914 94.6476 101.709ZM139.978 121.669C143.487 123.135 145.673 126.439 145.689 130.302C145.7 132.868 141.129 188.522 140.767 190.236C140.625 190.908 139.874 192.066 139.098 192.809L137.686 194.162H75.737H13.7874L12.3404 192.715C10.5382 190.912 10.7422 192.534 7.86968 157.158C5.41445 126.921 5.41258 127.287 8.03156 124.174C8.72162 123.354 10.1373 122.297 11.1773 121.824C12.9808 121.005 15.9456 120.965 75.6565 120.955C131.106 120.946 138.443 121.028 139.978 121.669ZM58.1495 133.535C57.2737 134.245 57.0449 134.883 57.0449 136.618C57.0449 139.496 58.2931 140.594 61.5624 140.594C64.5056 140.594 66.1678 139.159 66.1678 136.618C66.1678 134.076 64.5056 132.641 61.5624 132.641C59.9867 132.641 58.9032 132.925 58.1495 133.535ZM68.0392 133.343C68.0392 133.729 68.3549 134.044 68.7409 134.044C69.2976 134.044 69.4427 134.72 69.4427 137.319C69.4427 139.919 69.5877 140.594 70.1444 140.594C70.7133 140.594 70.8462 139.841 70.8462 136.618V132.641H69.4427C68.507 132.641 68.0392 132.875 68.0392 133.343ZM74.886 133.611C73.8858 134.397 73.6532 134.971 73.6532 136.652C73.6532 139.577 74.7789 140.594 78.0163 140.594C81.1976 140.594 82.5422 139.379 82.5422 136.504C82.5422 134.008 80.9698 132.641 78.0977 132.641C76.8042 132.641 75.6916 132.977 74.886 133.611ZM86.03 133.789C85.237 134.582 84.8814 135.458 84.8814 136.618C84.8814 139.185 86.539 140.594 89.5598 140.594C92.5807 140.594 94.2382 139.185 94.2382 136.618C94.2382 134.05 92.5807 132.641 89.5598 132.641C87.6548 132.641 86.9483 132.871 86.03 133.789ZM63.3607 134.234C63.3607 134.468 58.7708 137.787 58.4475 137.787C58.3193 137.787 58.2145 137.33 58.2145 136.772C58.2145 135.134 59.5511 134.044 61.5619 134.044C62.5514 134.044 63.3607 134.13 63.3607 134.234ZM80.5773 134.606C81.3516 135.38 81.2833 138.021 80.4716 138.694C80.1048 138.999 78.8954 139.182 77.7843 139.102L75.7641 138.957L78.2175 137.388C80.6152 135.854 81.0699 135.282 80.2811 134.794C79.8386 134.521 76.5277 136.597 75.6416 137.703C75.1461 138.322 75.0568 138.185 75.0568 136.801C75.0568 134.675 75.752 134.044 78.0977 134.044C79.1527 134.044 80.2685 134.297 80.5773 134.606ZM91.4312 134.234C91.4312 134.468 86.8412 137.787 86.5179 137.787C85.9612 137.787 86.3519 135.448 87.0199 134.779C87.6529 134.146 91.4312 133.68 91.4312 134.234ZM64.1696 138.583C63.7392 139.012 62.7783 139.199 61.4763 139.104L59.4519 138.957L61.9909 137.268L64.5303 135.58L64.6843 136.747C64.7694 137.389 64.5374 138.214 64.1696 138.583ZM92.8347 136.415C92.8347 138.484 92.0038 139.191 89.5711 139.191C88.3088 139.191 87.1472 138.983 86.99 138.728C86.8328 138.474 86.9783 138.365 87.3133 138.485C87.6482 138.605 88.8698 137.986 90.0277 137.107C92.5208 135.216 92.8347 135.139 92.8347 136.415ZM58.1495 147.571C57.2737 148.28 57.0449 148.918 57.0449 150.653C57.0449 153.584 58.2791 154.629 61.7411 154.629C63.8712 154.629 64.368 154.452 65.198 153.397C66.5444 151.685 66.4667 149.272 65.0192 147.825C63.5334 146.338 59.8393 146.202 58.1495 147.571ZM68.0392 147.378C68.0392 147.764 68.3549 148.08 68.7409 148.08C69.2976 148.08 69.4427 148.755 69.4427 151.355C69.4427 153.954 69.5877 154.629 70.1444 154.629C70.7133 154.629 70.8462 153.876 70.8462 150.653V146.676H69.4427C68.507 146.676 68.0392 146.91 68.0392 147.378ZM74.886 147.646C73.8858 148.432 73.6532 149.006 73.6532 150.687C73.6532 153.612 74.7789 154.629 78.0163 154.629C81.1976 154.629 82.5422 153.414 82.5422 150.54C82.5422 148.043 80.9698 146.676 78.0977 146.676C76.8042 146.676 75.6916 147.012 74.886 147.646ZM86.03 147.825C85.237 148.617 84.8814 149.493 84.8814 150.653C84.8814 153.282 86.5277 154.629 89.7385 154.629C91.9472 154.629 92.4319 154.46 93.2684 153.397C94.6149 151.685 94.5372 149.272 93.0897 147.825C92.1713 146.906 91.4649 146.676 89.5598 146.676C87.6548 146.676 86.9483 146.906 86.03 147.825ZM63.3607 148.27C63.3607 148.504 58.7708 151.822 58.4475 151.822C58.3193 151.822 58.2145 151.365 58.2145 150.807C58.2145 149.169 59.5511 148.08 61.5619 148.08C62.5514 148.08 63.3607 148.165 63.3607 148.27ZM80.5773 148.641C81.3516 149.415 81.2833 152.056 80.4716 152.73C80.1048 153.034 78.8954 153.218 77.7843 153.138L75.7641 152.992L78.2175 151.423C80.6152 149.889 81.0699 149.318 80.2811 148.83C79.8386 148.556 76.5277 150.632 75.6416 151.739C75.1461 152.358 75.0568 152.22 75.0568 150.836C75.0568 148.71 75.752 148.08 78.0977 148.08C79.1527 148.08 80.2685 148.332 80.5773 148.641ZM91.4312 148.27C91.4312 148.504 86.8412 151.822 86.5179 151.822C85.9612 151.822 86.3519 149.483 87.0199 148.815C87.6529 148.182 91.4312 147.715 91.4312 148.27ZM64.1696 152.618C63.7392 153.048 62.7783 153.234 61.4763 153.139L59.4519 152.992L61.9909 151.304L64.5303 149.615L64.6843 150.782C64.7694 151.424 64.5374 152.25 64.1696 152.618ZM92.8347 150.45C92.8347 152.519 92.0038 153.226 89.5711 153.226C88.3088 153.226 87.1472 153.018 86.99 152.763C86.8328 152.509 86.9783 152.4 87.3133 152.52C87.6482 152.641 88.8698 152.021 90.0277 151.143C92.5208 149.252 92.8347 149.174 92.8347 150.45ZM58.1495 161.606C57.2737 162.315 57.0449 162.953 57.0449 164.688C57.0449 167.566 58.2931 168.665 61.5624 168.665C64.5056 168.665 66.1678 167.229 66.1678 164.688C66.1678 162.147 64.5056 160.711 61.5624 160.711C59.9867 160.711 58.9032 160.995 58.1495 161.606ZM68.0392 161.413C68.0392 161.799 68.3549 162.115 68.7409 162.115C69.2976 162.115 69.4427 162.79 69.4427 165.39C69.4427 167.989 69.5877 168.665 70.1444 168.665C70.7133 168.665 70.8462 167.911 70.8462 164.688V160.711H69.4427C68.507 160.711 68.0392 160.945 68.0392 161.413ZM74.886 161.681C73.8858 162.468 73.6532 163.042 73.6532 164.722C73.6532 167.648 74.7789 168.665 78.0163 168.665C81.1976 168.665 82.5422 167.45 82.5422 164.575C82.5422 162.078 80.9698 160.711 78.0977 160.711C76.8042 160.711 75.6916 161.047 74.886 161.681ZM86.03 161.86C85.237 162.652 84.8814 163.528 84.8814 164.688C84.8814 167.256 86.539 168.665 89.5598 168.665C92.5807 168.665 94.2382 167.256 94.2382 164.688C94.2382 162.121 92.5807 160.711 89.5598 160.711C87.6548 160.711 86.9483 160.941 86.03 161.86ZM63.3607 162.305C63.3607 162.539 58.7708 165.858 58.4475 165.858C58.3193 165.858 58.2145 165.401 58.2145 164.842C58.2145 163.204 59.5511 162.115 61.5619 162.115C62.5514 162.115 63.3607 162.201 63.3607 162.305ZM80.5773 162.676C81.3516 163.451 81.2833 166.091 80.4716 166.765C80.1048 167.069 78.8954 167.253 77.7843 167.173L75.7641 167.027L78.2175 165.458C80.6152 163.925 81.0699 163.353 80.2811 162.865C79.8386 162.592 76.5277 164.667 75.6416 165.774C75.1461 166.393 75.0568 166.255 75.0568 164.871C75.0568 162.745 75.752 162.115 78.0977 162.115C79.1527 162.115 80.2685 162.368 80.5773 162.676ZM91.4312 162.305C91.4312 162.539 86.8412 165.858 86.5179 165.858C85.9612 165.858 86.3519 163.518 87.0199 162.85C87.6529 162.217 91.4312 161.75 91.4312 162.305ZM64.1696 166.653C63.7392 167.083 62.7783 167.269 61.4763 167.175L59.4519 167.027L61.9909 165.339L64.5303 163.65L64.6843 164.817C64.7694 165.459 64.5374 166.285 64.1696 166.653ZM92.8347 164.485C92.8347 166.554 92.0038 167.261 89.5711 167.261C88.3088 167.261 87.1472 167.053 86.99 166.798C86.8328 166.544 86.9783 166.435 87.3133 166.555C87.6482 166.676 88.8698 166.056 90.0277 165.178C92.5208 163.287 92.8347 163.209 92.8347 164.485ZM56.811 175.417C56.811 175.82 57.1268 176.15 57.5127 176.15C58.0695 176.15 58.2145 176.826 58.2145 179.425C58.2145 182.062 58.3549 182.7 58.935 182.7C59.5371 182.7 59.6335 182.063 59.5198 178.84C59.3855 175.016 59.3724 174.979 58.0975 174.833C57.1787 174.727 56.811 174.894 56.811 175.417ZM63.1058 175.895C62.3128 176.688 61.9572 177.563 61.9572 178.723C61.9572 181.352 63.6036 182.7 66.8143 182.7C69.023 182.7 69.5077 182.531 70.3442 181.467C71.6907 179.756 71.613 177.342 70.1655 175.895C69.2471 174.976 68.5407 174.747 66.6356 174.747C64.7306 174.747 64.0241 174.976 63.1058 175.895ZM74.886 175.716C73.8993 176.492 73.6532 177.083 73.6532 178.676C73.6532 181.467 75.0282 182.7 78.1408 182.7C81.4975 182.7 82.5422 181.813 82.5422 178.965C82.5422 176.088 81.1284 174.747 78.0977 174.747C76.8042 174.747 75.6916 175.083 74.886 175.716ZM87.2206 175.071C85.9383 175.529 85.3493 176.773 85.3493 179.02C85.3493 181.826 86.4108 182.7 89.8162 182.7C92.809 182.7 94.2382 181.436 94.2382 178.789C94.2382 176.271 92.5868 174.735 89.9318 174.784C88.8267 174.804 87.6066 174.933 87.2206 175.071ZM68.507 176.34C68.507 176.574 63.917 179.893 63.5937 179.893C63.037 179.893 63.4276 177.554 64.0957 176.885C64.7287 176.252 68.507 175.785 68.507 176.34ZM80.5773 176.712C80.8861 177.02 81.1387 177.926 81.1387 178.723C81.1387 180.703 80.3897 181.296 77.8933 181.296H75.7712L78.2208 179.646C80.6002 178.044 80.988 177.559 80.3775 176.948C80.0739 176.645 76.0224 179.214 75.4147 180.096C75.2257 180.37 75.068 179.816 75.0638 178.864C75.0591 177.703 75.3267 176.975 75.8755 176.655C77.0067 175.997 79.897 176.031 80.5773 176.712ZM91.4312 176.517C91.4312 176.719 90.7706 177.274 89.9631 177.752C89.1556 178.228 88.103 179.011 87.6239 179.49C86.7743 180.339 86.7528 180.322 86.7528 178.817C86.7528 177.968 87.0054 177.02 87.3142 176.712C87.9313 176.094 91.4312 175.929 91.4312 176.517ZM92.8347 178.694C92.8347 180.725 91.9524 181.386 89.4803 181.208L87.4602 181.062L89.9388 179.477C91.5496 178.447 92.3285 177.66 92.1634 177.23C92.0235 176.865 92.1166 176.697 92.372 176.855C92.6265 177.012 92.8347 177.84 92.8347 178.694ZM69.9105 178.52C69.9105 180.589 69.0796 181.296 66.6469 181.296C65.3846 181.296 64.223 181.088 64.0658 180.834C63.9086 180.58 64.0541 180.47 64.3891 180.59C64.724 180.711 65.9456 180.091 67.1035 179.213C69.5966 177.322 69.9105 177.244 69.9105 178.52Z" fill="#F4F4F4" fill-opacity="0.5"/>
</svg>
