<svg width="240" height="240" viewBox="0 0 240 240" fill="none" xmlns="http://www.w3.org/2000/svg">
<g opacity="0.25">
<mask id="mask0_314_1058" style="mask-type:alpha" maskUnits="userSpaceOnUse" x="0" y="0" width="240" height="240">
<rect width="240" height="240" rx="120" fill="#111416"/>
</mask>
<g mask="url(#mask0_314_1058)">
<line x1="208.92" y1="38.7655" x2="39.6634" y2="208.022" stroke="white" stroke-width="2"/>
<line x1="217.873" y1="47.7213" x2="48.6172" y2="216.977" stroke="white" stroke-width="2"/>
<line x1="226.827" y1="56.6759" x2="57.5706" y2="225.932" stroke="white" stroke-width="2"/>
<line x1="235.785" y1="65.6307" x2="66.5289" y2="234.887" stroke="white" stroke-width="2"/>
<line x1="244.738" y1="74.5875" x2="75.4822" y2="243.844" stroke="white" stroke-width="2"/>
<line x1="253.692" y1="83.5413" x2="84.4361" y2="252.798" stroke="white" stroke-width="2"/>
<line x1="262.65" y1="92.4981" x2="93.3938" y2="261.754" stroke="white" stroke-width="2"/>
<line x1="271.604" y1="101.453" x2="102.348" y2="270.709" stroke="white" stroke-width="2"/>
<line x1="280.562" y1="110.407" x2="111.305" y2="279.663" stroke="white" stroke-width="2"/>
<line x1="289.963" y1="120.108" x2="120.706" y2="289.364" stroke="white" stroke-width="2"/>
<line x1="199.961" y1="29.8106" x2="30.7051" y2="199.067" stroke="white" stroke-width="2"/>
<line x1="191.008" y1="20.8558" x2="21.7515" y2="190.112" stroke="white" stroke-width="2"/>
<line x1="182.054" y1="11.8988" x2="12.7976" y2="181.155" stroke="white" stroke-width="2"/>
<line x1="173.096" y1="2.94514" x2="3.84013" y2="172.201" stroke="white" stroke-width="2"/>
<line x1="164.142" y1="-6.00969" x2="-5.11372" y2="163.246" stroke="white" stroke-width="2"/>
<line x1="155.184" y1="-14.9665" x2="-14.0717" y2="154.29" stroke="white" stroke-width="2"/>
<line x1="146.231" y1="-23.9201" x2="-23.0253" y2="145.336" stroke="white" stroke-width="2"/>
<line x1="137.277" y1="-32.8769" x2="-31.979" y2="136.379" stroke="white" stroke-width="2"/>
<line x1="128.319" y1="-41.8317" x2="-40.9369" y2="127.424" stroke="white" stroke-width="2"/>
<line x1="119.366" y1="-50.7853" x2="-49.8906" y2="118.471" stroke="white" stroke-width="2"/>
</g>
</g>
</svg>
