<svg width="170" height="170" viewBox="0 0 170 170" fill="none" xmlns="http://www.w3.org/2000/svg">
<g opacity="0.25">
<mask id="mask0_314_1084" style="mask-type:alpha" maskUnits="userSpaceOnUse" x="0" y="0" width="171" height="170">
<rect x="0.000244141" width="170" height="170" rx="85" fill="#111416"/>
</mask>
<g mask="url(#mask0_314_1084)">
<line x1="148.19" y1="27.6651" x2="28.3" y2="147.555" stroke="white" stroke-width="2"/>
<line x1="154.532" y1="34.0069" x2="34.6418" y2="153.897" stroke="white" stroke-width="2"/>
<line x1="160.873" y1="40.3516" x2="40.9836" y2="160.241" stroke="white" stroke-width="2"/>
<line x1="167.221" y1="46.6964" x2="47.3307" y2="166.586" stroke="white" stroke-width="2"/>
<line x1="173.563" y1="53.0389" x2="53.673" y2="172.929" stroke="white" stroke-width="2"/>
<line x1="179.905" y1="59.3814" x2="60.0154" y2="179.271" stroke="white" stroke-width="2"/>
<line x1="186.252" y1="65.7242" x2="66.3625" y2="185.614" stroke="white" stroke-width="2"/>
<line x1="192.594" y1="72.0687" x2="72.7043" y2="191.958" stroke="white" stroke-width="2"/>
<line x1="198.937" y1="78.411" x2="79.0475" y2="198.301" stroke="white" stroke-width="2"/>
<line x1="205.597" y1="85.2808" x2="85.7073" y2="205.171" stroke="white" stroke-width="2"/>
<line x1="141.846" y1="21.3221" x2="21.9563" y2="141.212" stroke="white" stroke-width="2"/>
<line x1="135.503" y1="14.979" x2="15.6134" y2="134.869" stroke="white" stroke-width="2"/>
<line x1="129.161" y1="8.6346" x2="9.27112" y2="128.524" stroke="white" stroke-width="2"/>
<line x1="122.818" y1="2.29231" x2="2.92792" y2="122.182" stroke="white" stroke-width="2"/>
<line x1="116.476" y1="-4.05217" x2="-3.41388" y2="115.838" stroke="white" stroke-width="2"/>
<line x1="110.129" y1="-10.3949" x2="-9.76101" y2="109.495" stroke="white" stroke-width="2"/>
<line x1="103.787" y1="-16.7372" x2="-16.1028" y2="103.153" stroke="white" stroke-width="2"/>
<line x1="97.4441" y1="-23.0801" x2="-22.4456" y2="96.8097" stroke="white" stroke-width="2"/>
<line x1="91.097" y1="-29.4245" x2="-28.7928" y2="90.4653" stroke="white" stroke-width="2"/>
<line x1="84.7552" y1="-35.7668" x2="-35.1346" y2="84.123" stroke="white" stroke-width="2"/>
</g>
</g>
</svg>
