<svg width="49" height="48" viewBox="0 0 49 48" fill="none" xmlns="http://www.w3.org/2000/svg">
<path d="M46.9999 15C46.9999 11.6918 44.3082 9 40.9999 9C37.6917 9 34.9999 11.6918 34.9999 15C35.0004 15.8524 35.1831 16.6949 35.5357 17.471C35.8883 18.2471 36.4027 18.9389 37.0444 19.5H33.0604L28.0302 14.4697C27.9606 14.4 27.8779 14.3447 27.787 14.307C27.696 14.2693 27.5984 14.2498 27.4999 14.2498C27.4014 14.2498 27.3039 14.2693 27.2129 14.307C27.1219 14.3447 27.0393 14.4 26.9697 14.4697L23.9697 17.4697C23.9 17.5393 23.8447 17.622 23.8069 17.713C23.7692 17.804 23.7498 17.9015 23.7498 18C23.7498 18.0985 23.7692 18.196 23.8069 18.287C23.8447 18.378 23.9 18.4607 23.9697 18.5303L30.7197 25.2803C30.7892 25.35 30.8719 25.4054 30.9629 25.4431C31.0539 25.4808 31.1514 25.5001 31.2499 25.5H37.2499V30.75H24.4009L28.1239 25.1663L26.8759 24.3345L22.5987 30.75H20.7499V27C20.7499 26.8011 20.6709 26.6103 20.5303 26.4697C20.3896 26.329 20.1989 26.25 19.9999 26.25H13.9999V23.25C13.9999 21.669 13.0129 20.3197 11.6254 19.7692C13.0647 18.6727 13.9999 16.9455 13.9999 15C13.9999 11.6918 11.3082 9 7.99994 9C4.69169 9 1.99994 11.6918 1.99994 15C1.99994 16.9455 2.93519 18.6727 4.37444 19.7692C2.98694 20.3197 1.99994 21.669 1.99994 23.25V33.75C1.99994 35.8177 3.68219 37.5 5.74994 37.5V46.5H7.24994V37.5H12.4999V45.75C12.4999 45.9489 12.579 46.1397 12.7196 46.2803C12.8603 46.421 13.051 46.5 13.2499 46.5H18.4999C18.6989 46.5 18.8896 46.421 19.0303 46.2803C19.1709 46.1397 19.2499 45.9489 19.2499 45.75V34.5C19.251 33.6882 18.9871 32.8982 18.4984 32.25H23.7499V45H20.7499V46.5H28.2499V45H25.2499V32.25H30.5194C30.0231 32.8953 29.7527 33.6859 29.7499 34.5V45.75C29.7499 45.9489 29.829 46.1397 29.9696 46.2803C30.1103 46.421 30.301 46.5 30.4999 46.5H35.7499C35.9489 46.5 36.1396 46.421 36.2803 46.2803C36.4209 46.1397 36.4999 45.9489 36.4999 45.75V37.5H41.7499V46.5H43.2499V37.5C45.3177 37.5 46.9999 35.8177 46.9999 33.75V23.25C46.9999 21.669 46.0129 20.3197 44.6254 19.7692C46.0647 18.6727 46.9999 16.9455 46.9999 15ZM36.4999 15C36.4999 12.5182 38.5182 10.5 40.9999 10.5C43.4817 10.5 45.4999 12.5182 45.4999 15C45.4999 17.4818 43.4817 19.5 40.9999 19.5C38.5182 19.5 36.4999 17.4818 36.4999 15ZM3.49994 15C3.49994 12.5182 5.51819 10.5 7.99994 10.5C10.4817 10.5 12.4999 12.5182 12.4999 15C12.4999 17.4818 10.4817 19.5 7.99994 19.5C5.51819 19.5 3.49994 17.4818 3.49994 15ZM9.49994 30.75V24.75H7.99994V31.5C7.99994 31.6989 8.07896 31.8897 8.21961 32.0303C8.36026 32.171 8.55103 32.25 8.74994 32.25H15.4999C16.7404 32.25 17.7499 33.2595 17.7499 34.5V45H13.9999V36.75C13.9999 36.5511 13.9209 36.3603 13.7803 36.2197C13.6396 36.079 13.4489 36 13.2499 36H5.74994C4.50944 36 3.49994 34.9905 3.49994 33.75V23.25C3.49994 22.0095 4.50944 21 5.74994 21H10.2499C11.4904 21 12.4999 22.0095 12.4999 23.25V27C12.4999 27.1989 12.579 27.3897 12.7196 27.5303C12.8603 27.671 13.051 27.75 13.2499 27.75H19.2499V30.75H9.49994ZM43.2499 21C44.4904 21 45.4999 22.0095 45.4999 23.25V33.75C45.4999 34.9905 44.4904 36 43.2499 36H35.7499C35.551 36 35.3603 36.079 35.2196 36.2197C35.079 36.3603 34.9999 36.5511 34.9999 36.75V45H31.2499V34.5C31.2499 33.2595 32.2594 32.25 33.4999 32.25H37.9999C38.1989 32.25 38.3896 32.171 38.5303 32.0303C38.6709 31.8897 38.7499 31.6989 38.7499 31.5V24.75C38.7499 24.5511 38.6709 24.3603 38.5303 24.2197C38.3896 24.079 38.1989 24 37.9999 24H31.5604L25.5604 18L27.4999 16.0605L32.2197 20.7803C32.2892 20.85 32.3719 20.9054 32.4629 20.9431C32.5539 20.9808 32.6514 21.0001 32.7499 21H43.2499Z" fill="#1F120C"/>
<path d="M18.2127 17.193C18.3498 17.2498 18.5006 17.2646 18.6461 17.2357C18.7916 17.2067 18.9253 17.1352 19.0302 17.0303L24.0604 12H31.9999C33.2404 12 34.2499 10.9905 34.2499 9.75V3.75C34.2499 2.5095 33.2404 1.5 31.9999 1.5H16.9999C15.7594 1.5 14.7499 2.5095 14.7499 3.75V9.75C14.7499 10.9905 15.7594 12 16.9999 12H17.7499V16.5C17.7499 16.803 17.9322 17.0775 18.2127 17.193ZM16.9999 10.5C16.801 10.5 16.6103 10.421 16.4696 10.2803C16.329 10.1397 16.2499 9.94891 16.2499 9.75V3.75C16.2499 3.55109 16.329 3.36032 16.4696 3.21967C16.6103 3.07902 16.801 3 16.9999 3H31.9999C32.1989 3 32.3896 3.07902 32.5303 3.21967C32.6709 3.36032 32.7499 3.55109 32.7499 3.75V9.75C32.7499 9.94891 32.6709 10.1397 32.5303 10.2803C32.3896 10.421 32.1989 10.5 31.9999 10.5H23.7499C23.6514 10.4999 23.5539 10.5192 23.4629 10.5569C23.3719 10.5946 23.2892 10.65 23.2197 10.7198L19.2499 14.6895V11.25C19.2499 11.0511 19.1709 10.8603 19.0303 10.7197C18.8896 10.579 18.6989 10.5 18.4999 10.5H16.9999Z" fill="#1F120C"/>
<path d="M17.7499 4.5H22.2499V6H17.7499V4.5ZM17.7499 7.5H31.2499V9H17.7499V7.5ZM23.7499 4.5H31.2499V6H23.7499V4.5Z" fill="#1F120C"/>
</svg>
