<svg width="387" height="387" viewBox="0 0 387 387" fill="none" xmlns="http://www.w3.org/2000/svg">
<path d="M386.5 193.5C386.5 300.091 300.091 386.5 193.5 386.5C86.909 386.5 0.5 300.091 0.5 193.5C0.5 86.909 86.909 0.5 193.5 0.5C300.091 0.5 386.5 86.909 386.5 193.5Z" fill="#FFDFD3" stroke="#F76943"/>
<path d="M193.5 354.098C282.196 354.098 354.099 282.196 354.099 193.5C354.099 104.804 282.196 32.9019 193.5 32.9019C104.804 32.9019 32.9019 104.804 32.9019 193.5C32.9019 282.196 104.804 354.098 193.5 354.098Z" fill="#FFCEBD"/>
<path d="M360.954 128.886L321.132 279.743C320.705 281.362 319.963 282.881 318.949 284.213C317.935 285.546 316.668 286.665 315.221 287.508C313.774 288.35 312.176 288.9 310.516 289.125C308.857 289.35 307.17 289.245 305.551 288.818L192.772 259.048C192.698 259.028 192.623 259.008 192.55 258.987C189.334 258.078 186.604 255.941 184.948 253.037C183.293 250.134 182.845 246.696 183.7 243.465L223.522 92.6085C224.385 89.3388 226.511 86.5457 229.433 84.8436C232.355 83.1415 235.833 82.6698 239.103 83.5324L351.882 113.302C353.501 113.73 355.019 114.472 356.352 115.487C357.684 116.501 358.803 117.768 359.645 119.215C360.488 120.663 361.037 122.261 361.261 123.921C361.486 125.58 361.381 127.267 360.954 128.886Z" fill="#DC5F3D"/>
<path d="M356.423 146.052L321.132 279.743C320.27 283.013 318.143 285.806 315.221 287.508C312.299 289.21 308.821 289.682 305.551 288.819L207.088 262.828C317.681 286.647 356.423 146.052 356.423 146.052Z" fill="#DC5F3D"/>
<path d="M237.981 93.6902L199.666 238.839L205.822 249.41L307.322 276.203L347.845 122.691L237.981 93.6902Z" fill="white"/>
<path d="M205.822 249.41L199.666 238.838L208.03 241.046L205.822 249.41Z" fill="#FFAE93"/>
<path d="M297.982 253.341C302.669 248.654 302.669 241.056 297.982 236.369C293.296 231.683 285.697 231.683 281.011 236.369C276.324 241.056 276.324 248.654 281.011 253.341C285.697 258.028 293.296 258.028 297.982 253.341Z" fill="#FF8C6B"/>
<path d="M286.171 250.484L282.722 243.977L285.498 242.506L287.243 245.798L295.295 239.879L297.156 242.41L286.171 250.484Z" fill="white"/>
<path d="M230.034 225.883L269.49 236.302C269.755 236.372 270.031 236.389 270.303 236.353C270.574 236.316 270.836 236.226 271.073 236.088C271.309 235.95 271.517 235.767 271.683 235.549C271.849 235.331 271.97 235.082 272.04 234.817C272.182 234.282 272.105 233.713 271.826 233.235C271.548 232.756 271.091 232.408 270.555 232.267L231.099 221.847C230.835 221.778 230.558 221.76 230.287 221.797C230.015 221.834 229.754 221.924 229.517 222.062C229.28 222.2 229.073 222.383 228.907 222.601C228.74 222.819 228.619 223.067 228.549 223.332C228.479 223.597 228.462 223.873 228.499 224.145C228.535 224.417 228.625 224.678 228.763 224.915C228.901 225.152 229.084 225.359 229.302 225.525C229.52 225.691 229.769 225.813 230.034 225.883Z" fill="#DC5F3D"/>
<path d="M220.081 234.111L266.81 246.451C267.345 246.592 267.914 246.515 268.393 246.236C268.871 245.958 269.219 245.501 269.36 244.966C269.502 244.431 269.425 243.861 269.146 243.383C268.868 242.905 268.411 242.557 267.876 242.415L221.146 230.075C220.611 229.934 220.042 230.011 219.564 230.289C219.085 230.568 218.737 231.025 218.596 231.56C218.526 231.825 218.509 232.101 218.546 232.373C218.582 232.644 218.672 232.906 218.81 233.143C218.948 233.38 219.131 233.587 219.349 233.753C219.567 233.919 219.816 234.041 220.081 234.111Z" fill="#FF8C6B"/>
<path d="M307.031 219.076C311.718 214.389 311.718 206.791 307.031 202.104C302.345 197.418 294.746 197.418 290.06 202.104C285.373 206.791 285.373 214.389 290.06 219.076C294.746 223.762 302.345 223.762 307.031 219.076Z" fill="#FF8C6B"/>
<path d="M276.925 208.15L237.469 197.73C237.204 197.66 236.927 197.643 236.656 197.68C236.384 197.717 236.123 197.807 235.886 197.944C235.649 198.082 235.442 198.266 235.276 198.484C235.11 198.702 234.988 198.95 234.918 199.215V199.215C234.848 199.48 234.831 199.756 234.868 200.028C234.904 200.299 234.994 200.561 235.132 200.798C235.27 201.035 235.453 201.242 235.671 201.408C235.889 201.574 236.138 201.696 236.403 201.766L275.859 212.185C276.394 212.326 276.964 212.249 277.442 211.971C277.92 211.693 278.268 211.235 278.41 210.7C278.48 210.435 278.497 210.159 278.46 209.888C278.423 209.616 278.333 209.354 278.195 209.118C278.057 208.881 277.874 208.673 277.656 208.507C277.438 208.341 277.19 208.22 276.925 208.15Z" fill="#FF8C6B"/>
<path d="M279.604 198.001L232.875 185.661C232.61 185.591 232.334 185.574 232.063 185.611C231.791 185.647 231.529 185.737 231.292 185.875C231.056 186.013 230.848 186.196 230.682 186.414C230.516 186.632 230.395 186.881 230.325 187.146C230.183 187.681 230.261 188.25 230.539 188.729C230.817 189.207 231.275 189.555 231.81 189.696L278.539 202.036C278.804 202.106 279.08 202.124 279.351 202.087C279.623 202.05 279.885 201.96 280.121 201.822C280.358 201.684 280.566 201.501 280.732 201.283C280.898 201.065 281.019 200.817 281.089 200.552H281.089C281.23 200.017 281.153 199.447 280.875 198.969C280.596 198.491 280.139 198.143 279.604 198.001Z" fill="#DC5F3D"/>
<path d="M284.473 206.873C285.208 204.09 286.752 201.587 288.909 199.682C291.067 197.776 293.741 196.552 296.594 196.166C299.446 195.78 302.349 196.249 304.936 197.513C307.522 198.777 309.675 200.779 311.124 203.267C312.572 205.754 313.25 208.616 313.072 211.489C312.894 214.362 311.868 217.118 310.124 219.408C308.38 221.698 305.996 223.42 303.274 224.355C300.551 225.29 297.613 225.397 294.829 224.662C291.1 223.672 287.915 221.244 285.973 217.909C284.032 214.574 283.492 210.605 284.473 206.873ZM285.403 207.119C284.716 209.718 284.816 212.463 285.689 215.005C286.563 217.548 288.17 219.775 290.309 221.404C292.448 223.033 295.022 223.991 297.705 224.157C300.389 224.323 303.061 223.69 305.385 222.337C307.708 220.985 309.578 218.973 310.759 216.558C311.939 214.142 312.377 211.431 312.016 208.767C311.656 206.102 310.513 203.605 308.733 201.59C306.953 199.575 304.616 198.133 302.016 197.447C298.531 196.53 294.824 197.034 291.709 198.847C288.595 200.661 286.327 203.635 285.403 207.119Z" fill="#DC5F3D"/>
<path d="M307.594 188.325C314.222 188.325 319.595 182.952 319.595 176.324C319.595 169.696 314.222 164.323 307.594 164.323C300.967 164.323 295.594 169.696 295.594 176.324C295.594 182.952 300.967 188.325 307.594 188.325Z" fill="#FF8C6B"/>
<path d="M304.262 181.951L300.813 175.444L303.589 173.973L305.334 177.265L313.386 171.346L315.247 173.877L304.262 181.951Z" fill="white"/>
<path d="M260.423 160.598L287.587 167.772C288.123 167.913 288.692 167.836 289.17 167.557C289.648 167.279 289.997 166.822 290.138 166.287C290.208 166.022 290.225 165.746 290.188 165.474C290.151 165.202 290.062 164.941 289.924 164.704C289.786 164.467 289.603 164.26 289.385 164.094C289.167 163.928 288.918 163.806 288.653 163.736L261.489 156.563C260.954 156.422 260.385 156.499 259.906 156.777C259.428 157.055 259.08 157.513 258.939 158.048C258.869 158.313 258.851 158.589 258.888 158.86C258.925 159.132 259.015 159.394 259.153 159.63C259.291 159.867 259.474 160.075 259.692 160.241C259.91 160.407 260.158 160.528 260.423 160.598Z" fill="#FF8C6B"/>
<path d="M245.452 167.5L284.908 177.92C285.173 177.99 285.449 178.007 285.72 177.97C285.992 177.933 286.254 177.843 286.49 177.706C286.727 177.568 286.935 177.385 287.101 177.167C287.267 176.949 287.388 176.7 287.458 176.435H287.458C287.599 175.9 287.522 175.331 287.244 174.852C286.966 174.374 286.508 174.026 285.973 173.885L246.517 163.465C246.253 163.395 245.976 163.378 245.705 163.415C245.433 163.451 245.172 163.541 244.935 163.679C244.698 163.817 244.491 164 244.325 164.218C244.158 164.436 244.037 164.685 243.967 164.95L243.967 164.95C243.826 165.485 243.903 166.054 244.181 166.532C244.46 167.011 244.917 167.359 245.452 167.5Z" fill="#DC5F3D"/>
<path d="M324.477 153.014C329.163 148.328 329.163 140.729 324.477 136.043C319.79 131.356 312.192 131.356 307.505 136.043C302.819 140.729 302.819 148.328 307.505 153.014C312.192 157.701 319.79 157.701 324.477 153.014Z" fill="#FF8C6B"/>
<path d="M312.662 150.156L309.213 143.649L311.989 142.178L313.734 145.47L321.786 139.551L323.647 142.083L312.662 150.156Z" fill="white"/>
<path d="M256.528 125.555L295.984 135.975C296.519 136.116 297.089 136.039 297.567 135.761C298.045 135.482 298.393 135.025 298.535 134.49C298.605 134.225 298.622 133.949 298.585 133.677C298.548 133.406 298.458 133.144 298.321 132.907C298.183 132.671 298 132.463 297.782 132.297C297.563 132.131 297.315 132.01 297.05 131.94L257.594 121.52C257.329 121.45 257.053 121.433 256.781 121.47C256.51 121.507 256.248 121.596 256.011 121.734C255.775 121.872 255.567 122.055 255.401 122.273C255.235 122.491 255.114 122.74 255.044 123.005C254.902 123.54 254.979 124.109 255.258 124.588C255.536 125.066 255.993 125.414 256.528 125.555Z" fill="#DC5F3D"/>
<path d="M246.576 133.783L293.304 146.123C293.84 146.265 294.409 146.188 294.887 145.909C295.366 145.631 295.714 145.174 295.855 144.638C295.925 144.373 295.942 144.097 295.905 143.826C295.869 143.554 295.779 143.293 295.641 143.056C295.503 142.819 295.32 142.612 295.102 142.445C294.884 142.279 294.635 142.158 294.37 142.088L247.641 129.748C247.376 129.678 247.1 129.661 246.829 129.698C246.557 129.734 246.295 129.824 246.059 129.962C245.822 130.1 245.614 130.283 245.448 130.501C245.282 130.719 245.161 130.968 245.091 131.233C245.021 131.498 245.004 131.774 245.04 132.045C245.077 132.317 245.167 132.579 245.305 132.815C245.443 133.052 245.626 133.26 245.844 133.426C246.062 133.592 246.311 133.713 246.576 133.783Z" fill="#FF8C6B"/>
<path d="M317.64 99.7416L306.677 96.8475C306.371 96.767 306.085 96.6271 305.834 96.4359C305.583 96.2446 305.372 96.0058 305.213 95.7331C305.054 95.4603 304.951 95.1589 304.908 94.8461C304.866 94.5333 304.886 94.2153 304.966 93.9101C305.188 93.0612 305.064 92.1592 304.623 91.4011C304.181 90.643 303.458 90.0904 302.61 89.8641L293.523 87.4654C292.674 87.244 291.772 87.3675 291.014 87.809C290.256 88.2504 289.704 88.9739 289.477 89.8215V89.8215C289.315 90.4378 288.914 90.9643 288.363 91.2851C287.812 91.6059 287.156 91.6947 286.54 91.532L275.577 88.6382C275.27 88.5568 274.949 88.5368 274.634 88.5793C274.318 88.6219 274.015 88.7262 273.74 88.8863C273.465 89.0464 273.224 89.2592 273.031 89.5124C272.839 89.7656 272.698 90.0543 272.617 90.362L268.9 104.442C268.789 104.863 268.793 105.307 268.913 105.726C269.032 106.145 269.263 106.523 269.581 106.822C269.873 107.102 270.232 107.302 270.624 107.404L312.687 118.507C313.308 118.671 313.969 118.581 314.524 118.257C315.079 117.933 315.483 117.403 315.646 116.781L319.363 102.701C319.444 102.394 319.464 102.074 319.422 101.758C319.379 101.443 319.275 101.14 319.115 100.865C318.955 100.59 318.742 100.349 318.489 100.156C318.236 99.9638 317.948 99.8228 317.64 99.7416Z" fill="#FFAE93"/>
<path d="M312.803 116.937C312.744 116.937 312.685 116.93 312.627 116.915L312.803 116.241L312.624 116.914L309.943 116.206C309.764 116.159 309.612 116.043 309.519 115.883C309.427 115.724 309.401 115.534 309.448 115.356C309.495 115.177 309.611 115.025 309.771 114.932C309.93 114.839 310.12 114.813 310.298 114.86L312.972 115.566C313.135 115.608 313.278 115.708 313.374 115.848C313.469 115.988 313.51 116.158 313.489 116.326C313.469 116.494 313.388 116.648 313.261 116.761C313.135 116.873 312.972 116.936 312.803 116.937ZM306.11 115.171C306.05 115.171 305.99 115.163 305.932 115.148L303.259 114.442C303.08 114.395 302.928 114.279 302.835 114.119C302.742 113.959 302.717 113.77 302.764 113.591C302.811 113.413 302.927 113.26 303.087 113.167C303.246 113.074 303.436 113.049 303.614 113.096L306.288 113.801C306.451 113.845 306.593 113.946 306.688 114.086C306.782 114.226 306.822 114.396 306.8 114.564C306.779 114.732 306.697 114.886 306.57 114.997C306.443 115.109 306.28 115.171 306.11 115.171ZM314.582 113.629C314.475 113.629 314.37 113.604 314.275 113.557C314.179 113.51 314.095 113.442 314.03 113.357C313.965 113.273 313.92 113.175 313.899 113.07C313.878 112.966 313.881 112.858 313.908 112.755L314.614 110.081C314.637 109.993 314.678 109.91 314.733 109.837C314.789 109.765 314.858 109.703 314.937 109.657C315.016 109.611 315.103 109.581 315.194 109.569C315.284 109.557 315.376 109.563 315.465 109.586C315.553 109.609 315.636 109.65 315.709 109.705C315.782 109.761 315.843 109.83 315.889 109.909C315.935 109.988 315.965 110.075 315.977 110.166C315.989 110.256 315.984 110.348 315.96 110.437L315.255 113.11C315.215 113.259 315.128 113.39 315.006 113.484C314.885 113.578 314.736 113.629 314.582 113.629ZM299.427 113.407C299.367 113.407 299.307 113.399 299.249 113.383L296.575 112.678C296.397 112.63 296.244 112.514 296.152 112.355C296.059 112.195 296.033 112.005 296.08 111.827C296.128 111.649 296.243 111.496 296.403 111.403C296.562 111.31 296.752 111.284 296.93 111.331L299.604 112.037C299.767 112.08 299.91 112.181 300.004 112.322C300.098 112.462 300.138 112.632 300.117 112.8C300.095 112.967 300.013 113.121 299.886 113.233C299.759 113.345 299.596 113.406 299.427 113.407ZM292.743 111.642C292.683 111.642 292.623 111.634 292.565 111.619L289.891 110.913C289.713 110.866 289.561 110.75 289.468 110.59C289.375 110.431 289.349 110.241 289.397 110.063C289.444 109.884 289.56 109.732 289.719 109.639C289.878 109.546 290.068 109.52 290.247 109.567L292.92 110.273C293.084 110.316 293.226 110.417 293.32 110.557C293.414 110.698 293.454 110.868 293.433 111.035C293.411 111.203 293.329 111.357 293.202 111.469C293.075 111.58 292.912 111.642 292.743 111.642ZM286.059 109.878C285.999 109.878 285.939 109.87 285.881 109.855L283.207 109.149C283.119 109.126 283.036 109.085 282.963 109.03C282.891 108.974 282.829 108.905 282.783 108.826C282.737 108.747 282.707 108.66 282.695 108.569C282.683 108.479 282.689 108.386 282.712 108.298C282.735 108.21 282.776 108.127 282.831 108.054C282.887 107.981 282.956 107.92 283.035 107.874C283.114 107.828 283.201 107.798 283.292 107.786C283.382 107.774 283.474 107.779 283.563 107.803L286.236 108.508C286.4 108.552 286.542 108.653 286.636 108.793C286.731 108.933 286.771 109.103 286.749 109.271C286.727 109.439 286.645 109.593 286.518 109.704C286.391 109.816 286.228 109.878 286.059 109.878ZM279.375 108.114C279.315 108.114 279.255 108.106 279.197 108.09L276.523 107.385C276.345 107.337 276.193 107.221 276.1 107.062C276.007 106.902 275.982 106.712 276.029 106.534C276.076 106.356 276.192 106.203 276.351 106.11C276.511 106.017 276.7 105.991 276.879 106.038L279.552 106.744C279.716 106.787 279.858 106.888 279.952 107.029C280.047 107.169 280.087 107.339 280.065 107.507C280.043 107.674 279.961 107.828 279.834 107.94C279.708 108.052 279.544 108.113 279.375 108.114ZM316.346 106.945C316.24 106.945 316.134 106.921 316.039 106.873C315.943 106.826 315.86 106.758 315.795 106.674C315.73 106.589 315.685 106.491 315.664 106.386C315.642 106.282 315.646 106.174 315.673 106.071L316.378 103.397C316.402 103.309 316.442 103.226 316.498 103.153C316.553 103.081 316.622 103.02 316.701 102.974C316.78 102.928 316.867 102.898 316.958 102.885C317.049 102.873 317.141 102.879 317.229 102.902C317.317 102.925 317.4 102.966 317.473 103.021C317.546 103.077 317.607 103.146 317.653 103.225C317.699 103.304 317.729 103.391 317.741 103.482C317.754 103.572 317.748 103.664 317.725 103.753L317.019 106.426C316.98 106.575 316.892 106.706 316.771 106.8C316.649 106.894 316.5 106.945 316.346 106.945ZM272.691 106.349C272.631 106.349 272.571 106.341 272.513 106.326L271.472 106.051C271.271 105.998 271.083 105.906 270.917 105.78C270.752 105.655 270.613 105.497 270.509 105.318C270.405 105.139 270.337 104.94 270.309 104.734C270.281 104.529 270.294 104.319 270.347 104.119L270.423 103.83C270.47 103.652 270.587 103.5 270.746 103.407C270.906 103.314 271.095 103.288 271.274 103.335C271.452 103.383 271.605 103.498 271.698 103.658C271.791 103.817 271.816 104.007 271.77 104.185L271.693 104.475C271.689 104.49 271.687 104.506 271.687 104.522C271.687 104.563 271.701 104.604 271.726 104.637C271.752 104.67 271.787 104.694 271.827 104.705L272.869 104.98C273.032 105.023 273.174 105.124 273.269 105.264C273.363 105.405 273.403 105.575 273.381 105.742C273.36 105.91 273.278 106.064 273.151 106.176C273.024 106.287 272.86 106.349 272.691 106.349ZM314.96 101.785C314.899 101.785 314.84 101.777 314.781 101.762L312.108 101.056C311.93 101.009 311.777 100.893 311.684 100.733C311.592 100.574 311.566 100.384 311.613 100.205C311.66 100.027 311.776 99.8745 311.936 99.7816C312.095 99.6887 312.285 99.6628 312.463 99.7098L315.137 100.415C315.3 100.459 315.443 100.56 315.537 100.7C315.631 100.841 315.671 101.01 315.65 101.178C315.628 101.346 315.546 101.5 315.419 101.611C315.292 101.723 315.129 101.785 314.96 101.785ZM272.156 100.694C272.049 100.694 271.944 100.669 271.848 100.622C271.753 100.575 271.669 100.507 271.604 100.422C271.539 100.338 271.494 100.24 271.473 100.135C271.452 100.031 271.455 99.923 271.482 99.8199L272.188 97.1464C272.211 97.0579 272.251 96.9749 272.307 96.902C272.362 96.8292 272.431 96.768 272.51 96.722C272.589 96.6759 272.677 96.6458 272.767 96.6335C272.858 96.6212 272.95 96.6269 273.039 96.6503C273.127 96.6736 273.21 96.7142 273.283 96.7696C273.356 96.825 273.417 96.8943 273.463 96.9733C273.509 97.0524 273.539 97.1398 273.551 97.2304C273.563 97.3211 273.557 97.4132 273.534 97.5017L272.828 100.175C272.789 100.324 272.702 100.455 272.58 100.549C272.458 100.643 272.309 100.694 272.156 100.694ZM308.276 100.021C308.216 100.021 308.156 100.013 308.098 99.9975L305.424 99.2917C305.246 99.2445 305.093 99.1283 305 98.9688C304.908 98.8093 304.882 98.6194 304.929 98.441C304.976 98.2625 305.092 98.1101 305.252 98.0172C305.411 97.9242 305.601 97.8984 305.779 97.9454L308.453 98.6512C308.617 98.6944 308.759 98.7956 308.853 98.936C308.947 99.0763 308.987 99.2461 308.966 99.4138C308.944 99.5815 308.862 99.7356 308.735 99.8473C308.608 99.9589 308.445 100.021 308.276 100.021ZM301.592 98.2564C301.532 98.2563 301.472 98.2485 301.414 98.2331L298.74 97.5274C298.562 97.4801 298.41 97.364 298.317 97.2045C298.224 97.045 298.199 96.8552 298.246 96.6768C298.293 96.4984 298.409 96.346 298.568 96.2531C298.728 96.1601 298.917 96.1343 299.096 96.1811L301.769 96.8868C301.933 96.9301 302.075 97.0313 302.169 97.1716C302.264 97.3119 302.304 97.4818 302.282 97.6495C302.26 97.8171 302.178 97.9712 302.051 98.0829C301.924 98.1946 301.761 98.2562 301.592 98.2564ZM294.908 96.492C294.848 96.492 294.788 96.4842 294.73 96.4688L292.056 95.7631C291.878 95.7158 291.726 95.5996 291.633 95.4401C291.54 95.2806 291.515 95.0908 291.562 94.9124C291.609 94.734 291.725 94.5817 291.884 94.4887C292.044 94.3958 292.233 94.3699 292.412 94.4168L295.085 95.1225C295.249 95.1657 295.391 95.2669 295.485 95.4073C295.58 95.5476 295.62 95.7174 295.598 95.8851C295.576 96.0528 295.494 96.2069 295.367 96.3185C295.24 96.4302 295.077 96.4919 294.908 96.492ZM288.224 94.7278C288.164 94.7277 288.104 94.7199 288.046 94.7045L285.373 93.9988C285.194 93.9516 285.042 93.8354 284.949 93.6759C284.856 93.5164 284.83 93.3265 284.878 93.148C284.925 92.9696 285.041 92.8172 285.2 92.7242C285.36 92.6313 285.549 92.6055 285.728 92.6525L288.402 93.3582C288.565 93.4014 288.707 93.5026 288.801 93.643C288.896 93.7833 288.936 93.9532 288.914 94.1208C288.892 94.2885 288.81 94.4426 288.683 94.5542C288.557 94.6659 288.393 94.7276 288.224 94.7278ZM273.92 94.0101C273.813 94.01 273.708 93.9855 273.612 93.9385C273.517 93.8914 273.433 93.823 273.368 93.7386C273.303 93.6542 273.258 93.5559 273.237 93.4515C273.216 93.347 273.219 93.2391 273.246 93.136L273.775 91.1322C273.828 90.9319 273.919 90.744 274.045 90.5793C274.17 90.4145 274.327 90.2762 274.506 90.1723C274.585 90.1261 274.672 90.0959 274.762 90.0834C274.853 90.0709 274.945 90.0764 275.033 90.0995C275.122 90.1227 275.205 90.163 275.278 90.2182C275.351 90.2734 275.412 90.3424 275.458 90.4213C275.504 90.5002 275.535 90.5875 275.547 90.678C275.56 90.7686 275.554 90.8608 275.531 90.9492C275.508 91.0377 275.468 91.1207 275.412 91.1936C275.357 91.2664 275.288 91.3277 275.209 91.3739C275.166 91.3986 275.135 91.4395 275.122 91.4874L274.592 93.4913C274.553 93.6399 274.466 93.7713 274.344 93.8651C274.223 93.9589 274.073 94.0099 273.92 94.0101ZM281.54 92.9633C281.48 92.9633 281.42 92.9555 281.362 92.9402L278.689 92.2344C278.51 92.1871 278.358 92.071 278.265 91.9115C278.173 91.752 278.147 91.5622 278.194 91.3838C278.241 91.2054 278.357 91.053 278.517 90.9601C278.676 90.8672 278.866 90.8413 279.044 90.8881L281.718 91.5939C281.881 91.6371 282.023 91.7383 282.118 91.8786C282.212 92.0189 282.252 92.1888 282.23 92.3564C282.209 92.5241 282.127 92.6782 282 92.7899C281.873 92.9015 281.71 92.9632 281.54 92.9633Z" fill="white"/>
<path d="M236.047 31.0479L25.6211 62.0796L68.9588 355.952L279.385 324.92L236.047 31.0479Z" fill="white" stroke="#FFAE93" stroke-width="30" stroke-miterlimit="10"/>
<path d="M83.8624 121.559L63.9457 124.496L70.7296 170.497L90.6462 167.56L83.8624 121.559Z" fill="#FFAE93"/>
<path d="M111.699 121.807L91.7826 124.744L97.9381 166.484L117.855 163.547L111.699 121.807Z" fill="#FFAE93"/>
<path d="M137.62 109.059L117.703 111.996L125.147 162.472L145.064 159.535L137.62 109.059Z" fill="#FFAE93"/>
<path d="M162.948 92.2951L143.031 95.2322L152.356 158.459L172.272 155.522L162.948 92.2951Z" fill="#FF8C6B"/>
<path d="M160.138 70.6611C159.376 70.0946 158.51 69.6839 157.588 69.4524C156.667 69.2208 155.71 69.1729 154.77 69.3115C153.831 69.4501 152.927 69.7723 152.112 70.2599C151.297 70.7475 150.586 71.3908 150.02 72.1532L114.735 119.646L87.4187 100.931C85.9194 99.9011 84.0865 99.476 82.287 99.7405L82.2758 99.7421C80.4801 100.005 78.8495 100.935 77.7093 102.347L54.3882 131.164C53.1823 132.655 52.618 134.564 52.8193 136.471C53.0206 138.378 53.9711 140.127 55.4618 141.334C56.9525 142.54 58.8613 143.105 60.7684 142.904C62.6755 142.704 64.4249 141.754 65.6318 140.263L84.7521 116.637L112.301 135.512C113.844 136.569 115.736 136.988 117.581 136.679C119.425 136.371 121.079 135.36 122.194 133.859L161.63 80.7794C162.772 79.239 163.256 77.3086 162.977 75.4117C162.697 73.5148 161.676 71.8063 160.138 70.6611Z" fill="#DC5F3D"/>
<path d="M117.971 140.278C115.267 140.68 112.511 140.043 110.257 138.496L85.4624 121.508L68.4425 142.538C67.5465 143.646 66.4409 144.566 65.1891 145.247C63.9373 145.927 62.5637 146.355 61.1467 146.504C59.7298 146.654 58.2973 146.522 56.931 146.118C55.5647 145.714 54.2914 145.045 53.1839 144.148C52.0763 143.252 51.1562 142.146 50.476 140.894C49.7959 139.642 49.369 138.269 49.2198 136.852C49.0706 135.435 49.202 134.002 49.6065 132.636C50.011 131.27 50.6806 129.997 51.5772 128.889L74.8983 100.073C76.6086 97.9546 79.0545 96.5593 81.7481 96.1649L81.7594 96.1632C84.4602 95.7651 87.2117 96.4025 89.4624 97.9477L113.907 114.696L147.117 69.9968C147.967 68.8532 149.033 67.8882 150.256 67.1568C151.478 66.4255 152.833 65.9421 154.242 65.7342C155.652 65.5264 157.088 65.5982 158.47 65.9455C159.851 66.2929 161.151 66.9089 162.295 67.7585C164.601 69.4764 166.133 72.0392 166.552 74.8845C166.972 77.7299 166.245 80.6255 164.533 82.9361L125.097 136.016C124.25 137.162 123.184 138.129 121.961 138.861C120.738 139.593 119.382 140.074 117.971 140.278ZM84.0414 111.767L114.345 132.529C115.116 133.058 116.062 133.267 116.985 133.113C117.907 132.959 118.734 132.453 119.291 131.703L158.728 78.623C159.011 78.2418 159.217 77.8085 159.333 77.3479C159.449 76.8872 159.473 76.4082 159.404 75.9383C159.334 75.4683 159.173 75.0166 158.929 74.6089C158.686 74.2012 158.364 73.8456 157.983 73.5623C157.601 73.279 157.168 73.0737 156.707 72.9579C156.246 72.8422 155.767 72.8183 155.297 72.8877C154.828 72.9572 154.376 73.1185 153.968 73.3625C153.561 73.6066 153.205 73.9285 152.922 74.3099L115.561 124.596L85.3748 103.914C84.6251 103.399 83.7086 103.187 82.8089 103.319L82.8032 103.32C81.9054 103.451 81.0902 103.916 80.5201 104.622L57.199 133.439C56.7491 133.995 56.4741 134.672 56.4089 135.384C56.3436 136.096 56.4911 136.812 56.8325 137.44C57.1739 138.069 57.6941 138.582 58.3271 138.914C58.9601 139.247 59.6776 139.385 60.3888 139.31C60.8621 139.264 61.3214 139.124 61.7392 138.897C62.157 138.67 62.5249 138.361 62.8208 137.989L84.0414 111.767Z" fill="white"/>
<path d="M161.156 67.9687L145.607 74.694C145.463 74.7561 145.339 74.8548 145.245 74.9804C145.152 75.1059 145.093 75.2538 145.075 75.4091C145.057 75.5645 145.081 75.7219 145.143 75.8654C145.205 76.0089 145.304 76.1336 145.429 76.2269L159.028 86.3304C159.153 86.4236 159.301 86.4822 159.457 86.5002C159.612 86.5182 159.769 86.495 159.913 86.433C160.056 86.3709 160.181 86.2721 160.274 86.1466C160.368 86.021 160.426 85.8731 160.444 85.7178L162.395 68.889C162.413 68.7337 162.389 68.5763 162.327 68.4328C162.265 68.2892 162.166 68.1646 162.041 68.0713C161.915 67.978 161.768 67.9194 161.612 67.9014C161.457 67.8834 161.299 67.9066 161.156 67.9687Z" fill="#DC5F3D"/>
<path d="M114.837 297.417C122.112 290.142 122.112 278.347 114.837 271.072C107.562 263.797 95.7667 263.797 88.4916 271.072C81.2164 278.347 81.2164 290.142 88.4916 297.417C95.7667 304.693 107.562 304.693 114.837 297.417Z" fill="#FFAE93"/>
<path d="M100.352 294.311L91.4541 287.131L94.5169 283.335L99.0177 286.967L106.893 273.601L111.095 276.077L100.352 294.311Z" fill="white"/>
<path d="M196.681 265.272L134.01 274.514C133.16 274.639 132.295 274.422 131.605 273.91C130.915 273.397 130.458 272.632 130.332 271.782C130.27 271.361 130.292 270.932 130.395 270.519C130.499 270.107 130.683 269.719 130.937 269.377C131.19 269.036 131.509 268.748 131.874 268.529C132.239 268.311 132.644 268.166 133.064 268.104L195.736 258.862C196.586 258.737 197.451 258.954 198.141 259.467C198.831 259.979 199.288 260.744 199.414 261.594C199.539 262.444 199.322 263.309 198.809 263.999C198.297 264.688 197.531 265.146 196.681 265.272Z" fill="#DC5F3D"/>
<path d="M210.611 279.687L136.387 290.633C135.966 290.695 135.537 290.674 135.124 290.57C134.712 290.467 134.323 290.283 133.982 290.029C133.64 289.775 133.352 289.457 133.134 289.092C132.916 288.727 132.771 288.322 132.709 287.901C132.647 287.48 132.668 287.051 132.772 286.639C132.876 286.226 133.06 285.838 133.314 285.497C133.567 285.155 133.886 284.867 134.251 284.649C134.616 284.43 135.02 284.286 135.441 284.224L209.666 273.278C210.087 273.216 210.516 273.237 210.928 273.341C211.341 273.445 211.729 273.629 212.07 273.882C212.412 274.136 212.7 274.454 212.918 274.82C213.137 275.185 213.281 275.589 213.343 276.01C213.469 276.86 213.251 277.725 212.739 278.415C212.226 279.104 211.461 279.562 210.611 279.687Z" fill="#FF8C6B"/>
<path d="M106.811 242.99C114.086 235.715 114.086 223.92 106.811 216.645C99.5357 209.369 87.7403 209.369 80.4651 216.645C73.1899 223.92 73.1899 235.715 80.4651 242.99C87.7403 250.265 99.5357 250.265 106.811 242.99Z" fill="#FFAE93"/>
<path d="M92.3251 239.883L83.4277 232.703L86.4904 228.908L90.9913 232.54L98.867 219.174L103.069 221.65L92.3251 239.883Z" fill="white"/>
<path d="M127.415 229.797L190.087 220.554C190.937 220.429 191.802 220.647 192.491 221.159C193.181 221.671 193.639 222.437 193.764 223.287C193.826 223.707 193.805 224.136 193.701 224.549C193.598 224.962 193.414 225.35 193.16 225.691C192.906 226.033 192.588 226.321 192.223 226.539C191.858 226.758 191.453 226.902 191.032 226.964L128.36 236.206C127.939 236.268 127.51 236.247 127.098 236.143C126.685 236.039 126.297 235.856 125.956 235.602C125.614 235.348 125.326 235.03 125.108 234.665C124.889 234.3 124.745 233.895 124.683 233.474C124.621 233.053 124.642 232.624 124.746 232.212C124.85 231.799 125.034 231.411 125.287 231.07C125.541 230.728 125.859 230.44 126.224 230.222C126.59 230.003 126.994 229.859 127.415 229.797Z" fill="#FF8C6B"/>
<path d="M125.038 213.677L199.262 202.731C200.112 202.606 200.977 202.823 201.667 203.336C202.357 203.848 202.815 204.613 202.94 205.463C203.002 205.884 202.98 206.313 202.877 206.726C202.773 207.138 202.589 207.526 202.335 207.868C202.082 208.209 201.763 208.498 201.398 208.716C201.033 208.934 200.629 209.079 200.208 209.141L125.983 220.087C125.133 220.212 124.268 219.995 123.579 219.482C122.889 218.97 122.431 218.205 122.306 217.355C122.244 216.934 122.265 216.505 122.369 216.092C122.473 215.68 122.657 215.292 122.91 214.95C123.164 214.609 123.483 214.32 123.848 214.102C124.213 213.884 124.617 213.739 125.038 213.677Z" fill="#DC5F3D"/>
<path d="M96.9342 252.169C84.6092 253.987 73.1033 245.439 71.2857 233.113C69.4681 220.788 78.0165 209.282 90.3416 207.465C102.667 205.647 114.173 214.196 115.99 226.521C117.808 238.846 109.259 250.352 96.9342 252.169ZM90.5593 208.941C79.0481 210.639 71.0642 221.385 72.7617 232.896C74.4593 244.407 85.2054 252.391 96.7166 250.693C108.228 248.996 116.212 238.25 114.514 226.739C112.817 215.227 102.07 207.243 90.5593 208.941Z" fill="#DC5F3D"/>
<path d="M259.467 310.96L225.998 315.896C225.615 315.952 225.225 315.933 224.85 315.838C224.475 315.744 224.122 315.577 223.812 315.346C223.501 315.116 223.239 314.826 223.041 314.494C222.842 314.162 222.711 313.795 222.655 313.412C222.541 312.639 222.738 311.853 223.204 311.226C223.67 310.599 224.366 310.183 225.138 310.069L258.607 305.133C258.99 305.077 259.38 305.097 259.755 305.191C260.13 305.285 260.483 305.452 260.793 305.683C261.104 305.914 261.366 306.203 261.564 306.535C261.763 306.867 261.894 307.235 261.95 307.617C262.064 308.39 261.867 309.176 261.401 309.803C260.935 310.43 260.239 310.846 259.467 310.96ZM222.611 69.1518L184.914 74.7111C184.286 74.8038 183.646 74.6431 183.137 74.2645C182.627 73.8859 182.289 73.3204 182.196 72.6923C182.104 72.0643 182.264 71.4252 182.643 70.9156C183.022 70.4061 183.587 70.0677 184.215 69.9751L221.913 64.4158C222.541 64.3231 223.18 64.4838 223.69 64.8624C224.199 65.241 224.538 65.8065 224.63 66.4346C224.723 67.0626 224.562 67.7017 224.184 68.2113C223.805 68.7208 223.24 69.0592 222.611 69.1518Z" fill="#DC5F3D"/>
<path d="M224.322 80.7509L186.624 86.3103C185.996 86.4029 185.357 86.2423 184.848 85.8637C184.338 85.4851 184 84.9196 183.907 84.2915H183.907C183.814 83.6635 183.975 83.0244 184.354 82.5148C184.732 82.0052 185.298 81.6669 185.926 81.5743L223.624 76.0149C224.252 75.9223 224.891 76.0829 225.4 76.4615C225.91 76.8401 226.248 77.4056 226.341 78.0337C226.434 78.6617 226.273 79.3008 225.894 79.8104C225.516 80.32 224.95 80.6583 224.322 80.7509Z" fill="#FF8C6B"/>
<g style="mix-blend-mode:multiply" opacity="0.1">
<path d="M306.101 281.104V281.105C304.41 282.797 302.115 283.747 299.722 283.747C297.33 283.747 295.035 282.797 293.344 281.105L238.573 226.333L231.613 219.374C236.683 216.026 241.023 211.686 244.37 206.616L306.101 268.348C306.939 269.185 307.603 270.179 308.057 271.274C308.51 272.368 308.744 273.541 308.744 274.726C308.744 275.91 308.51 277.083 308.057 278.178C307.603 279.272 306.939 280.266 306.101 281.104Z" fill="#DC5F3D"/>
</g>
<g style="mix-blend-mode:multiply" opacity="0.5">
<path d="M240.008 210.529L254.28 224.803C250.934 229.873 246.595 234.213 241.526 237.561H241.524L234.211 230.247L227.252 223.287C232.322 219.939 236.661 215.6 240.008 210.529Z" fill="#DC5F3D"/>
</g>
<g style="mix-blend-mode:multiply">
<path d="M199.872 227.881C224.576 227.881 244.602 207.855 244.602 183.152C244.602 158.448 224.576 138.422 199.872 138.422C175.169 138.422 155.143 158.448 155.143 183.152C155.143 207.855 175.169 227.881 199.872 227.881Z" fill="#FFBEA8"/>
</g>
<path d="M166.001 183.894C166.001 164.778 181.498 149.281 200.614 149.281" stroke="white" stroke-width="60" stroke-linecap="round" stroke-linejoin="round"/>
<path d="M298.965 282.243V282.245C297.273 283.936 294.978 284.887 292.586 284.887C290.193 284.887 287.899 283.936 286.207 282.245L231.436 227.473L224.477 220.513C229.547 217.166 233.886 212.826 237.233 207.755L298.965 269.487C299.802 270.325 300.467 271.319 300.92 272.413C301.373 273.508 301.607 274.681 301.607 275.865C301.607 277.05 301.373 278.223 300.92 279.317C300.467 280.411 299.802 281.406 298.965 282.243Z" fill="#DC5F3D"/>
<path d="M199.872 128.742C169.823 128.742 145.463 153.102 145.463 183.152C145.463 213.2 169.823 237.561 199.872 237.561C207.017 237.562 214.093 236.156 220.695 233.422C227.297 230.688 233.295 226.681 238.348 221.628C243.4 216.575 247.408 210.577 250.142 203.975C252.876 197.373 254.282 190.297 254.281 183.152C254.281 153.102 229.922 128.742 199.872 128.742ZM237.233 207.755C233.886 212.826 229.547 217.165 224.477 220.513C217.177 225.332 208.619 227.894 199.872 227.881C175.169 227.881 155.143 207.855 155.143 183.152C155.143 158.448 175.169 138.422 199.872 138.422C224.576 138.422 244.602 158.448 244.602 183.152C244.616 191.899 242.053 200.456 237.233 207.755Z" fill="#DC5F3D"/>
</svg>
