<svg width="48" height="48" viewBox="0 0 48 48" fill="none" xmlns="http://www.w3.org/2000/svg">
<g clip-path="url(#clip0_206_1198)">
<path d="M8.74277 23.9573L7.87637 25.0713C7.75673 25.2252 7.69733 25.4175 7.70945 25.612C7.72157 25.8066 7.80431 25.99 7.94213 26.1279L9.07343 27.2592C9.21125 27.397 9.39473 27.4798 9.58931 27.4919C9.78389 27.5041 9.97619 27.4447 10.1301 27.325L11.2442 26.4586L11.8298 26.7011L12.0048 28.101C12.0289 28.2945 12.1228 28.4726 12.269 28.6017C12.4151 28.7308 12.6035 28.8021 12.7985 28.8022H14.3983C14.5933 28.8022 14.7815 28.731 14.9277 28.6019C15.0739 28.4729 15.1679 28.2949 15.192 28.1015L15.367 26.7016L15.9526 26.4591L17.0667 27.3255C17.2206 27.4452 17.413 27.5046 17.6075 27.4925C17.8021 27.4803 17.9855 27.3975 18.1234 27.2597L19.2547 26.1284C19.3925 25.9905 19.4752 25.8071 19.4873 25.6125C19.4995 25.418 19.4401 25.2257 19.3205 25.0718L18.4541 23.9578L18.6966 23.3722L20.0965 23.1971C20.2901 23.1731 20.4682 23.079 20.5973 22.9327C20.7265 22.7865 20.7977 22.598 20.7976 22.4029V20.8031C20.7976 20.6081 20.7263 20.4199 20.5973 20.2737C20.4683 20.1276 20.2903 20.0335 20.0969 20.0094L18.697 19.8343L18.4544 19.2487L19.3208 18.1347C19.4405 17.9808 19.4999 17.7885 19.4878 17.5939C19.4756 17.3994 19.3929 17.216 19.2551 17.0781L18.1238 15.9469C17.986 15.809 17.8025 15.7262 17.6079 15.7141C17.4133 15.702 17.221 15.7613 17.0671 15.8809L15.953 16.7473L15.3674 16.5049L15.1924 15.105C15.1684 14.9114 15.0743 14.7333 14.9281 14.6041C14.7818 14.475 14.5934 14.4037 14.3983 14.4038H12.7985C12.6035 14.4039 12.4153 14.475 12.2691 14.6041C12.123 14.7331 12.029 14.9111 12.0048 15.1045L11.8298 16.5044L11.2442 16.7469L10.1301 15.8805C9.97619 15.7608 9.78389 15.7014 9.58931 15.7136C9.39473 15.7257 9.21125 15.8085 9.07343 15.9463L7.94213 17.0781C7.80431 17.216 7.72157 17.3994 7.70945 17.5939C7.69733 17.7885 7.75673 17.9808 7.87637 18.1347L8.74277 19.2487L8.50019 19.8343L7.10033 20.0094C6.90683 20.0335 6.72875 20.1274 6.59963 20.2736C6.47051 20.4198 6.39923 20.608 6.39923 20.8031V22.4029C6.39923 22.5979 6.47045 22.7861 6.59951 22.9323C6.72851 23.0784 6.90647 23.1724 7.09997 23.1966L8.49977 23.3717L8.74277 23.9573ZM7.99907 21.5092L9.16043 21.3641C9.30065 21.3465 9.43373 21.2922 9.54617 21.2065C9.65855 21.1209 9.74627 21.0069 9.80033 20.8764L10.3988 19.431C10.4528 19.3004 10.4714 19.1578 10.4525 19.0179C10.4336 18.8778 10.378 18.7453 10.2912 18.6337L9.57269 17.7099L9.70523 17.5773L10.6292 18.2959C10.7407 18.3826 10.8733 18.4383 11.0132 18.4571C11.1533 18.476 11.2958 18.4575 11.4263 18.4033L12.8718 17.8047C13.0024 17.7507 13.1163 17.6629 13.202 17.5506C13.2877 17.4382 13.342 17.305 13.3595 17.1648L13.5046 16.0036H13.6922L13.8373 17.165C13.8548 17.3053 13.9091 17.4384 13.9948 17.5507C14.0805 17.6632 14.1944 17.7508 14.325 17.805L15.7705 18.4033C15.901 18.4574 16.0435 18.4759 16.1836 18.457C16.3235 18.4381 16.4561 18.3824 16.5676 18.2957L17.4914 17.5771L17.624 17.7097L16.9055 18.6336C16.8188 18.7451 16.7631 18.8777 16.7442 19.0177C16.7254 19.1578 16.7439 19.3004 16.798 19.431L17.3967 20.8764C17.4508 21.0069 17.5385 21.1209 17.6509 21.2065C17.7633 21.2922 17.8964 21.3465 18.0366 21.3641L19.1978 21.5092V21.6968L18.0364 21.8419C17.8961 21.8595 17.7631 21.9138 17.6507 21.9995C17.5382 22.0851 17.4506 22.1991 17.3965 22.3296L16.798 23.775C16.744 23.9056 16.7254 24.0481 16.7443 24.1882C16.7632 24.3282 16.8189 24.4607 16.9057 24.5723L17.6242 25.4961L17.4916 25.6287L16.5677 24.9101C16.4561 24.8234 16.3236 24.7677 16.1836 24.7489C16.0435 24.73 15.901 24.7485 15.7705 24.8026L14.325 25.4013C14.1944 25.4553 14.0805 25.543 13.9948 25.6554C13.9091 25.7679 13.8548 25.901 13.8373 26.0412L13.6922 27.2024H13.5046L13.3595 26.041C13.342 25.9008 13.2877 25.7676 13.202 25.6553C13.1163 25.5428 13.0024 25.4551 12.8718 25.4011L11.4263 24.8026C11.2958 24.7486 11.1533 24.7301 11.0133 24.749C10.8733 24.7679 10.7408 24.8236 10.6292 24.9104L9.70535 25.629L9.57275 25.4962L10.2913 24.5725C10.3781 24.4609 10.4337 24.3284 10.4526 24.1883C10.4715 24.0482 10.4529 23.9056 10.3988 23.775L9.80015 22.3296C9.74609 22.1991 9.65837 22.0851 9.54593 21.9995C9.43355 21.9138 9.30047 21.8595 9.16019 21.8419L7.99907 21.6968V21.5092Z" fill="#F76943"/>
<path d="M13.5985 24.0028C14.0731 24.0028 14.537 23.8621 14.9317 23.5984C15.3263 23.3347 15.6339 22.9599 15.8155 22.5214C15.9971 22.083 16.0447 21.6004 15.9521 21.135C15.8595 20.6694 15.6309 20.2419 15.2953 19.9063C14.9597 19.5706 14.5321 19.3421 14.0666 19.2495C13.6011 19.1569 13.1186 19.2044 12.6801 19.3861C12.2416 19.5677 11.8669 19.8753 11.6032 20.2699C11.3395 20.6646 11.1988 21.1285 11.1988 21.6031C11.1994 22.2393 11.4525 22.8493 11.9024 23.2992C12.3523 23.749 12.9622 24.0021 13.5985 24.0028ZM13.5985 20.8032C13.7567 20.8032 13.9113 20.8501 14.0429 20.938C14.1744 21.0259 14.2769 21.1509 14.3375 21.297C14.398 21.4432 14.4139 21.604 14.383 21.7591C14.3521 21.9144 14.2759 22.0569 14.1641 22.1688C14.0522 22.2806 13.9097 22.3568 13.7545 22.3876C13.5994 22.4185 13.4385 22.4027 13.2923 22.3422C13.1462 22.2816 13.0213 22.1791 12.9334 22.0475C12.8455 21.916 12.7985 21.7613 12.7985 21.6031C12.7988 21.391 12.8831 21.1877 13.0331 21.0378C13.1831 20.8878 13.3864 20.8035 13.5985 20.8032Z" fill="#F76943"/>
<path d="M47.2937 11.9603L44.846 11.6542L44.2667 10.2557L45.7811 8.30838C45.9008 8.15448 45.9601 7.96218 45.948 7.7676C45.9359 7.57302 45.8531 7.3896 45.7153 7.25172L43.9477 5.48411C43.8098 5.34627 43.6264 5.26353 43.4318 5.25144C43.2372 5.23934 43.0449 5.29872 42.891 5.41842L40.9438 6.93282L39.5452 6.35292L39.2392 3.9053C39.215 3.71192 39.1209 3.53407 38.9747 3.40514C38.8286 3.27621 38.6404 3.20507 38.4455 3.20508H35.9458C35.7509 3.20508 35.5626 3.27629 35.4164 3.40533C35.2703 3.53436 35.1763 3.71234 35.1521 3.90579L34.846 6.3534L33.4473 6.93336L31.5004 5.41842C31.3465 5.29872 31.1542 5.23934 30.9596 5.25144C30.765 5.26353 30.5815 5.34627 30.4436 5.48411L28.676 7.25172C28.5382 7.3896 28.4554 7.57302 28.4434 7.7676C28.4312 7.96218 28.4906 8.15448 28.6103 8.30838L30.1247 10.2557L29.5454 11.6541L27.0976 11.9602C26.9042 11.9843 26.7262 12.0784 26.5972 12.2245C26.4681 12.3707 26.3969 12.559 26.3969 12.754V15.2537C26.3969 15.4487 26.4682 15.6369 26.5972 15.7831C26.7262 15.9292 26.9042 16.0232 27.0976 16.0474L29.5454 16.3535L30.1247 17.752L28.6103 19.6993C28.4906 19.8532 28.4312 20.0455 28.4434 20.24C28.4554 20.4346 28.5382 20.6181 28.676 20.756L30.4436 22.5235C30.5815 22.6614 30.765 22.7441 30.9596 22.7562C31.1542 22.7683 31.3465 22.7089 31.5004 22.5892L33.4475 21.0748L34.8461 21.6547L35.1521 24.1024C35.1764 24.2957 35.2705 24.4736 35.4166 24.6025C35.5627 24.7315 35.7509 24.8026 35.9458 24.8026H38.4455C38.6405 24.8026 38.8288 24.7313 38.9749 24.6023C39.1211 24.4733 39.215 24.2953 39.2392 24.1019L39.5452 21.6542L40.9438 21.0743L42.891 22.5887C43.0449 22.7084 43.2372 22.7678 43.4318 22.7557C43.6264 22.7436 43.8098 22.6609 43.9477 22.523L45.7153 20.7554C45.8531 20.6176 45.9359 20.4341 45.948 20.2396C45.9601 20.045 45.9008 19.8527 45.7811 19.6988L44.2667 17.7515L44.846 16.3529L47.2937 16.0469C47.4871 16.0228 47.665 15.9288 47.794 15.7828C47.923 15.6367 47.9943 15.4486 47.9944 15.2537V12.754C47.9944 12.559 47.9232 12.3707 47.7942 12.2246C47.6651 12.0784 47.4872 11.9845 47.2937 11.9603ZM46.3946 14.5475L44.1859 14.8237C44.0456 14.8412 43.9126 14.8956 43.8001 14.9813C43.6877 15.0669 43.6 15.1808 43.546 15.3114L42.6104 17.5698C42.5564 17.7004 42.5378 17.8429 42.5567 17.983C42.5756 18.1229 42.6313 18.2555 42.718 18.367L44.0849 20.124L43.3159 20.893L41.5589 19.5263C41.4473 19.4395 41.3148 19.3838 41.1748 19.3649C41.0348 19.346 40.8922 19.3645 40.7617 19.4186L38.5032 20.3542C38.3726 20.4083 38.2588 20.496 38.1731 20.6084C38.0875 20.7208 38.0331 20.8539 38.0156 20.9941L37.7394 23.2028H36.652L36.3758 20.994C36.3583 20.8538 36.3039 20.7207 36.2183 20.6083C36.1326 20.4959 36.0187 20.4082 35.8881 20.3541L33.6297 19.4185C33.4991 19.3645 33.3566 19.3459 33.2165 19.3648C33.0766 19.3838 32.944 19.4395 32.8325 19.5262L31.0756 20.893L30.3066 20.1241L31.6732 18.367C31.76 18.2555 31.8156 18.1229 31.8345 17.983C31.8534 17.8429 31.8349 17.7004 31.7808 17.5698L30.8453 15.3114C30.7912 15.1808 30.7035 15.0669 30.5911 14.9813C30.4787 14.8956 30.3456 14.8412 30.2054 14.8237L27.9967 14.5475V13.4601L30.2055 13.184C30.3457 13.1665 30.4788 13.1122 30.5912 13.0265C30.7036 12.9409 30.7913 12.8269 30.8454 12.6964L31.7809 10.438C31.835 10.3074 31.8535 10.1648 31.8346 10.0249C31.8157 9.88482 31.76 9.75228 31.6733 9.64074L30.3065 7.88364L31.0755 7.11474L32.8325 8.48136C32.944 8.56812 33.0766 8.6238 33.2165 8.6427C33.3566 8.66166 33.4991 8.64312 33.6297 8.58906L35.8881 7.65348C36.0187 7.59936 36.1326 7.5117 36.2183 7.39926C36.3039 7.28688 36.3583 7.1538 36.3758 7.01352L36.652 4.80489H37.7394L38.0156 7.01364C38.0331 7.15386 38.0875 7.28694 38.1731 7.39938C38.2588 7.51176 38.3726 7.59948 38.5032 7.65354L40.7617 8.58918C40.8922 8.64324 41.0348 8.66172 41.1748 8.64282C41.3148 8.62392 41.4473 8.56824 41.5589 8.48148L43.3158 7.11462L44.0848 7.88352L42.7181 9.64062C42.6314 9.75216 42.5758 9.8847 42.5569 10.0247C42.538 10.1648 42.5565 10.3073 42.6106 10.4378L43.546 12.6963C43.6001 12.8269 43.6879 12.9407 43.8002 13.0264C43.9126 13.1121 44.0458 13.1664 44.186 13.1839L46.3946 13.4601V14.5475Z" fill="#F76943"/>
<path d="M37.1958 9.60449C36.3256 9.60449 35.475 9.86255 34.7515 10.346C34.0281 10.8294 33.4641 11.5165 33.1312 12.3204C32.7982 13.1243 32.7111 14.0089 32.8808 14.8623C33.0505 15.7157 33.4696 16.4996 34.0848 17.1149C34.7001 17.7302 35.484 18.1492 36.3375 18.319C37.1909 18.4887 38.0755 18.4016 38.8793 18.0686C39.6832 17.7356 40.3703 17.1717 40.8538 16.4482C41.3372 15.7247 41.5952 14.8741 41.5952 14.004C41.5939 12.8376 41.13 11.7193 40.3052 10.8945C39.4804 10.0697 38.3621 9.60581 37.1958 9.60449ZM37.1958 16.8037C36.642 16.8037 36.1008 16.6395 35.6403 16.3319C35.1799 16.0242 34.8211 15.587 34.6092 15.0754C34.3973 14.5638 34.3419 14.0009 34.4499 13.4578C34.5579 12.9148 34.8246 12.4159 35.2161 12.0244C35.6076 11.6328 36.1064 11.3662 36.6496 11.2581C37.1926 11.1501 37.7555 11.2055 38.2671 11.4175C38.7787 11.6293 39.2159 11.9882 39.5236 12.4486C39.8312 12.909 39.9954 13.4503 39.9954 14.004C39.9946 14.7463 39.6993 15.4579 39.1745 15.9827C38.6496 16.5076 37.938 16.8028 37.1958 16.8037Z" fill="#F76943"/>
<path d="M11.1987 34.9894V36.8013C10.9865 36.8013 10.7831 36.8856 10.6331 37.0356C10.4831 37.1856 10.3988 37.389 10.3988 37.6012V47.2001C10.3988 47.4122 10.4831 47.6157 10.6331 47.7657C10.7831 47.9157 10.9865 48 11.1987 48H15.9982C16.2103 48 16.4138 47.9157 16.5638 47.7657C16.7138 47.6157 16.7981 47.4122 16.7981 47.2001V37.6012C16.7981 37.389 16.7138 37.1856 16.5638 37.0356C16.4138 36.8856 16.2103 36.8013 15.9982 36.8013V34.9894C22.3559 33.8528 27.1969 28.2823 27.1969 21.603C27.1969 14.1049 21.0967 8.00464 13.5984 8.00464C6.1002 8.00464 0 14.1049 0 21.603C0 28.2823 4.84094 33.8528 11.1987 34.9894ZM15.1982 46.4002H11.9986V38.4011H15.1982V46.4002ZM12.7985 36.8013V35.2015H14.3983V36.8013H12.7985ZM13.5984 9.60442C15.9715 9.60442 18.2914 10.3082 20.2645 11.6265C22.2377 12.945 23.7755 14.8189 24.6837 17.0114C25.5919 19.2038 25.8295 21.6164 25.3665 23.9439C24.9035 26.2713 23.7608 28.4093 22.0828 30.0873C20.4047 31.7654 18.2668 32.9081 15.9392 33.3711C13.6117 33.8341 11.1992 33.5965 9.00678 32.6883C6.81432 31.7802 4.94037 30.2423 3.62195 28.2691C2.30352 26.2959 1.59982 23.9762 1.59982 21.603C1.60342 18.4219 2.86871 15.3721 5.1181 13.1227C7.36752 10.8733 10.4173 9.60802 13.5984 9.60442Z" fill="#F76943"/>
<path d="M13.5985 32.0019C15.6551 32.0019 17.6656 31.392 19.3757 30.2494C21.0858 29.1068 22.4186 27.4827 23.2057 25.5826C23.9927 23.6825 24.1987 21.5916 23.7974 19.5745C23.3962 17.5573 22.4058 15.7044 20.9515 14.2501C19.4972 12.7958 17.6443 11.8054 15.6272 11.4042C13.61 11.0029 11.5192 11.2088 9.61901 11.9959C7.71887 12.783 6.09479 14.1158 4.95216 15.8259C3.80953 17.536 3.19965 19.5465 3.19965 21.6032C3.20277 24.3601 4.29936 27.0033 6.24881 28.9527C8.19833 30.9023 10.8415 31.9988 13.5985 32.0019ZM13.5985 12.8042C15.3388 12.8042 17.0399 13.3202 18.4869 14.2871C19.9339 15.2539 21.0617 16.6282 21.7277 18.2359C22.3936 19.8437 22.5679 21.6129 22.2284 23.3198C21.8888 25.0266 21.0508 26.5944 19.8203 27.825C18.5897 29.0555 17.0219 29.8935 15.3151 30.2331C13.6082 30.5726 11.839 30.3983 10.2313 29.7323C8.62343 29.0664 7.24919 27.9386 6.28235 26.4916C5.31552 25.0446 4.79946 23.3434 4.79946 21.6032C4.80211 19.2703 5.72999 17.0338 7.37957 15.3842C9.02909 13.7347 11.2657 12.8068 13.5985 12.8042Z" fill="#F76943"/>
<path d="M27.1969 42.4006V44.0005H29.5966V48H31.1964V44.0005H37.5957C37.8078 44.0005 38.0113 43.9162 38.1613 43.7662C38.3113 43.6162 38.3956 43.4127 38.3956 43.2006V33.6016H42.3951C42.5039 33.6016 42.6115 33.5795 42.7114 33.5365C42.8114 33.4935 42.9015 33.4305 42.9762 33.3515C43.051 33.2725 43.1088 33.1791 43.1463 33.0769C43.1837 32.9748 43.1999 32.8661 43.1938 32.7574L42.705 23.9585L41.1077 24.0471L41.5495 32.0019H37.5957C37.3836 32.0019 37.1801 32.0861 37.0301 32.2362C36.88 32.3862 36.7958 32.5896 36.7958 32.8018V36.0014H31.9963V37.6012H36.7958V42.4006H27.1969Z" fill="#F76943"/>
<path d="M10.5388 5.85926L11.7087 6.95034C14.404 4.05925 18.0321 2.21082 21.9553 1.73C25.8785 1.24919 29.8457 2.16677 33.1593 4.32143L34.033 2.98159C30.4051 0.617556 26.0592 -0.390034 21.7612 0.136407C17.4632 0.66285 13.4889 2.68952 10.5388 5.85926Z" fill="#F76943"/>
</g>
<defs>
<clipPath id="clip0_206_1198">
<rect width="48" height="48" fill="white"/>
</clipPath>
</defs>
</svg>
