<svg width="60" height="60" viewBox="0 0 60 60" fill="none" xmlns="http://www.w3.org/2000/svg">
<path d="M31.5857 0.936035C31.3371 0.93606 31.0986 1.03488 30.9228 1.21069C30.747 1.3865 30.6482 1.6249 30.6482 1.87354V4.21729C29.7725 4.47191 28.9307 4.81594 28.1287 5.25L26.4844 3.60205C26.3086 3.4263 26.0701 3.32762 25.8215 3.32762C25.5729 3.32762 25.3345 3.4263 25.1587 3.60205L21.4197 7.34106C21.3321 7.42819 21.2626 7.53187 21.2152 7.64594C21.1678 7.76 21.1434 7.88243 21.1434 8.00597C21.1434 8.1295 21.1678 8.2517 21.2152 8.36577C21.2626 8.47984 21.3321 8.58351 21.4197 8.67064L23.0713 10.322C22.6368 11.12 22.2915 11.9589 22.0349 12.8306H19.6948C19.4462 12.8306 19.2077 12.9294 19.0319 13.1052C18.8561 13.281 18.7573 13.5194 18.7573 13.7681V16.8772V17.8147H20.6323V16.8772V14.7056H22.6465C22.8585 14.7051 23.064 14.6328 23.2296 14.5005C23.3952 14.3682 23.5111 14.1837 23.5583 13.977C23.8321 12.7759 24.3095 11.6326 24.9646 10.5894C25.0782 10.4091 25.127 10.1956 25.1031 9.98396C25.0791 9.77229 24.9838 9.57507 24.8328 9.4248L23.4082 8.00391L25.8215 5.59058L27.2351 7.00804C27.3845 7.15777 27.5801 7.25247 27.7902 7.27698C28.0003 7.30149 28.2125 7.25441 28.3923 7.14308C29.4382 6.49077 30.5881 6.01782 31.7908 5.74782C31.9987 5.70118 32.1846 5.58512 32.3178 5.41869C32.4509 5.25225 32.5234 5.04542 32.5232 4.83229V2.81447H35.929V4.8284C35.9286 5.04103 36.0006 5.24752 36.133 5.41388C36.2654 5.58024 36.4504 5.6968 36.6577 5.74416C37.8586 6.01791 39.0057 6.49162 40.0488 7.14674C40.2286 7.25947 40.4413 7.30791 40.6522 7.28407C40.8631 7.26023 41.0596 7.16562 41.2097 7.01559L42.6306 5.59081L45.044 8.00414L43.6267 9.41771C43.4766 9.56774 43.3818 9.76437 43.3578 9.97527C43.3339 10.1862 43.3822 10.399 43.4949 10.5788C44.1471 11.6243 44.6165 12.7745 44.8865 13.9773C44.9339 14.1845 45.0503 14.3695 45.2166 14.5019C45.383 14.6343 45.5894 14.7061 45.802 14.7058H47.8198V16.8774V17.8149H49.6948V16.8774V13.7683C49.6948 13.5197 49.596 13.2813 49.4202 13.1055C49.2444 12.9296 49.006 12.8308 48.7573 12.8308H46.4172C46.1629 11.9559 45.818 11.1165 45.3845 10.3149L47.0325 8.67064C47.1201 8.58351 47.1895 8.48007 47.237 8.366C47.2844 8.25193 47.3088 8.1295 47.3088 8.00597C47.3088 7.88243 47.2844 7.76023 47.237 7.64616C47.1895 7.53209 47.1201 7.42842 47.0325 7.34129L43.2935 3.60228C43.1176 3.42653 42.8792 3.32785 42.6306 3.32785C42.382 3.32785 42.1436 3.42653 41.9678 3.60228L40.3162 5.25755C39.5159 4.82143 38.6784 4.47091 37.804 4.21385V1.87376C37.8039 1.62513 37.7052 1.3865 37.5293 1.21069C37.3535 1.03488 37.1151 0.936289 36.8665 0.936264H31.5857L31.5857 0.936035ZM34.2261 7.96729C29.5853 7.96729 25.7886 11.7642 25.7886 16.4048V17.3423H27.6636V16.4048C27.6636 12.7836 30.6047 9.84229 34.2261 9.84229C37.8474 9.84229 40.7886 12.7836 40.7886 16.4048V17.3423H42.6636V16.4048C42.6636 11.7642 38.8668 7.96729 34.2261 7.96729Z" fill="#F76943"/>
<path d="M42.6124 47.7048C39.229 47.7048 36.4637 50.4693 36.4637 53.8535C36.4637 57.2377 39.229 59.9985 42.6124 59.9985C45.9957 59.9985 48.7573 57.2377 48.7574 53.8535C48.7573 50.4693 45.9957 47.7048 42.6124 47.7048ZM42.6124 49.5798C44.9819 49.5798 46.8824 51.4822 46.8824 53.8535C46.8824 56.2248 44.9819 58.1235 42.6124 58.1235C40.2428 58.1235 38.3387 56.2248 38.3387 53.8535C38.3387 51.4822 40.2428 49.5798 42.6124 49.5798ZM6.56987 11.2668C6.44564 11.2651 6.3223 11.288 6.20702 11.3343C6.09174 11.3807 5.98681 11.4494 5.89834 11.5367C5.80987 11.6239 5.73961 11.7278 5.69166 11.8425C5.64371 11.9571 5.61902 12.0801 5.61902 12.2043C5.61902 12.3286 5.64371 12.4516 5.69166 12.5662C5.73961 12.6808 5.80987 12.7847 5.89834 12.872C5.98681 12.9592 6.09174 13.028 6.20702 13.0743C6.3223 13.1206 6.44564 13.1436 6.56987 13.1418H11.8799L18.4095 40.5307C18.4588 40.7354 18.5756 40.9174 18.741 41.0475C18.9064 41.1777 19.1108 41.2486 19.3213 41.2485H46.6736C46.8749 41.2484 47.0708 41.1836 47.2324 41.0636C47.394 40.9436 47.5126 40.7747 47.5708 40.582L49.2627 34.957L50.9583 29.332L51.4051 27.8488C51.4407 27.7308 51.4527 27.6067 51.4403 27.484C51.428 27.3613 51.3917 27.2422 51.3334 27.1336C51.275 27.0249 51.1959 26.929 51.1004 26.8509C51.005 26.7729 50.8951 26.7144 50.777 26.6788C50.6589 26.6432 50.535 26.6312 50.4123 26.6436C50.2896 26.6559 50.1705 26.6921 50.0619 26.7504C49.9532 26.8088 49.8571 26.888 49.7791 26.9834C49.701 27.0789 49.6426 27.1888 49.607 27.3069L49.1602 28.7937L47.4683 34.4187L45.9778 39.3735H20.0611L15.1319 18.6936C15.2353 18.7304 15.3444 18.7487 15.4541 18.7478H52.1851L50.8558 23.1682C50.8142 23.2877 50.7973 23.4144 50.806 23.5406C50.8147 23.6668 50.8488 23.79 50.9064 23.9027C50.964 24.0154 51.0438 24.1153 51.141 24.1964C51.2382 24.2774 51.3507 24.3378 51.4719 24.3742C51.5931 24.4105 51.7204 24.422 51.8462 24.4078C51.9719 24.3937 52.0935 24.3542 52.2036 24.2918C52.3137 24.2294 52.41 24.1454 52.4868 24.0448C52.5635 23.9442 52.6191 23.8292 52.6502 23.7065L54.3421 18.0815C54.3844 17.9415 54.3933 17.7935 54.3682 17.6494C54.343 17.5053 54.2845 17.3691 54.1974 17.2516C54.1102 17.1342 53.9967 17.0388 53.866 16.9731C53.7354 16.9073 53.5911 16.8729 53.4449 16.8728H15.4541C15.3254 16.8718 15.1979 16.8972 15.0794 16.9477C14.961 16.9981 14.8542 17.0725 14.7657 17.166L13.5315 11.9878C13.4829 11.7825 13.3664 11.5996 13.201 11.4687C13.0355 11.3378 12.8307 11.2665 12.6197 11.2664H6.56987V11.2668Z" fill="#F76943"/>
<path d="M12.5684 11.219C12.4298 11.2261 12.2944 11.2638 12.1722 11.3296C12.0499 11.3954 11.9437 11.4877 11.8614 11.5994C11.7791 11.7112 11.7226 11.8399 11.696 11.9762C11.6695 12.1125 11.6735 12.2527 11.7079 12.3873L20.4713 48.8802C20.5206 49.0848 20.6374 49.267 20.8028 49.3972C20.9682 49.5275 21.1726 49.598 21.3831 49.598H43.0445C43.1688 49.5997 43.2921 49.5768 43.4074 49.5304C43.5227 49.4841 43.6276 49.4153 43.7161 49.3281C43.8045 49.2409 43.8748 49.1369 43.9227 49.0223C43.9707 48.9077 43.9954 48.7847 43.9954 48.6605C43.9954 48.5362 43.9707 48.4132 43.9227 48.2986C43.8748 48.184 43.8045 48.08 43.7161 47.9928C43.6276 47.9056 43.5227 47.8368 43.4074 47.7905C43.2921 47.7441 43.1688 47.7212 43.0445 47.723H22.1229L13.5316 11.9478C13.4827 11.7323 13.3592 11.541 13.183 11.4076C13.0068 11.2743 12.7891 11.2075 12.5684 11.219Z" fill="#F76943"/>
<path fill-rule="evenodd" clip-rule="evenodd" d="M28.1323 22.4985V24.3735H51.7566V22.4985H28.1323ZM31.8823 28.1235V29.9985H50.6323V28.1235H31.8823ZM35.6323 33.7485V35.6235H48.7573V33.7485H35.6323Z" fill="#F76943"/>
<path d="M21.9873 47.7048C18.6039 47.7048 15.8386 50.4693 15.8386 53.8535C15.8386 57.2377 18.6039 59.9985 21.9873 59.9985C25.3707 59.9985 28.1323 57.2377 28.1323 53.8535C28.1323 50.4693 25.3707 47.7048 21.9873 47.7048ZM21.9873 49.5798C24.3569 49.5798 26.2573 51.4822 26.2573 53.8535C26.2573 56.2248 24.3569 58.1235 21.9873 58.1235C19.6177 58.1235 17.7136 56.2248 17.7136 53.8535C17.7136 51.4822 19.6177 49.5798 21.9873 49.5798Z" fill="#F76943"/>
</svg>
