<svg width="60" height="60" viewBox="0 0 60 60" fill="none" xmlns="http://www.w3.org/2000/svg">
<path d="M55.4062 4.59383C54.1875 3.37508 50.5312 3.37508 46.9687 5.53133C43.7812 7.50008 40.125 10.7813 35.625 15.1876L30.2812 14.2501C31.2187 12.3751 31.3125 11.0626 30.5625 10.3126C28.7812 8.53133 24.75 11.6251 23.0625 12.9376L21 12.5626C22.2187 10.6876 22.9687 8.62508 21.8437 7.50008C20.1562 5.90633 16.3125 8.34383 13.3125 11.1563L8.34375 10.2188C7.5 10.0313 6.65625 10.3126 6.09375 10.9688L4.59375 12.4688C3.84375 13.1251 3.65625 14.0626 3.84375 14.9063C4.03125 15.7501 4.6875 16.5001 5.4375 16.7813L7.96875 17.7188C6.9375 19.5938 6.84375 21.0001 7.59375 21.8438C7.96875 22.2188 8.4375 22.4063 9 22.4063C10.5938 22.4063 12.6563 21.0938 14.0625 19.9688L16.4063 20.8126C15.5625 22.5938 15.4687 23.8126 16.2187 24.6563C16.5937 25.0313 17.0625 25.2188 17.625 25.2188C19.125 25.2188 21 24.0001 22.4062 23.0626L22.875 23.2501C23.7187 23.5313 24.4687 24.0001 25.125 24.5626L25.9687 25.2188C21.4687 29.9063 17.5312 34.5001 14.7188 38.4376C10.875 36.2813 7.40625 36.4688 7.3125 36.4688C7.21875 36.4688 6.65625 36.4688 6.28125 36.9376C5.8125 37.5001 5.625 38.3438 5.71875 39.4688C5.71875 40.0313 5.90625 41.3438 10.875 44.8126C9.84375 47.0626 9.84375 48.6563 10.6875 49.5001C11.0625 49.8751 11.7188 50.1563 12.375 50.1563C13.125 50.1563 14.1562 49.8751 15.2812 49.4063C18.6562 54.1876 19.9687 54.2813 20.5312 54.2813C20.7187 54.2813 20.9062 54.2813 21 54.2813C21.9375 54.2813 22.5937 54.0938 23.0625 53.6251C23.5312 53.1563 23.5312 52.6876 23.5312 52.5938C23.5312 52.4063 23.7187 49.1251 21.6562 45.4688C25.5937 42.6563 30.2812 38.7188 34.9687 34.2188L35.7187 35.0626C36.2812 35.7188 36.6563 36.3751 36.9375 37.1251C35.5313 39.0001 33.6562 42.0001 35.1562 43.5001C35.5312 43.8751 36 44.0626 36.5625 44.0626C37.3125 44.0626 38.1562 43.7813 39.1875 43.2188L39.9375 45.3751C38.3437 47.4376 36.375 50.6251 37.875 52.1251C38.25 52.5001 38.7188 52.6876 39.2813 52.6876C40.0313 52.6876 41.0625 52.3126 42.1875 51.6563L43.3125 54.6563C43.5938 55.5001 44.25 56.0626 45.1875 56.2501C45.375 56.2501 45.5625 56.3438 45.75 56.3438C46.4062 56.3438 47.0625 56.0626 47.5312 55.5938L49.0312 54.0938C49.5937 53.5313 49.875 52.6876 49.6875 51.8438L48.6563 46.2188C50.0625 44.6251 53.9062 39.9376 52.0312 37.9688C51 36.9376 49.0312 37.5938 47.3437 38.6251L46.9687 36.4688C48.4687 34.5938 51 30.9376 49.4062 29.3438C48.6562 28.5938 47.4375 28.5938 45.75 29.4376L44.8125 24.3751C48.6562 20.5313 52.4062 16.5001 54.4687 13.0313C56.625 9.46883 56.625 5.81258 55.4062 4.59383ZM39.1875 50.6251C39.1875 50.2501 39.4688 49.1251 40.6875 47.3438L41.5312 49.6876C40.2187 50.5313 39.4687 50.6251 39.1875 50.6251ZM29.0625 11.6251C29.0625 11.9063 28.9687 12.5626 28.2187 13.8751L25.5 13.4063C27.4687 12.0001 28.7812 11.6251 29.0625 11.6251ZM20.4375 8.90633C20.4375 9.18758 20.25 10.2188 18.9375 12.1876L15.6563 11.6251C18.1875 9.56258 19.9687 8.81258 20.4375 8.90633ZM9 20.4376C9 20.1563 9.09375 19.5001 9.75 18.2813L11.9063 19.0313C10.2188 20.2501 9.28125 20.4376 9 20.4376ZM17.625 23.1563C17.625 22.9688 17.7187 22.4063 18.1875 21.3751L20.1562 22.1251C18.75 22.9688 17.9062 23.1563 17.625 23.1563ZM23.5312 21.1876L6.09375 14.9063C5.8125 14.8126 5.71875 14.5313 5.625 14.4376C5.53125 14.3438 5.625 14.0626 5.8125 13.8751L7.3125 12.3751C7.5 12.1876 7.78125 12.0938 7.96875 12.1876L33.9375 16.8751C33.0938 17.7188 32.1562 18.6563 31.3125 19.5001C30.375 20.4376 29.4375 21.3751 28.5 22.4063C28.125 22.7813 27.6562 23.2501 27.2812 23.6251L26.3437 22.8751C25.5 22.1251 24.5625 21.5626 23.5312 21.1876ZM7.5 39.1876C7.5 38.6251 7.5 38.2501 7.59375 38.1563C8.34375 38.1563 10.7813 38.3438 13.5938 39.8438C12.8438 40.9688 12.1875 42.0938 11.625 43.0313C8.53125 40.7813 7.59375 39.5626 7.5 39.1876ZM20.625 52.2188C20.625 52.2188 19.6875 52.0313 16.9688 48.3751C17.9063 47.8126 18.9375 47.1563 20.1562 46.4063C21.4687 49.0313 21.6562 51.3751 21.6562 52.1251C21.4687 52.2188 21.1875 52.3126 20.625 52.2188ZM36.4688 42.0001C36.4688 41.6251 36.75 40.6876 37.6875 39.1876L38.4375 41.3438C37.3125 41.9063 36.6563 42.0001 36.4688 42.0001ZM47.7188 52.5938L46.2187 54.0938C45.9375 54.3751 45.6562 54.3751 45.5625 54.3751C45.4687 54.3751 45.1875 54.2813 45.0937 53.9063L38.8125 36.4688C38.4375 35.4376 37.875 34.5001 37.2188 33.6563L36.4688 32.7188C36.8438 32.3438 37.3125 31.9688 37.6875 31.5001L40.0313 29.1563C41.1563 28.0313 42.1875 27.0001 43.2187 25.9688L45.75 39.8438L47.1562 47.7188L47.9062 51.9376C47.9062 52.2188 47.8125 52.5001 47.7188 52.5938ZM50.7187 39.1876C50.8125 39.6563 50.1562 41.3438 48.2812 43.6876L47.7188 40.5001C49.5 39.2813 50.4375 39.0938 50.7187 39.1876ZM48 30.4688C48.0937 30.8438 47.7187 31.9688 46.5 33.7501L46.0312 31.2188C47.1562 30.5626 47.7187 30.4688 48 30.4688ZM52.875 12.0938C50.8125 15.4688 46.9687 19.5001 43.125 23.4376C41.7187 24.8438 40.2187 26.3438 38.7187 27.8438L36.2813 30.1876C35.625 30.8438 35.0625 31.4063 34.4063 31.9688C29.25 36.9376 24.0937 41.3438 19.875 44.2501C18.0937 45.4688 16.5 46.5001 15.0938 47.1563C12.8438 48.2813 12 48.0938 11.9063 48.0001C11.9063 48.0001 11.4375 47.3438 12.75 44.7188L12.8438 44.5313C13.5 43.2188 14.4375 41.7188 15.6563 39.9376C18.5625 35.7188 22.9687 30.5626 27.8437 25.5001C28.4062 24.8438 29.0625 24.2813 29.625 23.6251C30.5625 22.6876 31.5937 21.6563 32.4375 20.7188C33.75 19.3126 35.0625 18.0001 36.375 16.7813C40.9687 12.2813 44.625 8.90633 47.7188 7.03133C50.9063 5.06258 53.5312 5.43758 53.9062 5.81258C54.4687 6.28133 54.75 8.90633 52.875 12.0938Z" fill="#F76943"/>
<path d="M48.8438 7.49996C48.3751 7.59371 48.0001 8.06246 48.0938 8.62496C48.1876 9.09371 48.6563 9.46871 49.2188 9.37496C49.6876 9.28121 50.0626 9.37496 50.2501 9.56246C50.4376 9.74996 50.5313 10.125 50.4376 10.5937C50.3438 11.0625 50.6251 11.625 51.1876 11.7187C51.2813 11.7187 51.2813 11.7187 51.3751 11.7187C51.8438 11.7187 52.2188 11.4375 52.3126 10.9687C52.5001 9.84371 52.3126 8.81246 51.6563 8.15621C51.0001 7.49996 49.9688 7.21871 48.8438 7.49996Z" fill="#F76943"/>
</svg>
