<svg width="60" height="60" viewBox="0 0 60 60" fill="none" xmlns="http://www.w3.org/2000/svg">
<path d="M40.3125 53.4375H30C29.7514 53.4375 29.5129 53.3387 29.3371 53.1629C29.1613 52.9871 29.0625 52.7486 29.0625 52.5C29.0625 52.2514 29.1613 52.0129 29.3371 51.8371C29.5129 51.6613 29.7514 51.5625 30 51.5625H40.3125C40.5611 51.5625 40.7996 51.6613 40.9754 51.8371C41.1512 52.0129 41.25 52.2514 41.25 52.5C41.25 52.7486 41.1512 52.9871 40.9754 53.1629C40.7996 53.3387 40.5611 53.4375 40.3125 53.4375Z" fill="#F76943"/>
<path d="M40.3125 53.4376C40.0639 53.4376 39.8254 53.3388 39.6496 53.163C39.4738 52.9872 39.375 52.7487 39.375 52.5001V44.5313C39.375 43.4125 38.9305 42.3394 38.1394 41.5482C37.3482 40.7571 36.2751 40.3126 35.1562 40.3126C34.0374 40.3126 32.9643 40.7571 32.1731 41.5482C31.382 42.3394 30.9375 43.4125 30.9375 44.5313V52.5001C30.9375 52.7487 30.8387 52.9872 30.6629 53.163C30.4871 53.3388 30.2486 53.4376 30 53.4376H19.6875C17.4497 53.4376 11.25 53.44 11.25 53.44C11.25 53.44 11.25 47.2379 11.25 45.0001V28.7251C11.25 28.4765 11.3488 28.238 11.5246 28.0622C11.7004 27.8864 11.9389 27.7876 12.1875 27.7876C12.4361 27.7876 12.6746 27.8864 12.8504 28.0622C13.0262 28.238 13.125 28.4765 13.125 28.7251V45.0001C13.125 46.7406 13.13 51.56 13.13 51.56C13.13 51.56 17.947 51.5626 19.6875 51.5626H29.0625V44.5313C29.0625 42.9152 29.7045 41.3652 30.8473 40.2224C31.9901 39.0796 33.5401 38.4376 35.1562 38.4376C36.7724 38.4376 38.3224 39.0796 39.4652 40.2224C40.608 41.3652 41.25 42.9152 41.25 44.5313V51.497C41.25 51.5 46.88 51.5 46.88 51.5C46.88 51.5 46.8754 46.5784 46.875 45.0001V28.7251C46.875 28.4765 46.9738 28.238 47.1496 28.0622C47.3254 27.8864 47.5639 27.7876 47.8125 27.7876C48.0611 27.7876 48.2996 27.8864 48.4754 28.0622C48.6512 28.238 48.75 28.4765 48.75 28.7251V45.0001C48.75 47.2379 48.75 53.44 48.75 53.44C48.75 53.44 42.5503 53.4376 40.3125 53.4376ZM22.625 44.0626H20.75C19.7554 44.0626 18.8016 43.6675 18.0984 42.9642C17.3951 42.261 17 41.3072 17 40.3126V35.6251C17 34.6305 17.3951 33.6767 18.0984 32.9734C18.8016 32.2702 19.7554 31.8751 20.75 31.8751H22.625C23.6196 31.8751 24.5734 32.2702 25.2766 32.9734C25.9799 33.6767 26.375 34.6305 26.375 35.6251V40.3126C26.375 41.3072 25.9799 42.261 25.2766 42.9642C24.5734 43.6675 23.6196 44.0626 22.625 44.0626ZM20.75 33.7501C20.2527 33.7501 19.7758 33.9476 19.4242 34.2993C19.0725 34.6509 18.875 35.1278 18.875 35.6251V40.3126C18.875 40.8099 19.0725 41.2868 19.4242 41.6384C19.7758 41.9901 20.2527 42.1876 20.75 42.1876H22.625C23.1223 42.1876 23.5992 41.9901 23.9508 41.6384C24.3025 41.2868 24.5 40.8099 24.5 40.3126V35.6251C24.5 35.1278 24.3025 34.6509 23.9508 34.2993C23.5992 33.9476 23.1223 33.7501 22.625 33.7501H20.75Z" fill="#F76943"/>
<path d="M35.1562 30C34.1475 30.0123 33.151 29.7788 32.2526 29.3199C31.3543 28.8609 30.5812 28.1902 30 27.3656C29.4098 28.1808 28.6348 28.8444 27.7385 29.3021C26.8422 29.7597 25.8501 29.9984 24.8438 29.9984C23.8374 29.9984 22.8453 29.7597 21.949 29.3021C21.0527 28.8444 20.2777 28.1808 19.6875 27.3656L19.6031 27.4875L19.5187 27.6C19.3229 27.8604 19.1032 28.1021 18.8625 28.3218L18.7406 28.4343C18.4968 28.6481 18.2366 28.8424 17.9625 29.0156L17.8125 29.0625C17.5109 29.2315 17.1976 29.3788 16.875 29.5031H16.7625C16.4288 29.635 16.0836 29.7354 15.7313 29.8031H15.6281C15.2654 29.8636 14.8989 29.8981 14.5312 29.9062H14.4375C14.272 29.9156 14.1061 29.9156 13.9406 29.9062C13.8502 29.9152 13.7592 29.9152 13.6687 29.9062C13.4602 29.8828 13.2535 29.8453 13.05 29.7937C12.8817 29.7568 12.7158 29.7098 12.5531 29.6531C12.3143 29.578 12.0796 29.4904 11.85 29.3906L11.6719 29.2968C10.7259 28.8617 9.92122 28.1696 9.34939 27.2994C8.77756 26.4292 8.4616 25.4159 8.4375 24.375V12.1875C8.48874 10.8951 9.0505 9.67576 9.99956 8.797C10.9486 7.91824 12.2075 7.45179 13.5 7.49998H46.5C47.7925 7.45179 49.0514 7.91824 50.0004 8.797C50.9495 9.67576 51.5113 10.8951 51.5625 12.1875V24.1781C51.5341 25.6593 50.9544 27.0766 49.9367 28.1532C48.9191 29.2298 47.5366 29.8883 46.0594 30C45.1786 30.0859 44.2895 29.9877 43.4487 29.7117C42.6079 29.4358 41.8336 28.988 41.175 28.3969C40.8484 28.0912 40.5589 27.7483 40.3125 27.375C39.7286 28.1961 38.9547 28.8637 38.0568 29.3208C37.1589 29.7779 36.1637 30.0109 35.1562 30ZM16.1437 27.8344L16.5844 28.6687L16.2375 27.7968C16.4579 27.7109 16.6711 27.6074 16.875 27.4875L16.9781 27.4218C17.163 27.3043 17.3385 27.1727 17.5031 27.0281L17.5875 26.9531C17.7466 26.802 17.8939 26.6391 18.0281 26.4656C18.1755 26.2653 18.3041 26.0519 18.4125 25.8281C18.5209 25.6031 18.6057 25.3674 18.6656 25.125C18.7179 24.8783 18.7462 24.6271 18.75 24.375C18.75 24.1263 18.8488 23.8879 19.0246 23.7121C19.2004 23.5362 19.4389 23.4375 19.6875 23.4375C19.9361 23.4375 20.1746 23.5362 20.3504 23.7121C20.5262 23.8879 20.625 24.1263 20.625 24.375C20.6902 25.4306 21.1705 26.4174 21.961 27.1201C22.7514 27.8227 23.7878 28.184 24.8438 28.125C25.8997 28.184 26.9361 27.8227 27.7265 27.1201C28.517 26.4174 28.9973 25.4306 29.0625 24.375C29.0625 24.1263 29.1613 23.8879 29.3371 23.7121C29.5129 23.5362 29.7514 23.4375 30 23.4375C30.2486 23.4375 30.4871 23.5362 30.6629 23.7121C30.8387 23.8879 30.9375 24.1263 30.9375 24.375C31.0027 25.4306 31.483 26.4174 32.2735 27.1201C33.0639 27.8227 34.1003 28.184 35.1562 28.125C36.2122 28.184 37.2486 27.8227 38.039 27.1201C38.8295 26.4174 39.3098 25.4306 39.375 24.375C39.375 24.1263 39.4738 23.8879 39.6496 23.7121C39.8254 23.5362 40.0639 23.4375 40.3125 23.4375C40.5611 23.4375 40.7996 23.5362 40.9754 23.7121C41.1512 23.8879 41.25 24.1263 41.25 24.375C41.2549 24.8685 41.3635 25.3556 41.5686 25.8045C41.7737 26.2535 42.0708 26.6544 42.4406 26.9812C42.911 27.406 43.4653 27.7272 44.0677 27.9243C44.67 28.1213 45.307 28.1897 45.9375 28.125C46.9359 28.045 47.8699 27.6003 48.5615 26.8759C49.253 26.1515 49.6539 25.1978 49.6875 24.1968V12.1875C49.6321 11.394 49.2666 10.6542 48.6702 10.1279C48.0738 9.60164 47.2942 9.33118 46.5 9.37498H13.5C12.7058 9.33118 11.9262 9.60164 11.3298 10.1279C10.7334 10.6542 10.3679 11.394 10.3125 12.1875V24.1781C10.3125 24.1781 10.3125 24.3 10.3125 24.3281C10.3222 24.3997 10.3222 24.4722 10.3125 24.5437C10.3702 25.2078 10.6038 25.8446 10.9894 26.3884C11.375 26.9322 11.8986 27.3633 12.5063 27.6375L12.6469 27.7125C12.8029 27.7805 12.9625 27.8399 13.125 27.8906L13.4813 27.9937L13.875 28.0593L14.0625 28.125C14.2217 28.1346 14.3814 28.1346 14.5406 28.125C14.8051 28.1304 15.0694 28.1053 15.3281 28.05H15.4219C15.6684 27.9995 15.9099 27.9273 16.1437 27.8344Z" fill="#F76943"/>
</svg>
