<svg width="60" height="60" viewBox="0 0 60 60" fill="none" xmlns="http://www.w3.org/2000/svg">
<g clip-path="url(#clip0_324_1106)">
<path d="M14.6058 17.845C14.6667 17.7231 14.6984 17.5887 14.6984 17.4525C14.6984 17.3162 14.6667 17.1818 14.6058 17.0599C14.1592 16.1529 13.4676 15.389 12.6093 14.8549C11.751 14.3208 10.7602 14.0376 9.74928 14.0376C8.73833 14.0376 7.74757 14.3208 6.88925 14.8549C6.03092 15.389 5.33933 16.1529 4.89281 17.0599C4.8319 17.1818 4.8002 17.3162 4.8002 17.4525C4.8002 17.5887 4.8319 17.7231 4.89281 17.845C5.33933 18.752 6.03092 19.5159 6.88925 20.05C7.74757 20.5841 8.73833 20.8673 9.74928 20.8673C10.7602 20.8673 11.751 20.5841 12.6093 20.05C13.4676 19.5159 14.1592 18.752 14.6058 17.845V17.845ZM6.69136 17.4525C7.02298 16.9437 7.47632 16.5257 8.01028 16.2363C8.54424 15.947 9.14196 15.7955 9.74928 15.7955C10.3566 15.7955 10.9543 15.947 11.4883 16.2363C12.0222 16.5257 12.4756 16.9437 12.8072 17.4525C12.4756 17.9612 12.0222 18.3792 11.4883 18.6686C10.9543 18.9579 10.3566 19.1094 9.74928 19.1094C9.14196 19.1094 8.54424 18.9579 8.01028 18.6686C7.47632 18.3792 7.02298 17.9612 6.69136 17.4525ZM24.1698 14.0376C23.1587 14.037 22.1677 14.3198 21.3092 14.854C20.4507 15.3882 19.7592 16.1524 19.3132 17.0598C19.2523 17.1817 19.2205 17.3162 19.2205 17.4525C19.2205 17.5887 19.2523 17.7232 19.3132 17.8451C19.7597 18.7521 20.4513 19.5159 21.3097 20.05C22.168 20.5842 23.1588 20.8673 24.1697 20.8673C25.1807 20.8672 26.1714 20.5841 27.0298 20.05C27.8881 19.5159 28.5797 18.752 29.0262 17.845C29.0871 17.7231 29.1188 17.5887 29.1188 17.4525C29.1188 17.3162 29.0871 17.1818 29.0262 17.0599C28.5802 16.1524 27.8888 15.3882 27.0303 14.854C26.1719 14.3198 25.1809 14.037 24.1698 14.0376V14.0376ZM24.1698 19.1094C23.5624 19.1097 22.9646 18.9583 22.4306 18.6689C21.8966 18.3796 21.4433 17.9614 21.1118 17.4525C21.4435 16.9437 21.8968 16.5257 22.4307 16.2363C22.9647 15.947 23.5624 15.7955 24.1697 15.7955C24.7771 15.7955 25.3748 15.947 25.9087 16.2363C26.4427 16.5257 26.896 16.9437 27.2277 17.4525C26.8962 17.9614 26.443 18.3795 25.909 18.6689C25.375 18.9583 24.7772 19.1097 24.1698 19.1094V19.1094ZM25.2027 26.9897C25.0699 26.9024 24.9158 26.8527 24.7569 26.846C24.598 26.8393 24.4403 26.8758 24.3005 26.9517C22.0463 28.1737 19.5234 28.8154 16.9593 28.8188H16.9315C14.377 28.8105 11.8644 28.169 9.61853 26.9517C9.47878 26.8758 9.32107 26.8393 9.1622 26.846C9.00333 26.8527 8.84925 26.9024 8.71639 26.9897C8.58352 27.0771 8.47685 27.1989 8.40772 27.3421C8.33859 27.4853 8.30961 27.6445 8.32386 27.8029C8.51772 29.9633 9.49971 31.9768 11.0827 33.4598C12.6447 34.937 14.7042 35.7742 16.8538 35.8058C16.8888 35.8062 16.9232 35.8064 16.9582 35.8064C21.405 35.8064 25.1889 32.3103 25.5952 27.803C25.6094 27.6446 25.5805 27.4854 25.5114 27.3421C25.4423 27.1989 25.3356 27.0771 25.2028 26.9897H25.2027ZM16.8753 34.0481C13.9378 34.0121 11.3585 32.0187 10.4216 29.2766C12.4852 30.1293 14.6955 30.571 16.9283 30.5767H16.9593C19.2041 30.5751 21.4266 30.1329 23.501 29.2752C22.551 32.086 19.9031 34.0855 16.8753 34.0481H16.8753ZM58.9837 14.5244C58.6757 14.342 58.3251 14.2443 57.9672 14.2413C57.6093 14.2383 57.2571 14.3301 56.9461 14.5073C52.6425 16.936 47.7802 18.2011 42.8386 18.1778C39.8024 18.1551 36.79 17.6398 33.919 16.6518V4.15561C33.9192 3.79772 33.8257 3.44602 33.6478 3.13548C33.4699 2.82494 33.2138 2.56638 32.905 2.38552C32.5961 2.20466 32.2453 2.1078 31.8875 2.10458C31.5296 2.10135 31.1771 2.19187 30.8651 2.36713C26.6203 4.76131 21.8318 6.0254 16.9584 6.03828C16.8918 6.03828 16.8244 6.03804 16.7576 6.03753C11.9547 5.9903 7.24179 4.72853 3.05775 2.36971C2.74575 2.19373 2.3931 2.10256 2.03491 2.10527C1.67672 2.10798 1.32549 2.20447 1.01619 2.38515C0.706897 2.56583 0.450328 2.82438 0.272037 3.13505C0.0937465 3.44573 -4.60042e-05 3.79769 1.69277e-08 4.1559V26.5067C1.69277e-08 33.2697 3.19965 39.723 8.55904 43.7692C10.977 45.5997 13.9268 46.5903 16.9595 46.5903C19.9922 46.5903 22.942 45.5997 25.36 43.7692C25.7491 43.4754 26.1255 43.1675 26.4914 42.8491C27.5181 48.0529 30.4173 52.6997 34.64 55.9094C37.058 57.7399 40.0078 58.7305 43.0405 58.7305C46.0732 58.7305 49.023 57.7399 51.441 55.9094C56.8003 51.8632 60 45.41 60 38.6469V16.2959C60.002 15.9372 59.909 15.5843 59.7305 15.2732C59.552 14.9621 59.2943 14.7037 58.9837 14.5244V14.5244ZM33.8204 28.5452C34.4152 28.1473 35.1147 27.9352 35.8303 27.9357C36.4377 27.9355 37.0355 28.0869 37.5695 28.3763C38.1035 28.6656 38.5568 29.0837 38.8883 29.5927C38.6107 30.0194 38.2468 30.3833 37.8201 30.6608C37.3933 30.9383 36.9131 31.1233 36.4104 31.2038C35.9078 31.2843 35.3938 31.2586 34.9017 31.1284C34.4096 30.9981 33.9503 30.7662 33.5533 30.4475C33.67 29.8194 33.7591 29.1853 33.8204 28.5452ZM24.301 42.3662C22.188 43.9664 19.61 44.8324 16.9595 44.8324C14.309 44.8324 11.731 43.9664 9.61807 42.3662C4.6962 38.6504 1.75781 32.7216 1.75781 26.5067V4.1559C1.75677 4.10464 1.76967 4.05407 1.79512 4.00958C1.82058 3.96509 1.85764 3.92834 1.90235 3.90327C1.94734 3.87656 1.99858 3.86221 2.0509 3.86167C2.10168 3.86208 2.15148 3.87579 2.19532 3.90143C6.639 6.40618 11.6443 7.74572 16.745 7.79534C16.8164 7.79585 16.8874 7.79608 16.9585 7.79608C22.1339 7.78289 27.2192 6.44099 31.7273 3.89892C31.771 3.87327 31.821 3.85998 31.8717 3.86046C31.9225 3.86094 31.9721 3.87518 32.0154 3.90167C32.0604 3.92684 32.0978 3.96376 32.1234 4.00848C32.1491 4.0532 32.1622 4.10405 32.1612 4.15561V26.5067C32.1612 32.7216 29.2228 38.6504 24.301 42.3662ZM58.2422 38.6469C58.2422 44.8618 55.3038 50.7906 50.3819 54.5065C48.269 56.1067 45.691 56.9727 43.0405 56.9727C40.39 56.9727 37.812 56.1067 35.699 54.5065C31.5044 51.3162 28.7453 46.5934 28.0261 41.3727C30.4379 38.8004 32.1891 35.681 33.1292 32.2825C33.7705 32.6529 34.4811 32.8877 35.2168 32.9722C35.9526 33.0567 36.6979 32.9892 37.4065 32.7738C38.1151 32.5584 38.7718 32.1998 39.3361 31.7201C39.9004 31.2404 40.3601 30.65 40.6868 29.9853C40.7477 29.8634 40.7794 29.729 40.7794 29.5927C40.7794 29.4564 40.7477 29.322 40.6868 29.2C40.0928 27.9929 39.0705 27.0503 37.8191 26.5562C36.5678 26.062 35.1773 26.0517 33.9187 26.5272C33.9187 26.5204 33.919 26.5135 33.919 26.5067V18.5034C36.7981 19.4304 39.8015 19.9133 42.826 19.9356C42.8974 19.9361 42.9683 19.9363 43.0395 19.9363C48.2149 19.9231 53.3003 18.5812 57.8083 16.0391C57.8521 16.0136 57.902 16.0003 57.9527 16.0008C58.0035 16.0013 58.0531 16.0155 58.0964 16.0419C58.1414 16.067 58.1787 16.104 58.2044 16.1487C58.2301 16.1934 58.2431 16.2443 58.2422 16.2959V38.6469ZM50.2508 26.1779C49.2397 26.1772 48.2486 26.46 47.3902 26.9942C46.5317 27.5285 45.8402 28.2927 45.3942 29.2001C45.3333 29.322 45.3016 29.4564 45.3016 29.5927C45.3016 29.729 45.3333 29.8634 45.3942 29.9853C45.8408 30.8923 46.5324 31.6561 47.3907 32.1902C48.249 32.7244 49.2398 33.0075 50.2507 33.0075C51.2617 33.0075 52.2524 32.7244 53.1108 32.1902C53.9691 31.6561 54.6607 30.8923 55.1072 29.9853C55.1681 29.8634 55.1998 29.729 55.1998 29.5927C55.1998 29.4564 55.1681 29.322 55.1072 29.2001C54.6612 28.2927 53.9698 27.5285 53.1113 26.9943C52.2529 26.4601 51.2619 26.1772 50.2508 26.1779V26.1779ZM50.2508 31.2497C49.6434 31.2499 49.0456 31.0985 48.5116 30.8091C47.9776 30.5198 47.5243 30.1016 47.1928 29.5927C47.5244 29.0839 47.9778 28.6659 48.5117 28.3766C49.0457 28.0872 49.6434 27.9357 50.2507 27.9357C50.858 27.9357 51.4558 28.0872 51.9897 28.3766C52.5237 28.6659 52.977 29.0839 53.3086 29.5927C52.9772 30.1016 52.5239 30.5198 51.9899 30.8091C51.4559 31.0985 50.8581 31.2499 50.2508 31.2497V31.2497ZM43.0392 38.9854C43.0044 38.9854 42.9696 38.9856 42.9348 38.9861C40.7852 39.0177 38.7256 39.8549 37.1637 41.3321C35.5807 42.815 34.5987 44.8286 34.4048 46.989C34.3906 47.1474 34.4195 47.3066 34.4887 47.4498C34.5578 47.593 34.6645 47.7148 34.7973 47.8022C34.9302 47.8895 35.0843 47.9392 35.2432 47.9459C35.402 47.9526 35.5598 47.9161 35.6995 47.8402C37.9453 46.6229 40.458 45.9813 43.0125 45.973H43.0403C45.6044 45.9766 48.1273 46.6182 50.3815 47.8402C50.5212 47.9161 50.6789 47.9526 50.8378 47.9459C50.9967 47.9392 51.1508 47.8895 51.2837 47.8021C51.4166 47.7148 51.5232 47.593 51.5924 47.4498C51.6615 47.3065 51.6904 47.1472 51.6761 46.9889C51.27 42.4813 47.4865 38.9854 43.0392 38.9854V38.9854ZM43.0403 44.2152H43.0093C40.7764 44.2209 38.5662 44.6625 36.5025 45.5153C37.4395 42.7732 40.0187 40.7798 42.9563 40.7438C45.981 40.7025 48.632 42.7058 49.582 45.5166C47.5076 44.6589 45.285 44.2167 43.0403 44.2152V44.2152Z" fill="#F76943"/>
</g>
<defs>
<clipPath id="clip0_324_1106">
<rect width="60" height="60" fill="white"/>
</clipPath>
</defs>
</svg>
